<?xml version="1.0" standalone="no"?>
<!DOCTYPE svg PUBLIC "-//W3C//DTD SVG 20010904//EN"
 "http://www.w3.org/TR/2001/REC-SVG-20010904/DTD/svg10.dtd">
<svg version="1.0" xmlns="http://www.w3.org/2000/svg"
 width="261.000000pt" height="261.000000pt" viewBox="0 0 261.000000 261.000000"
 preserveAspectRatio="xMidYMid meet">

<g transform="translate(0.000000,261.000000) scale(0.100000,-0.100000)"
fill="#000000" stroke="none">
<path d="M949 2495 c-476 -65 -659 -296 -635 -799 9 -186 27 -274 76 -373 48
-98 104 -152 205 -198 100 -46 163 -60 490 -106 330 -46 361 -52 375 -79 6
-12 10 -166 10 -416 l0 -396 78 6 c334 29 521 127 620 325 66 130 77 200 77
461 -1 199 -3 235 -23 314 -50 198 -140 294 -319 341 -30 8 -193 33 -362 55
-168 22 -329 45 -357 51 -93 18 -89 -4 -92 440 l-3 389 -22 -1 c-12 -1 -65 -7
-118 -14z"/>
<path d="M1290 2205 l0 -305 143 0 c136 0 392 -18 582 -39 50 -6 96 -11 103
-11 9 0 12 64 12 289 l0 288 -92 17 c-237 44 -451 66 -630 66 l-118 0 0 -305z"/>
<path d="M380 502 l0 -289 138 -22 c273 -42 477 -61 659 -61 l103 0 0 304 0
303 -192 7 c-197 7 -575 31 -660 42 l-48 6 0 -290z"/>
</g>
</svg>
