<svg width="1em" height="2em" viewBox="0 0 33 66" fill="none" xmlns="http://www.w3.org/2000/svg">
<path fill-rule="evenodd" clip-rule="evenodd" d="M27.8865 1.1908C27.5128 1.3173 27.0211 1.45999 26.7939 1.50792C26.3635 1.5986 24.402 2.54686 24.026 2.84607C23.6856 3.11686 23.7599 3.52008 24.1994 3.78729L24.5889 4.02423L25.2186 3.653C25.5649 3.44892 26.0427 3.19407 26.2805 3.08684C26.8465 2.83137 28.7485 2.42864 29.6419 2.3749C30.4557 2.32598 30.4972 2.37848 30.5069 3.46906C30.5194 4.846 29.9704 5.25614 27.9232 5.39919C26.6002 5.49172 26.0331 5.70593 26.0338 6.11299C26.0342 6.34388 26.7003 6.84432 26.9252 6.78268C27.001 6.76192 27.5523 6.72128 28.1504 6.69237C29.6484 6.6201 30.8322 6.30817 31.222 5.88333C31.9187 5.12383 32.0661 4.83858 32.0661 4.25006C32.0661 3.43756 31.7752 1.85197 31.5838 1.62133C31.0181 0.939901 29.2394 0.732729 27.8865 1.1908ZM4.53737 1.56203C3.91438 1.75153 3.47199 2.0626 2.73756 2.82716C1.14012 4.49033 0.628552 5.24193 0.454984 6.18081C0.346643 6.76699 0.359369 6.95192 0.533061 7.31808C0.784334 7.84744 1.5132 8.30143 2.42626 8.49724C3.31498 8.68785 5.27291 8.44461 5.6781 8.09315L5.9547 7.85336L5.64783 7.61753C5.21459 7.28448 4.68252 7.20974 3.43913 7.30696C1.63216 7.44829 1.40621 7.28275 1.80882 6.11249C2.06009 5.38227 3.21095 3.8645 3.94661 3.29302C4.6761 2.72661 5.04893 2.63593 5.71702 2.86275C6.04031 2.97257 6.46305 3.17505 6.65651 3.31267C6.84984 3.45028 7.49112 3.80953 8.08163 4.11083L9.1554 4.65872L10.8308 4.53889C11.7523 4.47292 13.5346 4.3899 14.7916 4.35432C16.0486 4.31874 17.5774 4.20855 18.1889 4.10947C18.8004 4.01027 20.1825 3.85931 21.2602 3.77395C23.3674 3.60693 23.5865 3.51526 23.0818 3.01148C22.8267 2.75675 22.7073 2.7439 20.6248 2.74724C19.337 2.74934 18.1624 2.8137 17.7714 2.90376C17.406 2.98801 15.6388 3.14243 13.8446 3.24719C11.9598 3.35714 10.3867 3.50637 10.1194 3.60075C9.68822 3.75283 9.5921 3.73726 8.71042 3.37172C8.18996 3.1559 7.33015 2.70202 6.79969 2.36304C5.98114 1.84011 5.096 1.41799 4.89995 1.45727C4.87079 1.46308 4.7076 1.51027 4.53737 1.56203ZM19.2819 7.19356C18.1531 7.78604 18.0415 7.8887 17.882 8.48093C17.5247 9.80759 18.7972 11.4843 19.7731 10.9729C20.4206 10.6337 21.3659 10.0048 21.4751 9.8407C21.6452 9.58498 21.4741 7.75194 21.2432 7.35601C21.0384 7.00504 20.5975 6.74722 20.2523 6.77675C20.1365 6.78663 19.7 6.97416 19.2819 7.19356ZM24.3682 6.92684C24.1477 7.08818 24.1468 7.12537 24.3446 7.83064C24.5783 8.66352 24.6119 10.067 24.4242 11.1524C24.1735 12.6025 23.8974 13.6194 23.6886 13.8621C23.5717 13.9979 23.4416 14.2065 23.3996 14.3253C23.3539 14.4551 23.1969 14.5415 23.0068 14.5415C22.6261 14.5415 22.5517 14.7093 22.6784 15.2827C22.849 16.0553 22.4923 17.2639 21.4463 19.4553C20.9061 20.5874 20.8906 20.9576 21.3749 21.1781C21.7898 21.3673 21.9974 21.2013 22.4516 20.3181C22.6703 19.8927 22.8912 19.4993 22.9426 19.4437C22.9938 19.3882 23.2105 20.0553 23.424 20.9261C23.6374 21.797 23.9717 23.1211 24.1668 23.8685C24.6425 25.6909 25.3923 28.9104 25.5189 29.6747C25.6274 30.3292 25.6001 35.0193 25.4848 35.5427C25.4475 35.7125 25.3844 37.0467 25.3448 38.5076C25.3052 39.9684 25.2288 41.9347 25.1752 42.8772C25.0779 44.5899 25.0776 44.5909 24.7048 44.8828C24.4996 45.0434 24.2954 45.3191 24.2512 45.4955C24.1417 45.9316 23.6381 46.6981 22.8766 47.5875C21.8882 48.742 21.7576 49.1355 22.3655 49.1286C22.7699 49.124 24.0723 47.8079 24.1353 47.3404C24.1444 47.2725 24.1583 47.1549 24.1662 47.0792C24.174 47.0035 24.3463 46.7534 24.549 46.5233L24.9177 46.105L24.9196 46.7435C24.9221 47.5282 25.0087 47.7728 25.2839 47.7728C25.6306 47.7728 26.015 47.2529 26.1073 46.6596C26.1546 46.3546 26.2643 46.0015 26.3509 45.8751C26.4915 45.6697 26.5176 45.7072 26.5955 46.2267C26.7057 46.9611 26.6173 47.7063 26.2316 49.2935C26.0633 49.9859 25.8353 51.0423 25.7246 51.6411C25.614 52.2399 25.2834 53.4351 24.9899 54.2971C23.9027 57.4903 23.6549 58.3955 23.8151 58.5886C24.0163 58.8311 24.1066 58.8172 24.6803 58.455C25.2544 58.0926 25.5703 57.4837 26.1565 55.6094C26.3677 54.9343 26.5875 54.2708 26.6451 54.1349C26.9072 53.5159 27.0357 53.0211 27.399 51.2318C27.6127 50.1786 27.8085 49.2829 27.834 49.2411C27.8594 49.1995 27.9348 48.6714 28.0014 48.0675C28.0934 47.2338 28.0828 46.7834 27.9574 46.1946C27.7775 45.3502 27.2563 44.4826 26.8055 44.2772C26.499 44.1376 26.5021 44.2125 26.7144 42.0901C26.745 41.7844 26.7992 40.8393 26.8351 39.99C26.9191 37.9985 27.0122 36.4551 27.1183 35.2956C27.2726 33.6111 27.2231 29.3467 27.0438 28.8717C26.8401 28.332 26.4531 26.8996 26.154 25.5792C26.0286 25.0253 25.7293 23.9413 25.489 23.1703C25.2487 22.3992 24.8589 20.9658 24.6224 19.9849C24.3839 18.9947 24.0834 18.0536 23.947 17.8691C23.7153 17.5557 23.7119 17.5024 23.8874 16.9348C24.0507 16.4063 24.0638 15.6045 23.9184 15.0386C23.888 14.92 23.9796 14.8431 24.1804 14.8187C24.8255 14.7403 25.0418 14.655 25.1613 14.4317C25.2817 14.2067 25.8714 11.3876 25.9005 10.8972C25.9504 10.0601 25.8992 8.93085 25.7782 8.20409C25.6481 7.42223 25.6053 7.34316 25.1589 7.06138C24.595 6.70534 24.6567 6.71584 24.3682 6.92684ZM9.96753 8.34504C8.72859 9.63402 8.66039 10.3718 9.70637 11.1697C10.3696 11.6755 10.8598 11.6947 11.7668 11.2506C12.5384 10.8728 12.815 10.4249 12.815 9.55298C12.815 8.39902 12.2643 7.65867 11.3109 7.53081C10.8273 7.46596 10.7918 7.48745 9.96753 8.34504ZM5.05696 9.13061C4.97543 9.21214 4.90872 9.38114 4.90872 9.50628C4.90872 9.77868 5.29662 11.0418 5.77211 12.3178C5.96199 12.8274 6.1552 13.4761 6.20165 13.7593C6.32222 14.4958 6.98017 15.5229 7.59563 15.9355C7.96044 16.18 8.12066 16.3745 8.12066 16.5729C8.12066 16.7301 8.37836 17.4584 8.69325 18.1916L9.26597 19.5246L8.93143 20.4611C8.74748 20.9763 8.49226 21.6908 8.3644 22.0488C8.23642 22.4069 8.05284 22.8517 7.95648 23.0371C7.86013 23.2226 7.65666 23.7357 7.50422 24.1773C6.91322 25.8899 6.79475 26.5476 6.77449 28.2266C6.76362 29.1289 6.67578 30.4353 6.57917 31.1297C6.48257 31.8242 6.37189 33.004 6.33309 33.7514C6.2943 34.4988 6.23574 35.4161 6.20301 35.7898C6.17027 36.1634 6.06033 37.9424 5.95866 39.7429C5.76569 43.1599 5.73975 45.1552 5.88181 45.6635C6.01474 46.1391 6.25378 46.1091 6.45774 45.5909C6.56052 45.3301 6.69864 45.0203 6.76485 44.9023C6.83107 44.7843 6.8853 44.4401 6.8853 44.1375C6.8853 43.8348 6.94089 43.5528 7.00883 43.5108C7.08617 43.463 7.13286 43.726 7.13373 44.2138C7.13447 44.6425 7.16845 45.1947 7.20921 45.441C7.2779 45.8564 7.26072 45.8889 6.9735 45.8889C6.50073 45.8889 6.05662 46.2816 5.68119 47.0316C5.36407 47.6651 5.34183 47.8113 5.35209 49.1934C5.36259 50.6052 5.3884 50.7495 5.8949 52.2201C6.18744 53.0694 6.75781 54.5704 7.16252 55.5556C7.5671 56.5408 8.13746 57.9396 8.43012 58.6639C9.07127 60.2511 9.49957 61.0056 9.99693 61.424C10.3005 61.6795 10.3544 61.7986 10.2876 62.0653C10.1798 62.4946 9.32131 63.2709 8.68584 63.5135C8.40863 63.6194 8.10596 63.8278 8.01294 63.9766C7.8558 64.2282 7.8868 64.2868 8.45507 64.8119C9.74479 66.0037 9.65931 65.9688 11.2091 65.9341C13.1219 65.8911 14.7147 65.5661 14.9234 65.176C15.0919 64.861 14.8802 64.2792 14.5001 64.0129C14.1464 63.7652 14.015 63.7843 13.6322 64.139C13.4503 64.3076 13.0113 64.5279 12.6568 64.6287C11.8868 64.8474 9.41989 65.1219 9.23743 65.0092C9.0137 64.871 9.09747 64.6902 9.45634 64.5369C9.64733 64.4553 10.2032 64.1145 10.6917 63.7798C11.5494 63.192 11.5797 63.154 11.578 62.6679C11.5756 61.9477 11.4734 61.6599 11.1609 61.4926C10.8544 61.3285 10.158 59.9195 9.72243 58.5822C9.56752 58.1066 9.23373 57.2449 8.98085 56.6674C8.72784 56.0899 8.28435 55.0058 7.9954 54.2584C7.70645 53.511 7.33732 52.566 7.17512 52.1583C6.59301 50.695 6.38967 49.1558 6.65293 48.2052C6.78993 47.7106 7.19846 47.0303 7.35696 47.0329C7.45159 47.0344 7.96772 48.3251 8.61481 50.1786C9.03483 51.3819 9.05855 51.4182 9.4488 51.4558C10.0268 51.5116 10.1228 51.1716 9.89687 49.8693C9.79828 49.3018 9.67289 48.7786 9.61804 48.7066C9.27424 48.2553 8.86311 46.8133 8.74872 45.6576C8.67904 44.9524 8.56206 43.764 8.48868 43.0166C8.31548 41.2504 8.18046 40.772 7.72745 40.319L7.35425 39.9458L7.42367 38.2692C7.46196 37.3472 7.52176 36.2314 7.55672 35.7898C7.59156 35.3481 7.64875 34.5142 7.68384 33.9367C7.7188 33.3592 7.82813 32.3863 7.92659 31.7748C8.17922 30.2079 8.36773 28.3957 8.36773 27.5357C8.36773 26.4997 8.75033 25.0953 9.39333 23.7705C9.69711 23.1449 10.0475 22.3569 10.1721 22.0193C10.2966 21.6817 10.4974 21.2116 10.6181 20.9749C10.7638 20.689 10.7962 20.5031 10.7144 20.4213C10.6467 20.3536 10.5908 20.1565 10.59 19.9833C10.5879 19.4784 10.2853 18.6167 9.71712 17.498C9.42631 16.925 9.18431 16.3593 9.17949 16.2406C9.17467 16.122 8.82779 15.6737 8.4085 15.2444C7.82121 14.6428 7.62813 14.3521 7.56685 13.9776C7.52324 13.7102 7.26715 12.9037 6.99784 12.1853C6.72853 11.4669 6.47392 10.5897 6.43204 10.2358C6.37188 9.72791 6.27948 9.52802 5.99337 9.28738C5.59657 8.95346 5.28612 8.90145 5.05696 9.13061ZM14.0813 13.1851C13.6567 13.3884 13.3085 13.5962 13.3075 13.6467C13.3066 13.6971 13.2744 13.8559 13.2358 13.9993C13.184 14.1921 13.2892 14.3792 13.639 14.7169C14.0792 15.1418 14.1548 15.1699 14.7222 15.1205C15.2312 15.0763 15.4 14.9934 15.7414 14.6209C16.2496 14.0665 16.2545 13.8037 15.7671 13.2487C15.2997 12.7164 15.0775 12.708 14.0813 13.1851ZM14.8105 16.7275C14.583 16.8395 14.3686 17.0051 14.334 17.0952C14.2993 17.1854 14.1798 17.2624 14.0681 17.2661C13.9564 17.2699 13.7344 17.4383 13.5747 17.6404C13.2058 18.1073 13.2903 18.5778 13.7647 18.6968C14.0282 18.763 14.1515 18.7109 14.3914 18.432C14.7349 18.0325 15.1499 17.9999 16.0132 18.3045C16.7572 18.5671 17.1051 18.5486 17.2024 18.2417C17.303 17.9249 17.1045 17.6804 16.4931 17.3685C16.2308 17.2347 15.8974 16.9886 15.7522 16.8216C15.4424 16.4653 15.3594 16.4571 14.8105 16.7275ZM19.7789 24.8538C19.7368 24.9634 19.7394 25.3798 19.7846 25.7791C19.9503 27.2439 19.1316 31.2713 17.4485 37.2702C16.869 39.3355 16.61 41.2846 16.6681 43.1402C16.7215 44.8399 16.8913 45.3152 17.5241 45.5358C18.338 45.8194 18.8498 45.6231 19.7141 44.6956C20.5624 43.7851 21.9045 41.0879 22.2032 39.693C22.2629 39.4147 22.3743 38.9368 22.4509 38.6311C22.6804 37.7151 22.9274 36.1615 23.0104 35.1103C23.0842 34.1761 23.2014 33.6675 23.8247 31.5743C24.0261 30.8983 24.0741 30.4747 24.032 29.7473C23.98 28.8492 23.9533 28.7765 23.5159 28.3389C23.262 28.0852 23.0021 27.91 22.938 27.9495C22.8739 27.9892 22.8215 28.5342 22.8215 29.1609C22.8215 29.7876 22.7439 30.5765 22.6492 30.914C22.5544 31.2515 22.3327 32.0326 22.1562 32.6496C21.98 33.2666 21.7786 34.2951 21.7089 34.935C21.4859 36.9816 21.3651 37.6748 20.9894 39.0635C20.5324 40.7531 20.0992 41.7966 19.4258 42.8313C18.9077 43.6274 18.2556 44.3387 18.2452 44.1191C18.2422 44.0563 18.1922 43.7579 18.1339 43.4557C17.9824 42.6707 18.3034 39.5535 18.6752 38.1987C18.8431 37.5872 19.1826 36.392 19.4297 35.5427C19.6769 34.6934 19.9284 33.7761 19.9888 33.5043C20.0491 33.2326 20.1856 32.621 20.2921 32.1454C20.7535 30.0835 21.2103 27.3248 21.2126 26.5863C21.2159 25.5063 20.901 24.9665 20.134 24.7376C19.9373 24.6789 19.8329 24.713 19.7789 24.8538ZM10.8381 26.6488C10.4632 27.3837 10.3841 28.553 10.6534 29.3781C10.7731 29.7451 10.9138 30.1009 10.9661 30.1688C11.1235 30.3738 11.7103 31.8491 11.9489 32.6396C12.0718 33.0472 12.3783 34.0479 12.63 34.8632C13.4594 37.5516 13.864 41.0068 13.5602 42.8079C13.4779 43.2958 13.3644 43.7237 13.3081 43.7586C13.1055 43.8837 12.4798 42.9304 12.0295 41.8107C11.7772 41.183 11.4599 40.1135 11.3245 39.4341C11.1889 38.7546 11.0288 38.0041 10.9687 37.7663C10.9084 37.5285 10.8301 37.0838 10.7946 36.778C10.7592 36.4723 10.6409 35.6384 10.5321 34.925C10.4231 34.2116 10.2594 32.9052 10.1683 32.0219C9.9663 30.0642 9.56949 28.9953 9.04471 28.9953C8.63395 28.9953 8.50844 29.3438 8.62692 30.1553C8.67769 30.5025 8.77911 31.5648 8.85224 32.516C8.99839 34.4144 9.3564 37.0078 9.64547 38.2605C9.74727 38.7021 9.89415 39.397 9.9716 39.8047C10.353 41.8096 11.5259 44.3313 12.3801 44.9828C12.7114 45.2356 12.9383 45.3021 13.4698 45.3021C14.1098 45.3021 14.1555 45.2803 14.4508 44.8341C14.6211 44.5766 14.8047 44.1737 14.8588 43.9385C14.9531 43.5282 14.9774 43.2234 15.0357 41.7195C15.0679 40.8895 14.8561 38.6863 14.6099 37.2897C14.3774 35.9707 13.062 31.8835 12.3743 30.3433C11.6983 28.8293 11.6293 28.448 11.877 27.5958C12.1395 26.693 12.1013 26.6153 11.1829 26.1863C11.1346 26.1637 10.9794 26.3718 10.8381 26.6488ZM21.3 52.0657C21.2705 52.1167 21.2084 52.4919 21.1618 52.8995C21.1152 53.3072 20.9138 54.4746 20.7142 55.4938C20.5147 56.513 20.3012 57.6804 20.2401 58.0881C20.1789 58.4957 20.0072 59.6354 19.8586 60.6206C19.5201 62.8645 19.5658 64.4277 19.992 65.1861C20.3168 65.7641 20.6897 65.9413 20.9196 65.6269C21.0051 65.51 21.0436 65.3326 21.0051 65.2324C20.9484 65.0847 21.0174 65.0659 21.3713 65.1322C21.6464 65.1839 21.9145 65.154 22.0982 65.0512C22.2582 64.9616 22.956 64.855 23.6489 64.8141C24.7441 64.7495 24.97 64.697 25.3784 64.4118C25.6368 64.2313 25.972 63.9002 26.1236 63.6761C26.3623 63.3229 26.3819 63.207 26.271 62.805C26.122 62.2654 25.4148 61.6888 24.6238 61.462C24.3459 61.3824 24.1037 61.3077 24.0855 61.2961C24.0674 61.2844 24.1365 61.1138 24.2393 60.9169C24.5475 60.326 24.5921 59.823 24.3735 59.4001C24.2638 59.1882 24.1238 59.0146 24.0625 59.0146C23.8568 59.0146 23.5837 59.3791 23.4983 59.7674C23.4221 60.1147 23.3786 60.1452 23.0534 60.0801C22.6839 60.0062 22.2038 60.3236 22.2038 60.6417C22.2038 60.7212 22.1177 60.8816 22.0124 60.9978C21.7536 61.2838 21.8946 61.7971 22.3102 62.0825C22.4895 62.2057 22.9947 62.3705 23.4327 62.4488C23.8825 62.5292 24.329 62.6909 24.4581 62.82C24.6807 63.0426 24.6807 63.0563 24.4576 63.3318C24.2648 63.57 24.0823 63.6234 23.3087 63.6673C22.803 63.696 22.1801 63.7819 21.9246 63.858C21.3902 64.0172 20.9082 63.8405 20.8054 63.4477C20.7145 63.1002 21.0644 60.2659 21.3374 59.1381C21.395 58.9003 21.5081 58.3166 21.5886 57.841C21.6691 57.3654 21.8128 56.6975 21.9079 56.3569C22.1595 55.4559 22.5744 53.2116 22.5744 52.7524C22.5744 52.4845 22.4862 52.2958 22.2998 52.1654C22.0149 51.9657 21.3937 51.9038 21.3 52.0657ZM13.1458 55.0305C12.9891 55.2965 12.944 55.9246 13.0596 56.2287C13.1784 56.5406 13.1676 56.5679 12.9492 56.5109C12.6754 56.4392 12.568 56.6269 12.568 57.1762C12.568 57.7087 13.6299 60.776 14.192 61.8669C15.074 63.5791 16.2902 64.8075 16.9732 64.6759C17.3835 64.5968 17.2836 64.2292 16.6668 63.5481C16.0338 62.849 15.1524 61.6061 14.985 61.1765C14.7033 60.4533 13.6809 57.4527 13.6804 57.3476C13.68 57.2801 13.9847 57.5397 14.3574 57.9244C14.7301 58.3092 15.2827 58.7911 15.5853 58.9953C15.888 59.1996 16.2949 59.4846 16.4898 59.6286C16.894 59.9274 17.4438 60.012 17.8474 59.8373C18.2159 59.6779 18.6337 58.5603 18.7093 57.5322C18.7613 56.8259 18.7354 56.6943 18.4943 56.44C18.1434 56.07 18.0383 56.1734 17.5088 57.4086C17.2904 57.9182 17.0662 58.3839 17.0107 58.4435C16.9541 58.5043 16.7225 58.4361 16.4832 58.2882C15.871 57.9098 14.2975 56.216 14.2975 55.9353C14.2975 55.4162 13.3547 54.6755 13.1458 55.0305Z" fill="currentColor"/>
</svg>
