<svg xmlns="http://www.w3.org/2000/svg" width="1em" height="1em" viewBox="0 0 20 20"><g fill="currentColor"><path fill-rule="evenodd" d="M1.5 10a8.5 8.5 0 1 0 17 0a8.5 8.5 0 0 0-17 0m16 0a7.5 7.5 0 1 1-15 0a7.5 7.5 0 0 1 15 0" clip-rule="evenodd"/><path fill-rule="evenodd" d="M6.5 10c0 4.396 1.442 8 3.5 8s3.5-3.604 3.5-8s-1.442-8-3.5-8s-3.5 3.604-3.5 8m6 0c0 3.889-1.245 7-2.5 7s-2.5-3.111-2.5-7S8.745 3 10 3s2.5 3.111 2.5 7" clip-rule="evenodd"/><path d="m3.735 5.312l.67-.742q.16.144.343.281c1.318.988 3.398 1.59 5.665 1.59c1.933 0 3.737-.437 5.055-1.19a5.6 5.6 0 0 0 .857-.597l.65.76q-.448.383-1.01.704c-1.477.845-3.452 1.323-5.552 1.323c-2.47 0-4.762-.663-6.265-1.79a6 6 0 0 1-.413-.34m0 9.389l.67.74q.16-.145.343-.28c1.318-.988 3.398-1.59 5.665-1.59c1.933 0 3.737.436 5.055 1.19q.482.277.857.596l.65-.76a6.6 6.6 0 0 0-1.01-.704c-1.477-.844-3.452-1.322-5.552-1.322c-2.47 0-4.762.663-6.265 1.789q-.22.165-.413.34M2 10.5v-1h16v1z"/></g></svg>
