<svg data-v-95d197fd="" xmlns="http://www.w3.org/2000/svg" width="1em" height="1em" fill="currentColor" viewBox="0 0 98.05 98.05" data-test-id="entity-links-icon-wikipedia" data-v-e0e4a8d6=""><path d="m98.023 17.465-19.584-.056c-.004.711-.006 1.563-.017 2.121 1.664.039 5.922.822 7.257 4.327L66.92 67.155c-.919-2.149-9.643-21.528-10.639-24.02l9.072-18.818c1.873-2.863 5.455-4.709 8.918-4.843l-.01-1.968-18.841-.017c-.045.499.001 1.548-.068 2.069 5.315.144 7.215 1.334 5.941 4.508-2.102 4.776-6.51 13.824-7.372 15.475-2.696-5.635-4.41-9.972-7.345-16.064-1.266-2.823 1.529-3.922 4.485-4.004v-1.981l-21.82-.067c.016.93-.021 1.451-.021 2.131 3.041.046 6.988.371 8.562 3.019 2.087 4.063 9.044 20.194 11.149 24.514-2.685 5.153-9.207 17.341-11.544 21.913-3.348-7.43-15.732-36.689-19.232-44.241-1.304-3.218 3.732-5.077 6.646-5.213l.019-2.148L0 17.398c.005.646.027 1.71.029 2.187 4.025-.037 9.908 6.573 11.588 10.683 7.244 16.811 14.719 33.524 21.928 50.349.002.029 2.256.059 2.281.008 4.717-9.653 10.229-19.797 15.206-29.56L63.588 80.64c.005.004 2.082.016 2.093.007 7.962-18.196 19.892-46.118 23.794-54.933 1.588-3.767 4.245-6.064 8.543-6.194l.032-1.956-.027-.099z"></path></svg>
