<svg id="svg" version="1.1" xmlns="http://www.w3.org/2000/svg" xmlns:xlink="http://www.w3.org/1999/xlink" width="400" height="400" viewBox="0, 0, 400,400"><g id="svgg"><path id="path0" d="M143.327 21.050 C 31.565 35.410,-21.862 167.722,47.915 257.333 C 96.075 319.181,190.878 331.584,251.380 283.952 L 253.759 282.079 265.667 294.000 L 277.575 305.922 274.787 308.946 C 269.211 314.996,266.797 311.811,308.499 353.428 C 333.376 378.256,345.955 390.348,348.000 391.402 C 374.303 404.963,401.830 379.102,389.231 352.667 C 386.743 347.445,316.666 276.473,313.167 275.630 C 310.480 274.983,308.285 275.746,305.441 278.315 L 302.916 280.597 291.044 268.710 L 279.171 256.824 281.960 253.130 C 310.871 214.839,318.142 159.249,300.247 113.333 C 275.673 50.280,211.150 12.335,143.327 21.050 M179.148 50.326 C 273.449 63.733,313.224 175.957,248.735 246.667 L 245.391 250.333 245.362 179.136 L 245.333 107.939 243.750 106.356 C 239.317 101.923,218.401 103.313,216.713 108.153 L 216.069 110.000 163.352 110.000 L 110.634 110.000 110.060 108.500 C 108.073 103.305,87.586 101.687,82.916 106.356 L 81.333 107.939 81.255 174.470 C 81.213 211.061,80.988 242.939,80.755 245.309 L 80.333 249.619 75.766 244.570 C 38.538 203.417,35.904 140.186,69.562 95.667 C 94.762 62.335,137.944 44.469,179.148 50.326 M98.667 190.000 C 98.667 230.700,98.490 264.000,98.273 264.000 C 98.057 264.000,96.713 263.175,95.287 262.167 L 92.695 260.333 92.681 188.167 L 92.667 116.000 95.667 116.000 L 98.667 116.000 98.667 190.000 M233.901 188.038 L 233.667 260.076 232.000 261.390 C 227.596 264.863,228.000 272.079,228.000 190.023 L 228.000 116.000 231.068 116.000 L 234.136 116.000 233.901 188.038 M155.333 144.600 L 155.333 167.201 159.388 174.267 C 164.297 182.823,163.462 182.846,168.500 174.008 L 172.667 166.698 172.667 144.349 L 172.667 122.000 194.333 122.000 L 216.000 122.000 216.000 162.017 L 216.000 202.034 214.167 201.080 C 213.158 200.554,205.293 196.047,196.689 191.062 L 181.044 182.000 164.141 182.000 L 147.237 182.000 129.923 192.032 C 120.400 197.550,112.172 202.232,111.638 202.437 C 110.794 202.760,110.667 197.508,110.667 162.405 L 110.667 122.000 133.000 122.000 L 155.333 122.000 155.333 144.600 M147.333 129.591 C 121.781 140.283,108.667 165.224,115.659 189.833 C 116.946 194.364,117.120 194.489,120.033 192.983 C 122.299 191.811,122.239 192.187,120.987 187.000 C 116.348 167.787,126.309 146.259,143.911 137.456 C 146.978 135.922,149.903 134.667,150.411 134.667 C 151.073 134.667,151.333 133.728,151.333 131.333 C 151.333 129.500,151.258 128.013,151.167 128.028 C 151.075 128.044,149.350 128.747,147.333 129.591 M176.000 130.846 L 176.000 133.692 182.273 136.570 C 198.590 144.054,208.325 159.069,208.269 176.667 C 208.250 182.731,207.934 184.973,206.289 190.708 C 206.092 191.392,206.906 192.264,208.662 193.250 C 210.131 194.076,211.333 194.631,211.333 194.483 C 211.333 194.334,211.946 191.840,212.695 188.940 C 218.964 164.657,205.663 139.165,181.951 130.021 C 175.487 127.529,176.000 127.458,176.000 130.846 M176.000 142.980 C 176.000 145.090,176.299 145.463,179.167 146.920 C 192.560 153.725,199.621 168.067,197.118 183.382 C 196.646 186.272,197.840 188.000,200.309 188.000 C 200.943 188.000,202.000 180.771,202.000 176.441 C 202.000 161.524,192.519 147.502,178.500 141.686 L 176.000 140.649 176.000 142.980 M145.655 143.628 C 131.875 151.440,123.846 168.051,126.655 182.936 C 127.610 188.002,128.015 188.458,130.257 186.989 C 131.686 186.053,131.810 185.663,131.276 183.799 C 127.671 171.230,135.686 153.944,148.184 147.334 C 150.952 145.871,151.333 145.406,151.333 143.501 C 151.333 140.766,150.677 140.781,145.655 143.628 M169.893 192.427 L 172.641 197.188 191.214 207.907 C 201.429 213.803,210.211 218.789,210.728 218.988 C 211.343 219.224,212.411 218.134,213.812 215.841 L 215.955 212.333 215.978 219.833 L 216.000 227.333 191.500 227.261 C 168.915 227.195,167.382 227.119,171.889 226.296 C 180.706 224.686,184.827 223.041,192.167 218.199 C 197.396 214.750,197.414 214.706,194.290 213.023 C 192.026 211.804,191.829 211.798,190.124 212.891 C 174.277 223.049,157.209 223.780,141.849 214.958 C 135.868 211.524,136.318 211.608,133.404 213.384 L 131.141 214.764 134.404 217.106 C 141.916 222.498,150.199 225.626,159.667 226.649 C 162.503 226.955,153.806 227.188,137.500 227.243 L 110.667 227.333 110.667 218.667 C 110.667 208.569,110.531 208.770,113.626 214.304 C 114.949 216.671,116.312 218.781,116.654 218.992 C 117.178 219.316,145.909 203.157,153.428 198.309 C 155.119 197.218,156.922 194.859,159.368 190.538 C 161.299 187.125,163.177 183.948,163.540 183.477 C 164.239 182.572,164.050 182.306,169.893 192.427 M144.099 207.235 L 142.532 208.441 147.432 210.827 C 158.188 216.062,170.765 216.001,181.340 210.663 C 185.873 208.375,186.146 207.832,183.340 206.670 C 181.594 205.946,180.831 206.056,177.174 207.559 C 168.278 211.214,160.080 211.275,151.272 207.751 C 146.108 205.685,146.114 205.685,144.099 207.235 M216.000 255.241 L 216.000 271.148 210.833 273.499 C 181.916 286.658,142.003 286.501,114.667 273.121 L 110.333 271.000 110.138 257.333 C 110.031 249.817,110.120 242.692,110.335 241.500 L 110.727 239.333 163.364 239.333 L 216.000 239.333 216.000 255.241 M290.508 293.827 L 286.359 298.013 274.519 286.185 L 262.678 274.358 266.826 270.173 L 270.974 265.987 282.815 277.815 L 294.656 289.642 290.508 293.827 " stroke="none" fill="#000000" fill-rule="evenodd"></path></g></svg>