<svg id="svg" xmlns="http://www.w3.org/2000/svg" xmlns:xlink="http://www.w3.org/1999/xlink" width="400" height="150.2377179080824" viewBox="0, 0, 400,150.2377179080824"><g id="svgg"><path id="path0" d="M45.747 24.337 C 9.169 28.020,-8.669 71.057,14.520 99.675 C 29.922 118.681,59.026 122.287,77.981 107.536 L 78.730 106.953 82.538 110.734 L 86.346 114.515 85.434 115.410 C 84.500 116.327,84.282 117.079,84.719 117.869 C 85.090 118.540,107.265 140.541,108.202 141.168 C 114.619 145.461,123.407 139.677,122.316 131.877 C 121.886 128.800,121.959 128.889,109.586 116.458 C 96.607 103.419,97.114 103.793,95.082 105.767 L 94.337 106.491 90.570 102.720 L 86.804 98.950 87.775 97.630 C 111.206 65.802,85.154 20.370,45.747 24.337 M122.134 32.881 C 111.503 34.150,105.448 39.432,105.448 47.438 C 105.448 54.715,110.622 59.637,123.124 64.255 C 136.930 69.354,141.135 73.061,141.148 80.144 C 141.160 86.367,136.319 89.711,127.100 89.847 C 118.599 89.973,112.453 85.415,107.707 75.463 C 106.422 72.768,106.226 72.484,105.652 72.484 C 104.739 72.484,104.694 72.751,105.184 75.265 C 105.878 78.818,106.441 82.389,106.793 85.476 C 107.219 89.213,107.050 88.998,110.600 90.334 C 126.908 96.472,144.933 92.586,148.128 82.243 C 150.974 73.028,146.715 65.274,135.975 60.117 C 133.139 58.756,132.459 58.488,127.100 56.619 C 116.900 53.064,113.031 50.080,112.438 45.314 C 111.679 39.214,116.325 35.925,125.726 35.905 C 133.565 35.888,139.945 40.429,143.692 48.693 C 144.473 50.413,144.682 50.713,145.105 50.713 C 145.863 50.713,145.877 50.392,145.297 46.341 C 144.600 41.475,143.873 35.031,144.006 34.898 C 144.063 34.841,144.110 34.894,144.110 35.016 C 144.110 35.137,144.852 35.352,145.760 35.493 C 147.657 35.788,149.062 36.422,149.693 37.266 C 150.132 37.854,150.132 37.867,150.132 63.106 L 150.132 88.358 149.357 89.068 C 148.533 89.824,147.058 90.361,145.216 90.578 C 144.101 90.709,143.485 91.401,144.030 91.910 C 144.132 92.006,153.629 92.142,165.135 92.213 C 176.640 92.284,186.679 92.399,187.443 92.469 C 188.577 92.573,188.897 92.531,189.186 92.242 C 189.499 91.929,189.540 91.926,189.540 92.219 C 189.540 92.738,207.871 92.724,208.070 92.206 C 208.307 91.587,207.838 91.242,206.057 90.728 C 200.105 89.010,199.886 88.197,203.153 79.979 L 205.337 74.485 216.843 74.430 L 228.348 74.376 231.026 81.192 C 232.498 84.941,233.703 88.274,233.703 88.600 C 233.703 89.761,232.345 90.448,228.949 91.005 C 227.954 91.168,227.892 91.215,227.892 91.812 L 227.892 92.446 238.880 92.446 L 249.868 92.446 249.939 91.946 C 250.036 91.257,249.827 91.109,248.379 90.844 C 246.751 90.547,244.767 89.597,243.899 88.699 C 243.353 88.134,241.342 83.527,234.049 66.129 C 229.009 54.106,223.965 42.075,222.839 39.395 C 220.300 33.345,220.201 33.175,219.240 33.175 C 218.044 33.175,218.127 32.990,207.602 59.118 C 195.451 89.284,196.063 87.943,193.695 89.568 C 193.024 90.028,190.074 91.284,189.663 91.284 C 189.591 91.284,189.607 91.161,190.066 88.220 C 190.504 85.413,191.578 79.963,192.099 77.899 C 192.569 76.039,192.453 75.647,191.435 75.647 C 190.905 75.647,190.731 75.858,189.736 77.707 C 185.784 85.048,181.917 88.556,177.058 89.209 C 173.590 89.676,161.109 89.587,160.107 89.089 C 158.534 88.308,158.591 88.809,158.525 75.369 L 158.465 63.363 164.758 63.430 L 171.051 63.497 172.397 64.227 C 174.534 65.385,176.080 67.659,177.753 72.103 C 178.498 74.084,178.678 74.270,179.532 73.946 C 180.044 73.751,180.076 73.667,179.949 72.842 C 178.562 63.805,178.545 60.198,179.852 51.913 C 180.140 50.086,180.020 49.810,178.983 49.919 C 178.536 49.966,178.379 50.212,177.873 51.664 C 176.333 56.083,174.521 58.731,172.283 59.833 L 170.849 60.539 164.664 60.613 L 158.479 60.687 158.479 48.516 L 158.479 36.344 165.324 36.344 C 179.876 36.344,183.373 38.025,187.400 46.950 C 188.355 49.068,188.653 49.385,189.344 49.015 C 189.832 48.754,189.838 48.617,189.449 46.765 C 189.084 45.028,188.585 41.474,188.065 36.903 C 187.634 33.109,187.503 32.846,186.160 33.065 C 182.907 33.595,175.566 33.805,160.321 33.807 C 145.975 33.809,144.082 33.846,143.973 34.131 C 143.881 34.370,143.778 34.394,143.574 34.225 C 143.374 34.059,142.858 34.087,141.705 34.325 C 139.430 34.795,138.779 34.749,134.179 33.789 C 130.102 32.938,124.923 32.548,122.134 32.881 M56.154 33.918 C 84.991 38.606,97.330 73.930,77.594 95.295 L 76.175 96.831 76.175 74.411 L 76.175 51.991 75.590 51.405 C 74.293 50.107,67.909 50.502,67.212 51.923 L 66.878 52.605 50.238 52.610 C 34.266 52.615,33.597 52.599,33.597 52.229 C 33.597 50.586,26.521 49.952,25.013 51.460 L 24.511 51.962 24.511 74.411 L 24.511 96.861 23.752 96.132 C 16.652 89.319,12.398 77.170,13.508 66.878 C 15.500 48.422,29.336 35.106,48.177 33.513 C 49.784 33.377,54.205 33.602,56.154 33.918 M319.493 33.516 C 309.571 34.734,302.098 40.259,298.091 49.340 L 297.066 51.664 297.193 50.079 C 297.873 41.619,292.705 35.949,282.831 34.321 C 280.755 33.979,251.181 34.025,250.276 34.372 C 249.903 34.515,249.869 35.709,250.238 35.715 C 252.649 35.753,255.324 36.752,255.997 37.867 C 256.530 38.749,256.785 86.867,256.265 88.443 C 255.855 89.684,254.720 90.366,252.297 90.828 C 250.308 91.208,250.291 91.216,250.291 91.828 L 250.291 92.446 260.598 92.501 C 270.000 92.551,270.916 92.525,271.038 92.208 C 271.285 91.565,270.788 91.185,269.392 90.950 C 264.469 90.121,264.765 91.083,264.765 75.876 L 264.765 63.597 265.980 63.711 C 270.535 64.141,272.873 64.568,274.053 65.187 C 274.435 65.387,275.137 66.531,276.474 69.132 C 287.187 89.972,289.944 92.704,300.158 92.612 C 304.924 92.569,306.260 92.285,306.355 91.298 L 306.423 90.588 305.166 90.702 C 299.093 91.253,293.018 84.377,284.437 67.238 C 282.726 63.821,282.729 63.915,284.320 63.716 C 289.634 63.052,294.163 59.584,296.330 54.517 C 296.404 54.342,296.417 54.437,296.359 54.728 C 294.157 65.656,295.981 76.403,301.215 83.348 C 309.021 93.707,326.316 96.899,341.808 90.842 C 344.450 89.810,344.427 89.846,344.427 86.762 C 344.427 85.421,344.537 82.634,344.671 80.567 C 345.079 74.267,345.058 73.640,344.429 73.640 C 343.982 73.640,343.844 73.812,343.501 74.802 C 339.480 86.417,335.654 90.102,327.139 90.561 C 313.357 91.304,304.470 79.533,304.494 60.569 C 304.514 45.417,310.955 37.071,322.979 36.617 C 332.038 36.276,337.852 39.932,341.913 48.523 C 343.084 51.001,343.180 51.136,343.775 51.136 C 344.695 51.136,344.697 51.097,344.012 46.769 C 343.665 44.580,343.184 41.173,342.942 39.197 C 342.416 34.905,342.474 34.994,340.400 35.293 C 338.655 35.543,337.495 35.446,335.102 34.849 C 331.084 33.846,322.661 33.127,319.493 33.516 M343.029 34.747 C 342.750 35.474,343.045 35.814,344.112 35.998 C 346.284 36.372,347.415 36.789,348.191 37.500 L 348.970 38.214 348.970 63.569 L 348.970 88.925 348.442 89.491 C 347.673 90.314,346.894 90.657,344.862 91.068 C 343.092 91.426,343.053 91.447,343.053 92.046 L 343.053 92.657 353.368 92.712 L 363.683 92.767 363.616 92.083 C 363.551 91.407,363.534 91.397,361.965 91.137 C 359.945 90.803,358.781 90.358,358.141 89.677 L 357.633 89.137 357.576 76.792 L 357.518 64.448 370.946 64.448 L 384.373 64.448 384.316 76.583 C 384.246 91.160,384.495 90.355,379.820 91.124 C 378.149 91.398,378.130 91.409,378.130 92.029 L 378.130 92.657 388.298 92.712 C 397.386 92.761,398.495 92.731,398.745 92.430 C 399.250 91.822,398.717 91.453,396.764 91.057 C 394.724 90.644,393.821 90.208,393.155 89.314 L 392.710 88.717 392.710 63.499 L 392.710 38.280 393.238 37.715 C 394.006 36.893,394.727 36.578,396.767 36.175 C 398.713 35.791,399.264 35.401,398.745 34.775 C 398.495 34.474,397.386 34.444,388.298 34.493 L 378.130 34.548 378.130 35.181 C 378.130 35.765,378.204 35.828,379.081 35.986 C 384.663 36.995,384.361 36.179,384.362 50.238 L 384.363 61.067 370.946 61.067 L 357.528 61.067 357.529 49.815 C 357.530 35.788,357.037 37.081,362.810 35.948 C 363.452 35.822,363.559 35.713,363.616 35.123 L 363.682 34.443 353.414 34.443 C 344.667 34.443,343.128 34.488,343.029 34.747 M280.611 37.175 C 286.289 38.849,289.074 42.584,289.131 48.600 C 289.188 54.724,286.336 59.082,281.151 60.791 C 277.409 62.024,267.158 61.156,265.318 59.450 L 264.765 58.937 264.765 47.958 C 264.765 41.919,264.789 36.967,264.818 36.952 C 265.938 36.404,278.599 36.582,280.611 37.175 M221.655 57.581 C 224.236 64.089,226.528 69.865,226.747 70.417 L 227.147 71.421 216.816 71.421 L 206.486 71.421 211.454 59.007 C 214.187 52.179,216.510 46.366,216.617 46.088 C 216.875 45.415,216.396 44.322,221.655 57.581 M30.005 77.878 C 30.005 96.506,29.952 101.210,29.741 101.091 C 29.596 101.009,29.168 100.713,28.790 100.434 L 28.104 99.926 28.104 77.221 L 28.104 54.517 29.054 54.517 L 30.005 54.517 30.005 77.878 M72.478 77.231 L 72.478 99.945 71.599 100.581 C 71.115 100.931,70.700 101.194,70.677 101.164 C 70.653 101.134,70.681 90.626,70.740 77.813 L 70.845 54.517 71.661 54.517 L 72.478 54.517 72.478 77.231 M47.544 63.398 L 47.544 70.377 50.343 70.318 L 53.143 70.259 53.199 63.339 L 53.255 56.418 60.119 56.418 L 66.984 56.418 66.984 68.879 L 66.984 81.339 65.769 80.636 C 65.100 80.249,62.725 78.873,60.490 77.579 C 58.255 76.284,56.387 75.225,56.339 75.225 C 56.291 75.225,55.713 76.175,55.055 77.338 C 54.397 78.500,53.808 79.451,53.745 79.451 C 53.682 79.451,53.866 79.046,54.153 78.553 C 54.440 78.059,54.981 77.108,55.355 76.440 L 56.036 75.225 53.375 75.225 C 51.911 75.225,50.713 75.296,50.713 75.383 C 50.713 75.775,53.214 79.762,53.429 79.715 C 53.563 79.686,53.648 79.763,53.619 79.887 C 53.590 80.011,56.228 81.665,59.482 83.564 C 66.052 87.396,65.421 87.224,66.466 85.473 L 66.970 84.628 66.977 87.110 L 66.984 89.593 59.218 89.567 C 54.757 89.552,51.919 89.472,52.548 89.380 C 55.067 89.012,58.064 87.823,59.958 86.442 C 61.066 85.634,61.071 85.486,60.013 84.946 L 59.170 84.516 58.312 85.137 C 54.020 88.246,47.465 88.189,42.647 85.001 L 41.862 84.482 40.995 84.969 L 40.128 85.456 40.930 86.146 C 42.812 87.765,46.148 89.061,49.234 89.374 C 50.222 89.474,47.618 89.545,42.314 89.564 L 33.809 89.593 33.809 86.846 C 33.809 83.614,33.755 83.672,34.871 85.695 C 35.356 86.572,35.828 87.262,35.920 87.227 C 36.529 86.997,47.748 80.369,47.751 80.237 C 47.756 80.030,45.221 75.673,45.025 75.552 C 44.945 75.503,42.426 76.883,39.428 78.619 C 36.429 80.355,33.938 81.775,33.892 81.775 C 33.846 81.775,33.809 76.070,33.809 69.097 L 33.809 56.418 40.676 56.418 L 47.544 56.418 47.544 63.398 M44.585 59.021 C 40.212 60.942,37.018 64.412,35.536 68.850 C 34.831 70.964,34.728 75.812,35.347 77.813 C 35.799 79.277,35.767 79.269,37.360 78.270 C 37.396 78.248,37.267 77.625,37.075 76.885 C 35.360 70.304,39.089 63.069,45.471 60.594 L 46.698 60.118 46.698 59.219 C 46.698 58.126,46.636 58.121,44.585 59.021 M54.308 59.192 L 54.312 60.116 55.629 60.618 C 61.969 63.032,65.810 70.330,64.131 76.775 C 63.711 78.389,63.694 78.324,64.651 78.813 L 65.488 79.240 65.822 78.130 C 68.297 69.903,62.834 59.952,54.992 58.403 L 54.305 58.267 54.308 59.192 M54.305 62.927 C 54.305 63.662,54.381 63.767,55.203 64.167 C 58.982 66.005,61.019 69.660,60.803 74.213 L 60.694 76.528 61.350 76.928 C 62.159 77.419,62.243 77.336,62.529 75.767 C 63.467 70.620,60.774 65.266,56.054 62.892 C 54.192 61.955,54.305 61.953,54.305 62.927 M44.922 63.125 C 41.160 65.132,38.681 69.276,38.672 73.576 C 38.669 74.856,39.010 77.126,39.205 77.126 C 40.020 77.126,40.381 76.576,40.236 75.554 C 39.539 70.661,41.557 66.394,45.556 64.305 C 46.580 63.770,46.697 63.638,46.698 63.022 C 46.698 62.174,46.706 62.174,44.922 63.125 M48.001 70.770 C 48.168 71.229,50.407 75.008,50.514 75.010 C 50.644 75.014,53.038 70.940,53.038 70.715 C 53.038 70.639,51.889 70.576,50.484 70.576 C 49.020 70.576,47.961 70.659,48.001 70.770 M45.977 76.651 C 47.512 79.408,47.878 79.918,48.108 79.621 C 48.426 79.210,50.502 75.512,50.502 75.358 C 50.502 75.285,49.305 75.225,47.842 75.225 L 45.183 75.225 45.977 76.651 M44.411 83.013 C 43.597 83.446,43.657 83.531,45.381 84.396 C 48.775 86.100,52.754 86.054,56.288 84.270 L 57.553 83.631 57.038 83.235 C 56.180 82.573,55.841 82.567,54.358 83.187 C 52.289 84.051,48.759 84.055,46.682 83.195 C 45.060 82.524,45.292 82.543,44.411 83.013 M66.935 98.414 L 66.878 103.431 66.033 103.838 C 56.375 108.489,44.207 108.489,34.548 103.838 L 33.703 103.431 33.641 99.100 C 33.607 96.719,33.635 94.461,33.704 94.083 L 33.828 93.397 50.410 93.397 L 66.991 93.397 66.935 98.414 M88.092 105.525 L 91.764 109.201 90.414 110.479 L 89.065 111.758 85.371 108.074 L 81.677 104.390 82.934 103.120 C 84.487 101.550,83.805 101.232,88.092 105.525 M203.865 103.274 C 203.827 103.362,203.845 104.765,203.905 106.392 C 203.965 108.019,203.967 110.967,203.909 112.942 L 203.803 116.535 201.834 116.596 C 199.591 116.665,199.378 116.930,201.074 117.545 C 202.559 118.083,203.845 119.810,202.761 119.810 C 202.595 119.810,202.108 120.238,201.679 120.761 L 200.900 121.712 198.812 121.712 L 196.725 121.712 196.725 120.651 C 196.725 119.724,196.792 119.559,197.253 119.349 C 198.495 118.783,197.864 118.257,195.627 117.994 L 194.442 117.855 194.412 114.923 L 194.383 111.992 196.399 111.992 C 198.787 111.992,198.858 111.883,197.404 110.452 C 196.175 109.241,196.034 109.231,195.326 110.301 C 194.495 111.558,194.400 111.385,194.400 108.611 L 194.400 106.075 196.197 106.075 C 198.382 106.075,198.465 105.887,196.887 104.507 C 195.537 103.326,195.304 103.316,194.532 104.408 L 193.924 105.267 188.668 105.196 C 184.104 105.134,183.413 105.166,183.416 105.441 C 183.424 106.203,183.749 106.351,185.081 106.200 L 186.371 106.054 186.371 108.631 L 186.371 111.209 184.469 111.086 C 183.423 111.018,182.567 110.998,182.567 111.041 C 182.567 112.004,183.003 112.248,184.578 112.169 C 186.159 112.089,186.160 112.089,186.160 112.636 C 186.160 114.219,184.957 116.898,183.537 118.477 C 182.060 120.120,182.682 120.377,184.806 119.002 C 186.979 117.596,188.212 115.769,188.720 113.207 L 188.961 111.992 190.340 111.992 L 191.719 111.992 191.590 115.129 C 191.446 118.638,191.483 118.753,192.752 118.753 L 193.555 118.753 193.555 120.232 L 193.555 121.712 190.967 121.707 C 189.543 121.705,187.722 121.608,186.920 121.492 C 185.228 121.248,185.246 121.240,185.530 122.055 L 185.747 122.678 189.789 122.591 L 193.832 122.505 193.695 123.640 C 193.620 124.265,193.558 125.333,193.557 126.015 L 193.555 127.255 188.642 127.140 C 185.940 127.077,183.454 126.957,183.118 126.873 C 182.528 126.727,182.399 127.643,182.952 128.051 C 183.328 128.327,208.980 128.033,208.980 127.752 C 208.980 127.385,206.373 125.092,205.957 125.092 C 205.782 125.092,205.241 125.568,204.754 126.149 L 203.870 127.205 200.297 127.205 L 196.725 127.205 196.725 124.881 L 196.725 122.557 201.044 122.557 C 206.010 122.557,206.093 122.522,204.554 121.107 L 203.466 120.106 204.505 119.840 C 205.128 119.680,205.780 119.328,206.133 118.959 L 206.721 118.345 206.742 111.770 L 206.762 105.196 207.332 104.780 C 208.169 104.171,207.872 103.826,206.272 103.548 C 205.495 103.413,204.652 103.261,204.398 103.209 C 204.143 103.158,203.904 103.187,203.865 103.274 M215.029 104.120 C 214.953 104.672,214.691 105.762,214.445 106.542 L 213.998 107.960 213.402 107.651 C 212.215 107.038,211.538 107.338,212.384 108.102 C 212.932 108.598,213.509 109.705,213.818 110.850 C 214.139 112.045,214.732 112.557,215.426 112.241 L 215.953 112.001 215.395 112.894 C 214.097 114.973,214.126 114.950,212.875 114.950 C 211.554 114.950,211.570 114.905,212.159 116.882 C 212.609 118.393,213.063 118.755,213.392 117.867 C 213.518 117.526,213.853 117.338,214.653 117.157 L 215.742 116.912 215.742 118.150 C 215.742 119.541,215.690 119.574,214.263 119.070 C 213.769 118.896,213.296 118.753,213.211 118.753 C 213.126 118.753,213.004 119.633,212.940 120.708 C 212.875 121.783,212.569 123.789,212.260 125.165 C 211.689 127.705,211.685 127.982,212.220 127.777 C 212.580 127.638,214.505 123.786,215.067 122.078 C 215.732 120.055,215.806 120.374,215.673 124.703 C 215.528 129.420,215.539 129.458,217.030 129.258 C 217.503 129.195,217.943 129.090,218.008 129.025 C 218.073 128.960,218.136 126.035,218.149 122.525 L 218.172 116.143 218.739 115.991 C 219.352 115.827,219.546 116.056,219.546 116.942 C 219.546 117.951,220.675 118.433,221.334 117.705 C 222.269 116.672,221.550 114.697,219.710 113.242 C 218.132 111.995,217.916 112.137,218.819 113.829 C 219.444 115.000,219.616 114.896,216.893 114.994 L 215.192 115.055 216.650 113.576 C 217.451 112.763,218.740 111.265,219.513 110.248 C 220.570 108.858,221.041 108.400,221.410 108.399 C 222.325 108.399,221.816 107.698,220.389 106.992 C 218.640 106.127,218.572 106.130,218.267 107.079 C 218.127 107.515,217.671 108.623,217.255 109.542 L 216.498 111.212 216.315 110.493 C 216.215 110.097,215.848 109.477,215.501 109.114 L 214.869 108.456 215.953 107.343 C 216.549 106.732,217.187 106.001,217.371 105.720 C 217.555 105.439,218.042 105.069,218.454 104.897 C 219.458 104.477,219.088 104.103,217.106 103.537 C 215.154 102.978,215.186 102.970,215.029 104.120 M244.818 103.592 C 244.066 107.446,243.790 108.068,243.014 107.667 C 241.567 106.918,241.246 107.249,242.236 108.469 C 242.628 108.954,243.163 109.943,243.425 110.667 C 243.973 112.188,244.269 112.504,245.013 112.362 C 245.544 112.260,245.545 112.263,245.189 112.812 C 243.678 115.143,243.927 114.950,242.430 114.950 C 241.237 114.950,241.083 114.995,241.172 115.320 C 241.228 115.523,241.389 116.212,241.531 116.852 C 241.906 118.545,242.404 119.027,242.774 118.055 C 242.938 117.622,244.386 117.063,245.341 117.063 C 245.448 117.063,245.536 117.633,245.536 118.331 C 245.536 119.748,245.566 119.727,244.197 119.260 C 242.780 118.778,242.664 118.883,242.509 120.794 C 242.395 122.185,241.720 125.543,241.188 127.364 C 241.087 127.709,241.137 127.839,241.371 127.839 C 241.923 127.839,243.850 124.598,244.797 122.074 C 245.471 120.279,245.569 120.661,245.513 124.876 C 245.454 129.275,245.463 129.309,246.632 129.315 C 246.944 129.317,247.449 129.223,247.755 129.107 L 248.311 128.896 248.282 124.511 C 248.266 122.100,248.260 119.257,248.268 118.193 L 248.283 116.259 248.904 116.043 C 249.493 115.837,249.531 115.860,249.668 116.497 C 249.864 117.415,250.134 117.697,250.819 117.697 C 252.744 117.697,252.296 114.914,250.104 113.260 C 248.520 112.063,248.053 112.213,248.861 113.660 C 249.592 114.969,249.598 114.964,247.031 115.105 L 244.901 115.223 246.436 113.660 C 247.280 112.800,248.620 111.265,249.412 110.248 C 250.537 108.806,250.969 108.399,251.379 108.399 C 252.527 108.399,251.877 107.571,250.123 106.799 C 249.218 106.401,248.445 106.075,248.405 106.075 C 248.365 106.075,248.169 106.573,247.970 107.182 C 247.152 109.682,246.352 111.112,246.155 110.427 C 246.057 110.089,245.673 109.498,245.300 109.114 L 244.623 108.415 246.178 106.769 C 247.033 105.864,247.952 105.045,248.219 104.948 C 249.337 104.544,248.837 104.064,246.727 103.516 C 244.846 103.027,244.928 103.024,244.818 103.592 M254.534 103.592 C 253.977 106.332,253.559 107.524,252.274 110.031 C 251.482 111.577,250.933 112.882,251.045 112.952 C 251.449 113.201,255.250 109.587,255.260 108.944 C 255.262 108.819,255.573 109.480,255.951 110.412 C 256.330 111.345,256.847 112.400,257.101 112.757 L 257.563 113.405 256.885 114.042 C 255.635 115.216,253.922 116.454,252.365 117.309 C 250.154 118.523,249.976 119.020,251.914 118.573 C 253.392 118.232,253.347 118.068,253.351 123.835 C 253.355 129.334,253.351 129.319,254.678 129.319 C 255.934 129.319,256.313 129.023,256.313 128.043 L 256.313 127.205 258.954 127.205 L 261.595 127.205 261.595 128.055 C 261.595 129.136,262.181 129.478,263.544 129.191 L 264.448 129.000 264.505 124.829 L 264.563 120.659 265.086 120.316 C 265.892 119.788,265.730 119.315,264.451 118.466 C 263.044 117.532,262.695 117.513,261.912 118.331 C 261.099 119.180,257.356 119.287,255.496 118.514 C 254.166 117.961,254.155 117.852,255.384 117.383 C 255.919 117.178,256.989 116.585,257.761 116.065 C 259.105 115.160,259.188 115.134,259.694 115.445 C 261.665 116.657,262.960 117.330,264.027 117.697 C 265.765 118.295,265.959 118.262,266.133 117.335 C 266.227 116.832,266.552 116.294,267.037 115.837 C 267.883 115.039,267.746 114.748,266.519 114.742 C 265.615 114.737,263.897 114.380,262.284 113.862 L 260.965 113.437 261.544 112.690 C 261.863 112.279,262.653 111.074,263.299 110.012 C 264.019 108.830,264.695 107.976,265.042 107.807 C 265.852 107.414,265.748 106.849,264.712 106.011 C 263.113 104.719,262.987 104.697,262.051 105.542 L 261.227 106.286 259.081 106.286 L 256.936 106.286 257.251 105.677 C 257.424 105.342,257.807 105.008,258.101 104.934 C 258.792 104.760,258.834 104.015,258.162 103.860 C 254.295 102.970,254.655 102.996,254.534 103.592 M274.221 106.530 L 274.339 109.944 272.880 109.795 C 272.078 109.713,271.207 109.593,270.946 109.528 C 270.425 109.399,270.366 109.577,270.669 110.374 C 270.863 110.885,270.906 110.894,272.571 110.780 L 274.274 110.663 274.274 113.419 L 274.274 116.174 272.936 116.407 C 272.200 116.535,271.344 116.640,271.034 116.640 C 270.345 116.640,270.340 116.830,270.968 118.965 C 271.448 120.596,272.172 121.206,272.329 120.111 C 272.369 119.833,272.734 119.507,273.333 119.216 L 274.274 118.759 274.274 119.991 C 274.274 120.669,274.212 122.236,274.136 123.475 L 273.998 125.726 272.340 125.726 C 270.362 125.726,270.269 125.934,271.896 126.722 C 273.012 127.263,273.130 127.388,273.338 128.249 C 273.462 128.765,273.669 129.223,273.797 129.265 C 274.291 129.430,275.847 128.835,276.420 128.261 L 277.021 127.661 277.021 122.485 L 277.021 117.310 278.658 116.159 L 280.296 115.008 280.401 115.877 L 280.507 116.746 281.527 116.811 C 282.628 116.881,283.148 116.614,283.148 115.980 C 283.148 115.627,283.324 115.584,284.757 115.584 L 286.366 115.584 286.264 116.270 C 286.082 117.490,286.387 117.908,287.458 117.908 C 288.922 117.908,289.065 117.793,289.065 116.618 L 289.065 115.584 290.731 115.584 C 292.233 115.584,292.408 115.626,292.510 116.017 C 292.611 116.402,292.762 116.444,293.855 116.387 L 295.087 116.323 295.145 112.099 C 295.202 107.908,295.206 107.870,295.726 107.389 C 296.438 106.729,296.407 106.632,295.174 105.657 C 293.887 104.640,293.559 104.610,292.763 105.441 C 291.982 106.256,289.065 106.434,289.065 105.667 C 289.065 105.243,289.585 104.596,289.925 104.596 C 290.282 104.596,290.129 103.781,289.752 103.671 C 289.174 103.502,286.915 103.117,286.503 103.117 C 286.172 103.117,286.145 103.278,286.255 104.596 L 286.379 106.075 284.889 106.075 C 283.688 106.075,283.125 105.952,281.986 105.441 C 281.209 105.092,280.496 104.807,280.402 104.807 C 280.307 104.807,280.283 105.972,280.348 107.396 L 280.466 109.984 279.521 108.944 L 278.577 107.904 277.969 108.733 C 277.634 109.189,277.284 109.652,277.191 109.762 C 277.097 109.873,277.021 108.848,277.021 107.486 C 277.021 105.049,277.029 105.006,277.549 104.769 C 278.212 104.467,278.244 103.796,277.602 103.651 C 277.097 103.537,274.475 103.121,274.241 103.118 C 274.164 103.117,274.155 104.653,274.221 106.530 M311.041 104.472 L 311.041 105.864 306.656 105.859 C 304.245 105.856,301.915 105.771,301.479 105.670 C 300.787 105.509,300.687 105.534,300.687 105.869 C 300.687 106.878,300.589 106.863,306.085 106.753 L 311.252 106.650 311.252 108.053 L 311.252 109.456 307.560 109.456 L 303.868 109.456 303.691 108.769 C 303.497 108.021,302.801 107.679,302.799 108.331 C 302.796 109.303,302.267 110.418,301.307 111.478 C 299.765 113.181,299.920 114.950,301.612 114.950 C 303.111 114.950,304.068 113.632,304.068 111.565 L 304.068 110.512 307.132 110.512 C 308.817 110.512,310.195 110.563,310.195 110.624 C 310.195 110.915,308.923 113.212,308.625 113.459 C 308.355 113.683,308.049 113.691,307.093 113.499 C 304.499 112.978,303.934 113.386,305.859 114.392 C 306.572 114.764,307.469 115.513,308.200 116.346 C 308.960 117.211,309.550 117.699,309.844 117.703 C 310.215 117.709,310.142 117.811,309.456 118.249 C 308.614 118.785,308.597 118.787,305.071 118.668 C 303.087 118.601,301.532 118.630,301.532 118.734 C 301.532 119.234,302.453 121.856,302.726 122.134 C 303.039 122.453,303.465 122.146,303.704 121.429 C 303.769 121.234,308.755 120.699,310.810 120.666 L 311.529 120.655 311.401 124.665 C 311.250 129.401,311.268 129.451,313.035 129.241 C 314.584 129.058,314.585 129.056,314.467 124.385 L 314.364 120.292 316.453 120.040 C 317.602 119.902,319.052 119.700,319.676 119.591 C 320.984 119.362,321.070 119.395,321.526 120.299 C 322.353 121.936,323.728 122.479,324.447 121.453 C 325.607 119.797,323.606 117.755,319.772 116.683 C 317.616 116.080,317.412 116.374,319.123 117.618 L 320.232 118.425 319.282 118.573 C 318.759 118.655,316.725 118.729,314.762 118.738 L 311.194 118.753 313.741 117.500 C 315.142 116.810,316.901 115.859,317.649 115.387 C 318.398 114.914,319.256 114.527,319.556 114.527 C 321.059 114.527,320.282 113.606,318.036 112.725 L 316.580 112.154 315.025 113.791 C 314.170 114.691,312.900 115.859,312.203 116.385 C 311.506 116.912,311.054 117.213,311.199 117.055 C 311.799 116.401,311.184 114.937,310.125 114.498 L 309.500 114.239 310.640 113.687 C 311.267 113.384,312.161 112.933,312.625 112.685 C 313.090 112.437,313.732 112.178,314.052 112.109 C 315.008 111.902,314.822 111.211,313.735 110.932 C 313.241 110.805,312.742 110.666,312.625 110.623 C 312.509 110.581,314.527 110.538,317.110 110.529 L 321.807 110.512 321.609 111.033 C 321.500 111.320,321.217 111.934,320.980 112.399 C 320.187 113.952,320.556 114.081,322.394 112.895 C 323.426 112.229,323.773 112.115,324.656 112.149 C 326.704 112.229,326.766 111.441,324.851 109.686 C 323.290 108.256,322.961 108.160,322.240 108.928 C 321.745 109.454,321.728 109.456,317.871 109.456 L 313.999 109.456 313.999 108.082 L 313.999 106.709 319.810 106.709 C 326.535 106.709,326.430 106.752,324.206 104.917 C 322.498 103.509,322.686 103.517,321.606 104.807 L 320.721 105.864 317.360 105.864 C 313.776 105.864,313.297 105.700,314.527 104.893 C 315.766 104.082,315.191 103.708,311.939 103.216 L 311.041 103.080 311.041 104.472 M349.185 116.016 C 349.187 127.183,349.230 128.944,349.501 129.126 C 349.845 129.357,351.937 129.274,352.192 129.019 C 352.279 128.932,352.316 123.596,352.273 117.162 L 352.196 105.463 352.899 104.820 C 353.440 104.326,353.545 104.120,353.352 103.928 C 353.139 103.714,350.477 103.162,349.498 103.128 C 349.220 103.118,349.182 104.685,349.185 116.016 M362.388 104.207 L 362.388 105.353 360.550 105.192 C 358.439 105.007,358.502 104.986,358.796 105.760 L 359.020 106.348 360.704 106.218 L 362.388 106.088 362.388 106.610 C 362.388 106.898,362.264 107.132,362.113 107.132 C 361.961 107.132,361.665 107.612,361.453 108.199 C 361.020 109.404,359.459 111.636,358.805 111.986 C 358.333 112.239,358.214 112.839,358.637 112.833 C 358.782 112.831,359.397 112.556,360.003 112.221 L 361.106 111.614 361.166 113.757 L 361.226 115.901 361.903 115.966 C 362.761 116.049,363.444 115.689,363.444 115.154 C 363.444 114.805,363.591 114.739,364.353 114.739 C 365.250 114.739,366.398 115.121,366.401 115.421 C 366.402 115.506,366.772 115.763,367.223 115.994 C 367.756 116.266,368.092 116.607,368.183 116.970 C 368.312 117.485,368.385 117.518,369.106 117.386 C 370.896 117.059,371.164 116.612,371.675 113.110 C 372.006 110.844,372.137 110.386,372.542 110.081 C 373.165 109.611,372.999 109.231,371.820 108.419 C 370.670 107.628,370.423 107.613,369.783 108.294 C 369.306 108.801,369.192 108.821,366.841 108.797 C 365.496 108.784,364.562 108.729,364.765 108.676 C 365.269 108.545,365.233 107.963,364.712 107.827 C 364.220 107.698,364.142 107.343,364.606 107.343 C 364.818 107.343,364.923 107.132,364.923 106.709 C 364.923 106.089,364.947 106.075,365.980 106.075 L 367.036 106.075 367.036 106.920 L 367.036 107.765 367.970 107.765 C 369.330 107.765,369.572 107.618,369.572 106.792 L 369.572 106.075 371.896 106.075 C 374.647 106.075,374.778 105.921,373.137 104.614 C 371.817 103.563,371.922 103.564,370.996 104.596 C 370.578 105.061,370.087 105.441,369.905 105.441 C 369.407 105.441,369.486 104.579,369.995 104.446 C 371.403 104.077,370.162 103.284,368.117 103.245 L 366.931 103.222 367.003 104.332 L 367.075 105.441 365.999 105.441 C 364.748 105.441,364.581 105.095,365.504 104.415 C 366.359 103.786,365.845 103.395,363.920 103.210 L 362.388 103.062 362.388 104.207 M374.996 103.258 C 374.918 103.335,374.853 103.644,374.851 103.944 C 374.842 105.288,374.151 107.611,373.170 109.598 C 371.687 112.597,371.872 112.828,373.989 110.623 L 375.303 109.254 375.621 110.015 C 375.795 110.433,376.164 111.133,376.440 111.570 L 376.942 112.365 376.479 112.778 C 375.707 113.467,374.799 114.038,373.205 114.838 C 371.849 115.519,371.215 116.218,371.954 116.218 C 372.627 116.218,375.506 115.277,376.832 114.624 L 378.297 113.903 379.270 114.612 C 381.450 116.201,383.432 116.951,383.650 116.270 C 384.022 115.113,384.240 114.739,384.609 114.622 C 385.527 114.331,384.911 113.824,383.189 113.454 C 382.253 113.253,381.124 112.936,380.681 112.751 L 379.876 112.415 380.447 111.665 C 380.762 111.252,381.396 110.111,381.856 109.129 L 382.693 107.343 383.622 107.343 C 384.932 107.343,384.933 107.121,383.632 105.890 C 382.253 104.586,382.053 104.566,381.300 105.652 L 380.714 106.498 378.844 106.498 L 376.975 106.498 377.330 105.751 C 377.540 105.311,377.890 104.954,378.184 104.881 C 378.537 104.792,378.662 104.630,378.617 104.319 C 378.535 103.764,375.406 102.847,374.996 103.258 M144.400 103.665 C 143.248 104.470,138.992 105.581,133.032 106.631 C 132.460 106.732,131.953 106.933,131.905 107.079 C 131.724 107.634,140.172 107.282,144.004 106.574 C 144.934 106.402,146.337 106.207,147.121 106.140 C 149.079 105.973,148.989 105.596,146.607 103.994 C 145.517 103.260,145.073 103.194,144.400 103.665 M156.121 109.874 C 156.238 118.843,155.655 123.329,153.857 127.288 C 152.851 129.503,153.017 129.917,154.353 128.526 C 156.470 126.323,158.690 121.568,158.690 119.237 C 158.690 118.754,158.697 118.753,161.855 118.753 L 165.021 118.753 165.078 123.244 L 165.135 127.734 166.368 127.798 C 168.249 127.895,168.199 128.025,168.199 123.059 L 168.199 118.753 171.368 118.753 L 174.538 118.753 174.526 121.236 C 174.519 122.602,174.444 124.099,174.360 124.564 L 174.207 125.409 172.048 125.343 C 169.488 125.264,169.159 125.592,171.035 126.354 C 172.373 126.897,172.869 127.380,173.176 128.442 C 173.431 129.324,174.353 129.455,175.863 128.824 C 177.441 128.165,177.390 128.556,177.394 117.105 L 177.398 106.881 177.975 106.460 C 178.862 105.814,178.707 105.368,177.261 104.402 C 175.693 103.355,175.647 103.353,174.749 104.279 L 174.032 105.018 166.778 105.018 L 159.525 105.018 158.056 104.279 C 157.248 103.872,156.464 103.539,156.313 103.539 C 156.092 103.539,156.055 104.778,156.121 109.874 M222.000 116.194 C 222.013 123.151,222.090 128.950,222.171 129.081 C 222.351 129.373,223.346 129.390,224.075 129.112 L 224.617 128.906 224.617 122.832 C 224.617 117.269,224.645 116.797,224.947 117.228 C 225.193 117.580,225.406 117.666,225.792 117.569 L 226.307 117.440 226.307 119.655 C 226.307 123.776,226.445 123.930,230.111 123.930 C 232.836 123.930,233.703 123.631,233.703 122.690 C 233.703 121.746,233.041 121.428,231.409 121.588 C 228.883 121.837,228.843 121.804,228.843 119.470 L 228.843 117.485 231.590 117.485 L 234.337 117.485 234.337 121.623 L 234.337 125.761 232.382 125.700 C 230.178 125.630,229.778 125.935,231.273 126.545 C 232.813 127.174,233.036 127.376,233.227 128.316 C 233.430 129.316,234.277 129.477,235.640 128.772 C 237.024 128.056,236.987 128.402,236.899 117.141 L 236.820 106.954 237.374 106.399 C 238.092 105.682,238.074 105.389,237.270 104.713 C 235.817 103.490,235.481 103.434,234.618 104.272 L 233.850 105.018 229.544 105.018 L 225.239 105.018 224.030 104.412 C 221.712 103.250,221.972 101.740,222.000 116.194 M125.397 103.981 C 125.318 104.109,125.555 104.489,125.924 104.826 C 126.293 105.162,126.920 106.154,127.319 107.028 C 128.533 109.693,131.003 109.525,130.494 106.812 C 130.235 105.432,125.966 103.061,125.397 103.981 M339.940 104.496 L 339.150 105.230 336.453 105.226 C 334.970 105.224,332.904 105.133,331.863 105.023 C 329.735 104.799,329.692 104.812,329.966 105.582 L 330.164 106.137 334.865 106.093 L 339.567 106.048 339.567 108.491 L 339.567 110.935 337.437 110.935 C 335.437 110.935,335.214 110.890,333.770 110.195 C 332.924 109.789,332.185 109.456,332.127 109.456 C 332.069 109.456,331.962 110.098,331.889 110.882 C 331.817 111.667,331.458 113.766,331.092 115.547 C 330.334 119.240,330.339 119.261,332.001 119.223 C 333.163 119.197,333.650 118.858,333.650 118.079 C 333.650 117.727,333.904 117.697,336.850 117.697 L 340.050 117.697 339.913 119.123 C 339.761 120.693,339.091 124.025,338.745 124.928 C 338.448 125.706,337.835 125.818,335.431 125.535 C 332.606 125.202,332.225 125.515,334.463 126.331 C 336.118 126.935,336.773 127.479,336.944 128.394 C 337.123 129.346,337.379 129.432,338.801 129.018 C 340.955 128.392,341.618 127.136,342.547 121.923 C 342.785 120.586,343.023 119.276,343.075 119.010 C 343.128 118.745,343.406 118.421,343.693 118.290 C 344.621 117.867,344.372 117.202,342.924 116.235 C 341.367 115.195,341.505 115.203,340.623 116.112 L 339.907 116.852 336.861 116.852 C 334.512 116.852,333.840 116.791,333.918 116.587 C 333.973 116.442,334.193 115.301,334.406 114.052 L 334.792 111.780 337.180 111.780 C 339.338 111.780,339.567 111.817,339.567 112.161 C 339.567 112.782,340.014 113.048,341.062 113.048 C 342.534 113.048,342.631 112.837,342.631 109.618 L 342.631 106.887 343.212 106.463 C 344.040 105.860,343.950 105.613,342.544 104.626 C 341.039 103.571,340.940 103.566,339.940 104.496 M198.738 110.008 C 198.745 115.861,198.687 115.659,200.317 115.424 C 201.454 115.260,201.456 115.254,201.397 110.862 L 201.342 106.767 201.931 106.338 C 202.749 105.742,202.348 105.319,200.786 105.132 C 200.121 105.052,199.387 104.942,199.155 104.888 C 198.741 104.790,198.732 104.894,198.738 110.008 M165.108 106.524 C 165.181 106.887,165.240 108.076,165.240 109.165 L 165.240 111.146 162.176 111.146 L 159.113 111.146 159.113 108.505 L 159.113 105.864 162.044 105.864 L 164.976 105.864 165.108 106.524 M174.538 108.505 L 174.538 111.146 171.263 111.146 L 167.987 111.146 167.989 109.614 C 167.990 108.772,168.051 107.583,168.124 106.973 L 168.257 105.864 171.398 105.864 L 174.538 105.864 174.538 108.505 M234.339 107.924 C 234.340 109.057,234.402 110.497,234.478 111.125 L 234.615 112.265 233.709 111.283 C 232.607 110.087,232.463 110.076,231.801 111.146 C 231.435 111.740,231.133 111.992,230.788 111.992 C 230.239 111.992,230.223 112.038,231.385 110.301 C 231.813 109.662,232.322 108.830,232.516 108.452 C 232.734 108.028,233.029 107.765,233.286 107.765 C 234.464 107.765,233.565 106.903,231.843 106.381 C 230.406 105.945,230.323 105.971,230.319 106.867 C 230.316 107.595,230.007 109.155,229.453 111.228 L 229.234 112.048 227.401 111.936 C 226.393 111.875,225.401 111.757,225.198 111.674 C 224.753 111.493,224.653 112.492,225.089 112.762 C 225.232 112.850,227.419 112.895,229.949 112.861 L 234.548 112.799 234.548 114.869 L 234.548 116.940 233.642 116.050 C 232.543 114.972,232.398 114.961,231.681 115.901 C 230.938 116.876,230.745 116.834,230.745 115.697 C 230.745 114.970,230.842 114.702,231.167 114.527 C 232.065 114.047,231.686 113.531,230.252 113.281 C 228.106 112.907,228.240 112.793,228.370 114.872 L 228.484 116.697 227.237 116.552 C 226.551 116.472,225.681 116.354,225.304 116.289 L 224.617 116.171 224.617 111.017 L 224.617 105.864 229.477 105.864 L 234.337 105.864 234.339 107.924 M191.653 108.611 L 191.653 111.146 190.386 111.146 L 189.118 111.146 189.118 108.611 L 189.118 106.075 190.386 106.075 L 191.653 106.075 191.653 108.611 M225.674 106.576 C 225.674 106.736,225.853 107.283,226.071 107.791 C 226.290 108.300,226.534 109.237,226.613 109.873 C 226.785 111.251,227.007 111.569,227.797 111.569 C 228.922 111.569,229.364 110.511,228.829 109.100 C 228.336 107.798,225.674 105.669,225.674 106.576 M261.384 107.210 C 261.384 107.730,259.108 111.780,258.816 111.780 C 258.739 111.780,258.301 111.329,257.842 110.777 C 255.223 107.625,255.375 107.132,258.966 107.132 C 260.296 107.132,261.384 107.167,261.384 107.210 M286.318 108.611 L 286.318 110.090 284.733 110.090 L 283.148 110.090 283.148 108.611 L 283.148 107.132 284.733 107.132 L 286.318 107.132 286.318 108.611 M292.446 108.611 L 292.446 110.090 290.755 110.090 L 289.065 110.090 289.065 108.611 L 289.065 107.132 290.755 107.132 L 292.446 107.132 292.446 108.611 M138.142 109.656 L 138.253 111.992 136.163 111.986 C 135.013 111.984,133.656 111.885,133.147 111.768 C 132.042 111.513,131.933 111.584,132.252 112.355 L 132.496 112.942 138.514 112.868 C 142.027 112.824,144.532 112.873,144.532 112.985 C 144.532 114.226,139.674 119.534,136.586 121.666 L 135.930 122.120 135.416 120.806 C 134.632 118.801,134.300 118.901,133.060 121.517 C 132.046 123.654,130.260 125.864,129.699 125.677 C 129.220 125.518,128.648 123.362,128.759 122.134 C 128.816 121.495,129.642 118.405,130.594 115.267 C 132.520 108.917,132.508 108.970,132.066 108.878 C 131.837 108.831,131.314 109.827,130.184 112.462 C 129.324 114.470,128.118 117.182,127.505 118.489 C 126.328 120.997,126.389 120.943,124.828 120.871 C 123.856 120.826,123.718 121.390,124.617 121.731 C 126.036 122.268,126.175 122.608,126.106 125.368 L 126.043 127.876 126.636 128.386 C 127.833 129.416,129.292 128.817,129.511 127.205 L 129.635 126.292 130.641 127.805 C 131.194 128.638,131.778 129.319,131.939 129.319 C 132.298 129.319,132.519 128.800,132.349 128.357 C 132.280 128.177,132.525 127.377,132.892 126.580 C 133.260 125.782,133.782 124.254,134.053 123.184 C 134.499 121.419,134.557 121.304,134.680 121.950 C 135.505 126.271,138.682 128.132,145.716 128.414 L 148.695 128.533 148.834 127.663 C 148.919 127.132,149.233 126.497,149.643 126.031 C 150.490 125.066,150.279 124.924,148.289 125.123 C 143.684 125.585,139.702 125.222,137.922 124.179 C 136.213 123.178,136.240 122.926,138.160 121.965 C 141.561 120.263,145.192 117.361,146.994 114.907 C 147.504 114.213,147.953 113.832,148.362 113.751 C 149.314 113.560,149.169 112.828,147.978 111.810 C 146.267 110.348,146.117 110.315,145.293 111.214 L 144.581 111.992 142.761 111.992 L 140.940 111.992 140.938 110.777 C 140.937 109.664,140.995 109.512,141.625 108.979 C 142.503 108.236,142.155 107.880,140.351 107.675 C 139.687 107.599,138.894 107.488,138.588 107.429 L 138.032 107.320 138.142 109.656 M379.715 107.690 C 379.715 107.882,379.374 108.747,378.957 109.614 L 378.199 111.190 377.587 110.604 C 375.321 108.433,375.504 107.343,378.135 107.343 C 379.460 107.343,379.715 107.399,379.715 107.690 M369.456 110.777 C 369.289 112.204,368.947 114.317,368.807 114.791 C 368.739 115.024,368.489 115.161,368.132 115.162 C 367.397 115.162,367.380 112.743,368.110 112.082 C 369.201 111.094,367.005 109.585,365.826 110.512 C 364.815 111.308,362.167 110.917,362.921 110.084 C 363.265 109.705,363.580 109.667,366.443 109.667 L 369.587 109.667 369.456 110.777 M123.715 110.097 C 123.640 110.218,123.907 110.681,124.309 111.125 C 124.740 111.603,125.229 112.507,125.506 113.338 C 126.142 115.250,127.102 115.707,128.191 114.617 C 128.833 113.975,128.784 113.022,128.056 111.999 C 127.364 111.027,124.040 109.570,123.715 110.097 M280.401 112.625 C 280.401 114.333,280.362 114.527,280.012 114.527 C 279.798 114.527,279.070 114.717,278.394 114.950 C 277.718 115.182,277.133 115.372,277.093 115.372 C 277.053 115.372,277.021 114.326,277.021 113.048 L 277.021 110.724 278.711 110.724 L 280.401 110.724 280.401 112.625 M286.318 112.942 L 286.318 114.739 284.733 114.739 L 283.148 114.739 283.148 112.942 L 283.148 111.146 284.733 111.146 L 286.318 111.146 286.318 112.942 M292.446 112.942 L 292.446 114.739 290.755 114.739 L 289.065 114.739 289.065 112.942 L 289.065 111.146 290.755 111.146 L 292.446 111.146 292.446 112.942 M365.557 112.837 L 365.557 113.893 364.501 113.893 L 363.444 113.893 363.444 112.837 L 363.444 111.780 364.501 111.780 L 365.557 111.780 365.557 112.837 M165.193 114.897 L 165.135 117.802 161.986 117.861 L 158.838 117.920 158.974 116.171 C 159.049 115.209,159.111 113.875,159.111 113.207 L 159.113 111.992 162.182 111.992 L 165.252 111.992 165.193 114.897 M174.538 114.950 L 174.538 117.908 171.395 117.908 L 168.251 117.908 168.119 117.248 C 168.047 116.885,167.987 115.553,167.987 114.289 L 167.987 111.992 171.263 111.992 L 174.538 111.992 174.538 114.950 M376.017 116.235 C 373.455 117.015,367.523 117.959,363.391 118.246 C 361.955 118.345,361.331 118.469,361.331 118.654 C 361.331 119.133,361.976 119.187,366.009 119.042 L 369.995 118.899 369.995 119.692 L 369.995 120.484 365.240 120.411 C 360.337 120.336,360.177 120.363,360.770 121.174 C 361.032 121.533,361.398 121.559,365.525 121.518 L 369.995 121.472 369.995 122.437 L 369.995 123.402 365.082 123.397 C 362.380 123.394,359.812 123.309,359.376 123.208 C 358.477 122.999,358.292 123.146,358.555 123.858 L 358.738 124.353 364.381 124.277 L 370.023 124.201 369.956 125.017 L 369.889 125.832 367.670 125.839 C 365.087 125.847,364.707 126.180,366.584 126.792 C 367.885 127.216,368.315 127.579,368.645 128.533 C 368.869 129.180,368.928 129.210,369.869 129.161 C 372.003 129.048,372.777 128.227,372.910 125.935 L 373.007 124.247 379.002 124.247 C 385.852 124.247,385.811 124.261,383.709 122.680 C 382.136 121.498,381.920 121.489,380.877 122.557 L 380.052 123.402 376.502 123.402 L 372.953 123.402 372.953 122.451 L 372.953 121.500 377.695 121.500 C 383.368 121.500,383.846 121.103,380.405 119.242 L 379.722 118.872 378.917 119.658 L 378.112 120.444 375.533 120.444 L 372.953 120.444 372.953 119.630 L 372.953 118.817 375.858 118.530 C 377.456 118.372,379.120 118.270,379.556 118.305 C 380.899 118.410,380.632 117.680,378.994 116.764 C 377.603 115.986,377.119 115.900,376.017 116.235 M291.625 117.602 L 290.698 118.331 286.237 118.329 C 283.783 118.329,281.210 118.236,280.520 118.123 C 279.071 117.885,278.983 117.926,279.261 118.705 C 279.463 119.270,279.497 119.280,280.971 119.209 L 282.476 119.137 283.307 120.900 C 283.764 121.869,284.534 123.160,285.019 123.768 L 285.899 124.873 285.105 125.375 C 283.577 126.338,282.389 126.867,279.768 127.750 C 276.832 128.739,276.277 129.262,278.288 129.145 C 280.753 129.002,284.007 128.142,286.391 127.005 L 287.626 126.416 288.821 127.135 C 290.070 127.887,292.764 128.832,294.234 129.033 L 295.093 129.151 295.345 128.211 C 295.522 127.549,295.820 127.100,296.350 126.696 C 297.309 125.964,297.188 125.800,295.563 125.629 C 293.955 125.461,290.737 124.894,290.478 124.735 C 290.375 124.671,290.809 124.084,291.443 123.429 C 292.077 122.775,292.948 121.768,293.377 121.191 C 293.807 120.615,294.439 120.025,294.781 119.881 C 295.757 119.471,295.579 118.921,294.115 117.820 C 292.592 116.675,292.782 116.692,291.625 117.602 M248.708 118.799 C 248.709 118.948,248.857 119.546,249.037 120.127 C 249.217 120.708,249.394 122.110,249.431 123.243 C 249.504 125.495,249.696 125.938,250.601 125.938 C 251.919 125.938,252.471 123.660,251.574 121.923 C 250.648 120.130,248.701 118.007,248.708 118.799 M218.489 119.044 C 218.489 119.203,218.632 119.738,218.806 120.232 C 219.000 120.783,219.123 121.888,219.123 123.088 C 219.123 125.406,219.467 126.109,220.475 125.856 C 222.215 125.420,221.690 121.819,219.539 119.440 C 218.881 118.712,218.489 118.565,218.489 119.044 M290.522 120.015 C 289.120 122.510,287.820 123.582,286.895 123.007 C 285.902 122.391,283.571 119.801,283.571 119.314 C 283.571 119.238,285.241 119.176,287.282 119.176 L 290.994 119.176 290.522 120.015 M261.671 120.602 C 261.743 121.038,261.802 122.155,261.802 123.085 C 261.802 124.015,261.743 125.132,261.671 125.568 L 261.540 126.360 258.926 126.360 L 256.313 126.360 256.313 123.085 L 256.313 119.810 258.926 119.810 L 261.540 119.810 261.671 120.602 M305.812 122.206 C 305.403 123.103,303.147 125.347,301.480 126.515 C 299.129 128.162,299.338 128.484,302.139 127.531 C 304.019 126.892,306.328 125.731,307.880 124.645 C 308.525 124.194,309.264 123.825,309.525 123.825 C 311.041 123.825,310.158 122.738,308.165 122.153 C 306.272 121.597,306.088 121.601,305.812 122.206 M316.042 121.852 C 315.745 122.149,315.942 122.342,317.221 123.010 C 318.128 123.483,319.180 124.347,320.577 125.769 C 322.985 128.218,323.700 128.408,324.544 126.823 C 325.464 125.095,323.134 123.320,318.509 122.227 C 316.014 121.638,316.224 121.670,316.042 121.852 " stroke="none" fill="#000000" fill-rule="evenodd"></path></g></svg>