<svg width="169" height="169" viewBox="0 0 169 169" fill="none" xmlns="http://www.w3.org/2000/svg">
<rect width="169" height="169" rx="84.5" fill="#DDC66E"/>
<path d="M27.1675 107.792C27.2298 107.968 27.2845 108.117 27.3301 108.239C27.3549 108.319 27.3847 108.413 27.4192 108.522C27.5274 108.862 27.6828 109.342 27.8799 109.929C28.2724 111.097 28.8384 112.711 29.5332 114.493C30.8088 117.764 32.9044 122.638 35.5647 125.988C39.4059 130.825 48.6596 141.152 62.45 142.451C72.2339 143.372 80.6869 141.793 94.9936 139.121C97.7677 138.603 100.762 138.043 104.028 137.453C115.311 135.415 122.559 132.272 127.59 128.824C130.1 127.104 131.898 125.416 133.251 124.011C133.739 123.505 134.207 122.993 134.555 122.613C134.653 122.506 134.742 122.409 134.818 122.326C135.014 122.113 135.153 121.966 135.264 121.853C135.368 121.747 135.414 121.706 135.417 121.703L135.417 121.703C137.255 120.089 138.763 117.75 139.856 115.738C141.063 113.514 142.219 110.831 143.093 107.945C144.712 102.596 145.934 94.6164 142.26 87.6965L135.194 91.4482L142.26 87.6965C141.058 85.4325 140.806 82.9203 140.489 77.3839C140.188 72.1331 139.791 65.2506 136.994 56.8658C131.083 39.1444 119.212 32.763 110.816 28.4849C100.463 23.2097 87.6848 22.6606 70.4863 27.3382C60.7228 29.9937 52.7592 35.8062 47.4471 40.5853C44.7414 43.0196 42.5981 45.2999 41.1182 46.9871C40.3759 47.8334 39.7942 48.5378 39.3857 49.047C39.2525 49.2132 39.1374 49.3589 39.041 49.4822C38.9648 49.5626 38.8796 49.6532 38.7861 49.7539C38.414 50.1547 37.908 50.717 37.3077 51.4283C36.1106 52.8466 34.518 54.8811 32.8561 57.4301C29.5746 62.4633 25.7912 69.8576 24.5427 78.7132C23.3643 87.0726 24.062 94.4201 25.0449 99.674C25.5383 102.311 26.1098 104.455 26.5729 105.977C26.8049 106.74 27.0106 107.35 27.1675 107.792Z" fill="white" stroke="white" stroke-width="16"/>
<path d="M31.1144 106.938C31.1418 107.026 31.181 107.152 31.2313 107.31C31.3336 107.632 31.4822 108.091 31.6716 108.655C32.0495 109.78 32.5938 111.332 33.2599 113.04C34.535 116.31 36.4495 120.67 38.6971 123.5C42.4528 128.23 50.7966 137.335 62.8252 138.468C72.0074 139.333 79.814 137.878 94.1333 135.209C96.9271 134.689 99.9689 134.122 103.317 133.517C114.185 131.554 120.869 128.581 125.329 125.524C127.556 123.998 129.148 122.505 130.37 121.236C130.818 120.771 131.236 120.315 131.581 119.937C131.687 119.822 131.786 119.713 131.877 119.615C132.305 119.151 132.57 118.88 132.778 118.697C134.078 117.555 135.316 115.716 136.34 113.83C137.422 111.837 138.471 109.406 139.264 106.786C140.786 101.759 141.648 95.0734 138.727 89.5724C137.042 86.3993 136.802 82.9637 136.496 77.6128C136.197 72.4047 135.817 65.9777 133.2 58.1315C127.807 41.9633 117.163 36.2081 109 32.0489C99.8589 27.3911 88.2004 26.6657 71.5361 31.198C62.6218 33.6225 55.2052 38.9862 50.1224 43.559C47.5563 45.8677 45.5233 48.031 44.1254 49.6247C43.4252 50.423 42.8812 51.082 42.5061 51.5497C42.3208 51.7808 42.1764 51.9654 42.0746 52.0975C41.9821 52.1935 41.862 52.3199 41.7173 52.4757C41.3845 52.8341 40.9208 53.3492 40.3645 54.0083C39.2537 55.3243 37.7637 57.2268 36.2068 59.6147C33.1144 64.358 29.6423 71.1942 28.5036 79.2716C27.3998 87.1008 28.0526 93.9993 28.9767 98.9385C29.4397 101.413 29.9739 103.413 30.3998 104.813C30.613 105.514 30.7995 106.066 30.9373 106.455C31.0062 106.649 31.063 106.802 31.1049 106.913C31.1082 106.922 31.1113 106.93 31.1144 106.938Z" fill="white" stroke="#363016" stroke-width="8"/>
<ellipse cx="8.59874" cy="20.7814" rx="8.59874" ry="20.7814" transform="matrix(0.975065 -0.221919 0.16002 0.987114 34.8319 75.0587)" fill="#3A3000"/>
<path fill-rule="evenodd" clip-rule="evenodd" d="M79.2563 55.1454C70.889 56.4624 63.4929 68.8016 63.2351 81.8749C62.8188 102.954 86.7941 109.095 95.0138 90.015C98.4153 82.12 97.6753 68.6329 93.4928 62.2734C90.3345 57.4721 84.1488 54.3752 79.2563 55.1454ZM86.2016 63.5277C92.0024 69.1489 93.7735 81.5879 89.7703 88.5844C85.0649 96.8076 72.6879 97.3917 68.3234 89.5958L67.3846 87.919L68.4668 89.0386C72.2706 92.9739 77.5447 92.7211 82.4689 88.3676C88.4604 83.0704 89.62 73.2076 85.2736 64.5115C83.7162 61.3962 83.8529 61.251 86.2016 63.5277ZM79.6012 66.273C81.0355 67.9332 81.0867 71.4002 79.7195 74.3066C76.8233 80.4651 70.3974 78.7661 71.6269 72.1667C72.6488 66.6808 77.1066 63.3857 79.6012 66.273ZM121.66 89.5724C116.343 90.3067 113.319 94.6173 113.938 100.579C114.3 104.067 116.041 108.232 117.942 110.16C119.198 111.432 119.185 111.505 117.54 112.606C110.095 117.588 100.952 115.794 94.6196 108.108C93.0524 106.206 92.8903 106.245 93.614 108.352C97.4398 119.501 112.121 123.417 120.424 115.504C123.123 112.931 123.862 112.258 126.146 110.292C134.919 102.738 131.766 88.1769 121.66 89.5724Z" fill="#3A3000"/>
<path fill-rule="evenodd" clip-rule="evenodd" d="M125.547 82.0027C129.835 80.3863 129.545 72.574 126.922 63.4184C124.298 54.2627 118.893 47.7545 114.605 49.3709C110.317 50.9873 108.621 58.9637 111.089 68.5456C113.712 77.7013 120.851 84.1549 125.547 82.0027ZM123.231 78.2983C127.708 76.9352 127.556 68.4485 122.896 59.5299C122.322 58.4328 121.749 57.5253 121.62 57.5133C121.492 57.5014 121.775 58.3817 122.249 59.4695C125.259 66.3782 125.254 73.1231 122.237 76.9408C121.144 78.3246 121.508 78.8222 123.231 78.2983ZM115.5 67C117.5 67 119 62.5166 117.5 59.5299C116.476 58.0166 113.851 58.0625 113.5 61.5C113.201 64.4271 113.855 66.8465 115.5 67Z" fill="#3A3000"/>
</svg>
