<svg width="92mm" height="92mm" viewBox="0 0 92 92"><path d="M39.581 41.421h-8.954v-1.215q0-2.034.818-3.597.819-1.587 3.448-4.018l1.588-1.439q1.414-1.29 2.059-2.43.67-1.142.67-2.283 0-1.736-1.191-2.703-1.19-.993-3.324-.993-2.01 0-4.341.844-2.332.818-4.862 2.455v-7.788q3.002-1.042 5.482-1.538 2.48-.496 4.787-.496 6.053 0 9.228 2.48 3.175 2.456 3.175 7.194 0 2.43-.968 4.365-.967 1.91-3.299 4.118L42.31 35.79q-1.687 1.538-2.208 2.48-.52.918-.52 2.034zm-8.954 3.671h8.954v8.83h-8.954Z" style="line-height:1;-inkscape-font-specification:'DejaVu Sans Bold'" font-style="normal" font-variant="normal" font-weight="700" font-stretch="normal" font-size="50.80000305px" font-family="DejaVu Sans" display="inline" fill="#db3434" fill-opacity="1" stroke-width=".26458335"/><circle cx="35" cy="36.486" r="30" fill="none" fill-opacity="1" stroke="#db3434" stroke-width="10" stroke-miterlimit="4" stroke-dasharray="none" stroke-opacity="1"/><rect width="18.846" height="39.963" x="-12.021" y="80.49" ry="0" transform="rotate(-46.235)" opacity="1" fill="#db3434" fill-opacity="1" stroke="none" stroke-width="8" stroke-miterlimit="4" stroke-dasharray="none" stroke-opacity="1"/></svg>