<svg width="4em" height="1em" viewBox="0 0 708 169" fill="none" xmlns="http://www.w3.org/2000/svg"><rect width="169" height="169" rx="84.5" fill="#F8E287"/><path d="M27.168 107.792c.062.176.117.325.162.447l.09.283a103.441 103.441 0 0 0 2.114 5.971c1.275 3.271 3.37 8.145 6.03 11.495 3.842 4.837 13.096 15.164 26.886 16.463 9.784.921 18.237-.658 32.544-3.33 2.774-.518 5.768-1.078 9.034-1.668 11.283-2.038 18.531-5.181 23.562-8.629a35.79 35.79 0 0 0 5.661-4.813c.488-.506.956-1.018 1.304-1.398l.263-.287c.196-.213.335-.36.446-.473.104-.106.15-.147.153-.15 1.838-1.614 3.346-3.953 4.439-5.965a42.303 42.303 0 0 0 3.237-7.793c1.619-5.349 2.841-13.329-.833-20.248l-7.066 3.751 7.066-3.751c-1.202-2.264-1.454-4.777-1.771-10.313-.301-5.25-.698-12.133-3.495-20.518-5.911-17.722-17.782-24.103-26.178-28.381-10.353-5.275-23.131-5.824-40.33-1.147-9.763 2.656-17.727 8.468-23.039 13.247a76.98 76.98 0 0 0-6.329 6.402 61.678 61.678 0 0 0-2.077 2.495l-.255.272c-.372.4-.878.963-1.478 1.674a61.167 61.167 0 0 0-4.452 6.002c-3.281 5.033-7.065 12.428-8.313 21.283-1.179 8.36-.481 15.707.502 20.961a59.2 59.2 0 0 0 1.528 6.303c.232.763.438 1.373.595 1.815Z" fill="#fff" stroke="#fff" stroke-width="16"/><path d="m31.114 106.938.117.372a99.04 99.04 0 0 0 2.029 5.73c1.275 3.27 3.19 7.63 5.437 10.46 3.756 4.73 12.1 13.835 24.128 14.968 9.182.865 16.989-.59 31.308-3.259 2.794-.52 5.836-1.087 9.184-1.692 10.868-1.963 17.552-4.936 22.012-7.993a31.788 31.788 0 0 0 5.041-4.288c.448-.465.866-.921 1.211-1.299l.296-.322c.428-.464.693-.735.901-.918 1.3-1.142 2.538-2.981 3.562-4.867a38.235 38.235 0 0 0 2.924-7.044c1.522-5.027 2.384-11.713-.537-17.214-1.685-3.173-1.925-6.608-2.231-11.96-.299-5.207-.679-11.634-3.296-19.48-5.393-16.169-16.037-21.924-24.2-26.083-9.141-4.658-20.8-5.383-37.464-.851-8.914 2.425-16.33 7.788-21.414 12.361a72.983 72.983 0 0 0-5.997 6.066c-.7.798-1.244 1.457-1.619 1.925-.185.23-.33.415-.431.547a43.494 43.494 0 0 0-1.71 1.91 57.165 57.165 0 0 0-4.158 5.608c-3.093 4.743-6.565 11.58-7.703 19.657-1.104 7.829-.451 14.727.473 19.666a55.225 55.225 0 0 0 1.423 5.875c.213.701.4 1.253.537 1.642a24.58 24.58 0 0 0 .177.483Z" fill="#fff" stroke="#363016" stroke-width="8"/><ellipse cx="8.599" cy="20.781" rx="8.599" ry="20.781" transform="matrix(.97506 -.22192 .16002 .98711 34.832 75.059)" fill="#3A3000"/><path fill-rule="evenodd" clip-rule="evenodd" d="M79.256 55.145c-8.367 1.317-15.763 13.657-16.02 26.73-.417 21.079 23.558 27.22 31.778 8.14 3.401-7.895 2.661-21.382-1.521-27.742-3.158-4.8-9.344-7.898-14.237-7.128Zm6.946 8.383c5.8 5.62 7.572 18.06 3.568 25.056-4.705 8.224-17.082 8.808-21.447 1.012l-.938-1.677 1.082 1.12c3.804 3.935 9.078 3.682 14.002-.671 5.991-5.298 7.151-15.16 2.805-23.856-1.558-3.116-1.421-3.261.928-.984Zm-6.6 2.745c1.433 1.66 1.485 5.127.117 8.034-2.896 6.158-9.322 4.46-8.092-2.14 1.022-5.486 5.48-8.781 7.974-5.894Zm42.058 23.3c-5.317.734-8.341 5.044-7.722 11.006.362 3.488 2.103 7.653 4.004 9.581 1.256 1.272 1.243 1.345-.402 2.446-7.445 4.982-16.588 3.188-22.92-4.498-1.568-1.902-1.73-1.863-1.006.244 3.826 11.149 18.507 15.065 26.81 7.152 2.699-2.573 3.438-3.246 5.722-5.212 8.773-7.554 5.62-22.115-4.486-20.72ZM125.547 82.003c4.288-1.617 3.998-9.429 1.375-18.585-2.624-9.155-8.029-15.663-12.317-14.047-4.288 1.616-5.984 9.593-3.516 19.175 2.623 9.155 9.762 15.609 14.458 13.457Zm-2.316-3.705c4.477-1.363 4.325-9.85-.335-18.768-.574-1.097-1.147-2.005-1.276-2.017-.128-.012.155.869.629 1.956 3.01 6.91 3.005 13.654-.012 17.472-1.093 1.384-.729 1.881.994 1.357ZM115.5 67c2 0 3.5-4.483 2-7.47-1.024-1.513-3.649-1.468-4 1.97-.299 2.927.355 5.347 2 5.5Z" fill="#3A3000"/><path d="M213.992 41.92h13.536v5.568c1.984-2.24 4.288-3.968 6.912-5.184 2.624-1.216 5.344-1.824 8.16-1.824 3.52 0 6.336.576 8.448 1.728 2.112 1.088 3.776 2.72 4.992 4.896 1.984-2.112 4.384-3.744 7.2-4.896 2.88-1.152 5.728-1.728 8.544-1.728 5.888 0 10.08 1.504 12.576 4.512 2.56 3.008 3.84 7.36 3.84 13.056V88h-13.824V60.064c0-2.944-.576-5.056-1.728-6.336-1.152-1.28-3.008-1.92-5.568-1.92-3.584 0-6.464 1.408-8.64 4.224.128 2.048.192 3.712.192 4.992V88h-13.92V59.584c0-2.816-.512-4.8-1.536-5.952-.96-1.216-2.656-1.824-5.088-1.824-3.776 0-7.136 2.144-10.08 6.432V88h-14.016V41.92Zm110.309 47.52c-8.832 0-15.776-2.112-20.832-6.336-5.056-4.288-7.584-10.272-7.584-17.952 0-7.616 2.24-13.632 6.72-18.048 4.544-4.416 11.008-6.624 19.392-6.624 5.504 0 10.176 1.024 14.016 3.072s6.752 4.896 8.736 8.544c1.984 3.584 2.976 7.648 2.976 12.192v5.856h-38.016c1.024 5.888 6.528 8.832 16.512 8.832 2.944 0 5.984-.256 9.12-.768 3.136-.512 5.856-1.216 8.159-2.112v10.176c-2.239.96-5.119 1.728-8.639 2.304a65.29 65.29 0 0 1-10.56.864Zm9.696-28.704c-.192-3.072-1.344-5.44-3.456-7.104-2.112-1.728-5.024-2.592-8.736-2.592-3.648 0-6.528.864-8.64 2.592-2.112 1.728-3.264 4.096-3.456 7.104h24.288Zm48.241 28.704c-8.832 0-15.776-2.112-20.832-6.336-5.056-4.288-7.584-10.272-7.584-17.952 0-7.616 2.24-13.632 6.72-18.048 4.544-4.416 11.008-6.624 19.392-6.624 5.504 0 10.176 1.024 14.016 3.072s6.752 4.896 8.736 8.544c1.984 3.584 2.976 7.648 2.976 12.192v5.856h-38.016c1.024 5.888 6.528 8.832 16.512 8.832 2.944 0 5.984-.256 9.12-.768 3.136-.512 5.856-1.216 8.16-2.112v10.176c-2.24.96-5.12 1.728-8.64 2.304a65.29 65.29 0 0 1-10.56.864Zm9.696-28.704c-.192-3.072-1.344-5.44-3.456-7.104-2.112-1.728-5.024-2.592-8.736-2.592-3.648 0-6.528.864-8.64 2.592-2.112 1.728-3.264 4.096-3.456 7.104h24.288ZM413.68 41.92h14.016v6.624c1.856-2.24 4.448-3.936 7.776-5.088 3.328-1.216 7.104-1.824 11.328-1.824v11.04c-4.416 0-8.32.672-11.712 2.016-3.328 1.344-5.632 3.392-6.912 6.144V88H413.68V41.92Zm39.281-24.864h14.496v44.352l16.8-19.488h16.8l-19.488 22.464L503.457 88h-16.8l-19.2-20.736V88h-14.496V17.056ZM515.107 88c-1.536 0-2.848-.512-3.936-1.536-1.024-1.024-1.536-2.304-1.536-3.84s.544-2.848 1.632-3.936c1.088-1.088 2.368-1.632 3.84-1.632 1.536 0 2.848.544 3.936 1.632 1.088 1.088 1.631 2.4 1.631 3.936s-.543 2.816-1.631 3.84-2.4 1.536-3.936 1.536Zm30.788 1.44c-5.632 0-10.24-1.408-13.824-4.224-3.52-2.88-5.28-6.784-5.28-11.712 0-5.12 1.696-9.088 5.088-11.904 3.392-2.88 8.192-4.32 14.4-4.32 2.752 0 5.376.288 7.872.864 2.496.576 4.704 1.376 6.624 2.4v-1.152c0-2.88-1.024-4.992-3.072-6.336-2.048-1.344-5.184-2.016-9.408-2.016-5.632 0-10.816 1.056-15.552 3.168v-10.56c2.048-.896 4.704-1.632 7.968-2.208a50.78 50.78 0 0 1 9.792-.96c8.32 0 14.528 1.728 18.624 5.184 4.096 3.392 6.144 8.16 6.144 14.304V88h-13.632v-4.224c-3.904 3.776-9.152 5.664-15.744 5.664Zm3.936-9.6c2.368 0 4.512-.448 6.432-1.344 1.92-.896 3.424-2.144 4.512-3.744v-4.608c-3.264-2.176-6.848-3.264-10.752-3.264-2.688 0-4.768.576-6.24 1.728-1.408 1.088-2.112 2.72-2.112 4.896 0 2.048.704 3.616 2.112 4.704 1.408 1.088 3.424 1.632 6.048 1.632Zm35.036-37.92h14.016v5.088c4.672-4.352 10.432-6.528 17.28-6.528 4.8 0 9.024 1.024 12.672 3.072 3.712 1.984 6.592 4.832 8.64 8.544 2.048 3.648 3.072 7.904 3.072 12.768 0 4.8-1.024 9.056-3.072 12.768-2.048 3.712-4.928 6.624-8.64 8.736-3.648 2.048-7.872 3.072-12.672 3.072-3.264 0-6.368-.48-9.312-1.44-2.944-.96-5.44-2.336-7.488-4.128v25.152h-14.496V41.92Zm27.648 36.192c3.904 0 7.072-1.216 9.504-3.648 2.496-2.432 3.744-5.632 3.744-9.6s-1.248-7.136-3.744-9.504c-2.432-2.368-5.6-3.552-9.504-3.552-3.008 0-5.696.8-8.064 2.4-2.368 1.6-4.064 3.712-5.088 6.336v8.736c.96 2.688 2.624 4.832 4.992 6.432 2.432 1.6 5.152 2.4 8.16 2.4Zm36.196-36.192h14.016v5.088c4.672-4.352 10.432-6.528 17.28-6.528 4.8 0 9.024 1.024 12.672 3.072 3.712 1.984 6.592 4.832 8.64 8.544 2.048 3.648 3.072 7.904 3.072 12.768 0 4.8-1.024 9.056-3.072 12.768-2.048 3.712-4.928 6.624-8.64 8.736-3.648 2.048-7.872 3.072-12.672 3.072-3.264 0-6.368-.48-9.312-1.44-2.944-.96-5.44-2.336-7.488-4.128v25.152h-14.496V41.92Zm27.648 36.192c3.904 0 7.072-1.216 9.504-3.648 2.496-2.432 3.744-5.632 3.744-9.6s-1.248-7.136-3.744-9.504c-2.432-2.368-5.6-3.552-9.504-3.552-3.008 0-5.696.8-8.064 2.4-2.368 1.6-4.064 3.712-5.088 6.336v8.736c.96 2.688 2.624 4.832 4.992 6.432 2.432 1.6 5.152 2.4 8.16 2.4Z" fill="var(--md-sys-color-on-surface)"/><path d="M220.856 136.72c-1.664 0-3.44-.192-5.328-.576-1.888-.384-3.36-.912-4.416-1.584v-5.136c1.248.768 2.736 1.392 4.464 1.872 1.728.448 3.36.672 4.896.672s2.656-.128 3.36-.384c.704-.288 1.056-.8 1.056-1.536 0-.576-.192-1.04-.576-1.392-.352-.384-.944-.72-1.776-1.008-.8-.32-2.048-.704-3.744-1.152-1.92-.544-3.44-1.104-4.56-1.68-1.088-.576-1.92-1.296-2.496-2.16-.544-.896-.816-2.048-.816-3.456 0-2.304.912-4.032 2.736-5.184 1.824-1.184 4.288-1.776 7.392-1.776 1.6 0 3.184.16 4.752.48 1.6.288 2.848.704 3.744 1.248v4.944c-.96-.576-2.128-1.04-3.504-1.392a16.976 16.976 0 0 0-4.224-.528c-1.568 0-2.752.16-3.552.48-.8.288-1.2.864-1.2 1.728 0 .576.208 1.04.624 1.392.448.32 1.024.608 1.728.864.704.224 1.984.576 3.84 1.056 1.984.544 3.536 1.136 4.656 1.776 1.12.64 1.92 1.408 2.4 2.304.48.896.72 2.016.72 3.36 0 2.048-.88 3.696-2.64 4.944-1.728 1.216-4.24 1.824-7.536 1.824Zm27.937 0c-4.288 0-7.68-1.072-10.176-3.216-2.496-2.144-3.744-5.136-3.744-8.976 0-3.776 1.104-6.768 3.312-8.976 2.208-2.208 5.36-3.312 9.456-3.312 2.688 0 4.976.512 6.864 1.536 1.92 1.024 3.36 2.432 4.32 4.224.96 1.76 1.44 3.776 1.44 6.048v2.784h-19.632c.416 3.424 3.392 5.136 8.928 5.136a27.42 27.42 0 0 0 4.512-.384c1.536-.256 2.88-.608 4.032-1.056v4.656c-1.088.448-2.496.816-4.224 1.104a30.34 30.34 0 0 1-5.088.432Zm5.76-14.016c-.064-1.824-.72-3.232-1.968-4.224-1.216-.992-2.896-1.488-5.04-1.488-2.112 0-3.776.512-4.992 1.536-1.216 1.024-1.856 2.416-1.92 4.176h13.92Zm18.978 14.016c-2.752 0-5.008-.72-6.768-2.16-1.76-1.472-2.64-3.44-2.64-5.904 0-2.56.832-4.56 2.496-6 1.664-1.44 4-2.16 7.008-2.16 2.912 0 5.424.592 7.536 1.776v-.624c0-1.632-.512-2.816-1.536-3.552-.992-.736-2.608-1.104-4.848-1.104-1.408 0-2.8.144-4.176.432-1.376.256-2.592.624-3.648 1.104v-4.752c.96-.448 2.24-.816 3.84-1.104 1.632-.288 3.2-.432 4.704-.432 4 0 6.96.864 8.88 2.592 1.92 1.696 2.88 4.064 2.88 7.104V136h-5.712v-2.256a10.42 10.42 0 0 1-3.408 2.208c-1.248.512-2.784.768-4.608.768Zm1.488-4.416c1.344 0 2.56-.256 3.648-.768 1.088-.544 1.92-1.28 2.496-2.208v-2.544c-1.76-1.248-3.776-1.872-6.048-1.872-3.232 0-4.848 1.248-4.848 3.744 0 1.216.4 2.128 1.2 2.736.832.608 2.016.912 3.552.912Zm17.767-19.344h5.856v3.696c.928-1.248 2.24-2.176 3.936-2.784 1.728-.608 3.696-.912 5.904-.912v4.608c-2.336 0-4.368.368-6.096 1.104-1.696.704-2.88 1.824-3.552 3.36V136h-6.048v-23.04Zm31.841 23.76c-2.688 0-5.056-.48-7.104-1.44-2.016-.96-3.584-2.352-4.704-4.176-1.12-1.824-1.68-4.016-1.68-6.576 0-2.56.56-4.752 1.68-6.576 1.152-1.856 2.736-3.264 4.752-4.224 2.048-.992 4.432-1.488 7.152-1.488 3.584 0 6.448.704 8.592 2.112v4.848c-2.08-1.472-4.736-2.208-7.968-2.208-2.464 0-4.432.624-5.904 1.872-1.44 1.216-2.16 3.104-2.16 5.664 0 2.528.72 4.4 2.16 5.616 1.472 1.216 3.408 1.824 5.808 1.824 3.232 0 6.016-.768 8.352-2.304v4.8c-1.152.768-2.464 1.328-3.936 1.68-1.44.384-3.12.576-5.04.576Zm13.769-36.192h6.048v15.36c2.176-2.432 4.992-3.648 8.448-3.648 3.104 0 5.424.848 6.96 2.544 1.536 1.664 2.304 3.888 2.304 6.672V136h-6.048v-13.968c0-3.36-1.568-5.04-4.704-5.04a7.916 7.916 0 0 0-3.888 1.008c-1.216.64-2.24 1.616-3.072 2.928V136h-6.048v-35.472Z" fill="#F8E287"/></svg>
