<svg xmlns="http://www.w3.org/2000/svg" viewBox="0 0 225.869 38.71" height="146.304" width="853.677"><g style="line-height:1.25"><path style="-inkscape-font-specification:'Libre Franklin'" d="M26.772 9.042q-1.169-1.219-3.048-2.032-1.88-.812-4.42-.812-3.15 0-5.08 1.32-1.93 1.27-1.93 3.455 0 2.337 3.708 3.607l7.67 2.641q3.963 1.321 5.843 3.404t1.88 5.13q0 4.065-2.185 7.011-2.184 2.896-5.944 4.42-3.759 1.524-8.483 1.524-5.334 0-9.043-1.778Q2.032 35.102.203 31.8 0 31.445 0 31.09q0-.356.406-.61l4.014-2.438q.355-.254.762-.254.61 0 1.117.66 1.321 1.626 2.388 2.54 1.117.864 2.692 1.32 1.626.458 4.166.458 3.2 0 5.181-1.168 1.982-1.22 1.982-3.76 0-1.27-.915-2.082-.914-.864-2.946-1.575l-7.417-2.49q-3.658-1.219-5.588-3.555-1.88-2.388-1.88-5.436 0-3.76 2.134-6.655 2.134-2.895 5.69-4.47Q15.392 0 19.66 0q4.368 0 7.67 1.575 3.353 1.524 5.182 3.962.406.508.406.762t-.355.457l-4.521 2.998q-.051.05-.204.05-.304 0-1.066-.762zM47.281 38.71q-3.606 0-6.4-1.474-2.794-1.473-4.318-4.114-1.524-2.693-1.524-6.198 0-4.166 1.98-7.874 2.033-3.76 5.538-5.994 3.556-2.286 7.925-2.286 5.334 0 8.483 3.15 3.15 3.149 3.15 8.686 0 1.473-.203 2.845-.102.406-.356.61-.203.152-.813.152h-17.12q-.812 0-.812 2.184 0 2.388 1.524 3.709 1.575 1.27 4.064 1.27 1.93 0 3.607-.813 1.676-.813 3.302-2.54.254-.254.508-.254.152 0 .66.203l3.353 1.575q.61.203.61.66 0 .254-.254.66-2.947 3.303-5.893 4.573-2.896 1.27-7.01 1.27zm6.452-16.561q1.22 0 1.22-1.981 0-1.93-1.17-3.252-1.168-1.371-3.25-1.371-2.54 0-4.522 1.93-1.93 1.88-2.235 4.674zm25.956 13.563q-3.048 2.998-8.332 2.998-3.556 0-5.588-1.83-2.032-1.828-2.032-4.774 0-3.607 2.388-5.893 2.388-2.337 5.994-3.353 3.658-1.067 7.57-1.168l1.828-.153q.966 0 1.118-.965l.152-1.067q.051-.254.051-.813 0-3.048-3.505-3.048-4.013 0-5.944 3.15-.254.356-.66.356-.305 0-.457-.051l-4.928-1.169q-.508-.101-.508-.66 0-.508.254-1.016 3.353-5.486 12.65-5.486 5.486 0 8.026 1.93 2.59 1.93 2.59 5.334 0 .457-.101 1.473l-2.54 17.78q-.05.66-.203.813-.153.102-.711.102h-5.233q-.508 0-.66-.305-.153-.305-.203-1.016l.05-1.321q0-.406-.254-.406t-.812.558zm2.184-9.753v-.305q0-.203-.102-.254-.101-.102-.406-.05l-1.829.152q-2.946.203-5.486 1.473-2.54 1.27-2.54 3.911 0 1.22.863 1.982.915.71 2.439.71 1.32 0 2.489-.355 1.168-.406 2.032-1.067 1.88-1.422 2.083-2.895zm12.268 12.243q-.61 0-.914-.356-.254-.356-.153-.914l3.506-24.943q.05-.457.152-.559.152-.152.559-.152h6.045q.914 0 .711 1.066l-.355 2.286v.204q0 .355.203.355.152 0 .457-.305 1.778-1.88 3.962-2.997 2.185-1.117 3.963-1.117 1.067 0 1.575.152t.457.61l-.813 5.69q-.05.558-.203.71-.102.153-.407.102-1.727-.254-3.454-.254-1.32 0-2.794.711-1.473.66-2.54 1.778-1.016 1.067-1.168 2.134l-2.083 14.833q-.102.66-.356.813-.203.153-.965.153zm52.618-1.778q.457.812.457 1.219 0 .305-.254.457-.254.102-.762.102h-7.061q-.61 0-.965-.153-.305-.152-.508-.61l-5.64-11.734q-.253-.508-.507-.508-.153 0-.559.559l-9.042 11.836q-.254.406-.61.508-.305.102-1.067.102h-5.943q-1.016 0-1.016-.66 0-.458.762-1.525l13.004-16.307q.56-.61.56-1.066 0-.356-.102-.56l-8.484-16.56q-.152-.254-.152-.508 0-.508.762-.508h7.416q.66 0 .915.152.254.153.508.66l4.927 10.364q.153.406.356.406.203 0 .508-.406l8.026-10.566q.305-.407.56-.508.304-.102.964-.102h6.554q.61 0 .61.559 0 .406-.306.914l-12.598 15.647q-.508.66-.508.914 0 .203.152.508zM188.39.508q.356 0 .457.203.102.153.051.559l-5.13 36.373q-.051.355-.255.457-.152.102-.558.102h-5.182q-.66 0-1.168-.813L163.498 14.68q-.152-.254-.305-.254-.304 0-.355.559l-3.15 22.403q-.101.508-.305.66-.152.153-.71.153h-5.589q-.813 0-.711-1.118l5.08-35.814q.102-.508.203-.61.153-.152.66-.152h6.147q.508 0 .762.254.305.203.56.711l11.988 21.184q.254.406.508.406.406 0 .457-.61l2.947-21.285q.05-.406.203-.508.203-.152.66-.152zm18.327 38.202q-4.572 0-7.925-1.93-3.352-1.931-5.13-5.436-1.728-3.556-1.728-8.332 0-6.299 2.49-11.531 2.489-5.283 7.06-8.382Q206.058 0 212 0q4.064 0 7.163 1.575 3.15 1.575 4.877 4.165 1.727 2.54 1.829 5.436 0 .508-.102.762-.05.203-.254.254l-6.96 1.016h-.05q-.203 0-.356-.254-.101-.254-.254-1.016-.355-2.54-1.93-4.115-1.524-1.575-4.318-1.575-3.607 0-5.995 2.642-2.336 2.642-3.454 6.807-1.118 4.115-1.118 8.585 0 4.37 1.626 6.3 1.676 1.88 4.877 1.88 3.099 0 5.232-1.728 2.134-1.727 3.15-4.216l.305-1.423q.152-.254.152-.355 0-.305-.61-.305h-6.248q-.305 0-.406-.102-.102-.152-.051-.559l.457-4.165q.05-.559.508-.559l14.529.05q.61 0 .762.204.203.152.101.66l-2.489 17.577q-.05.66-.813.66h-1.524q-.457 0-.71-.152-.204-.152-.356-.61l-.864-3.708q-.05-.254-.356-.254-.304 0-.66.407-1.676 2.082-4.369 3.454-2.692 1.372-6.604 1.372z" aria-label="SearXNG" font-weight="400" font-size="50.8" font-family="Libre Franklin" fill="#487cff"/></g></svg>