<?xml version="1.0" standalone="no"?>
<!DOCTYPE svg PUBLIC "-//W3C//DTD SVG 20010904//EN"
 "http://www.w3.org/TR/2001/REC-SVG-20010904/DTD/svg10.dtd">
<svg version="1.0" xmlns="http://www.w3.org/2000/svg"
 width="640.000000pt" height="110.000000pt" viewBox="0 0 640.000000 110.000000"
 preserveAspectRatio="xMidYMid meet">

<g transform="translate(0.000000,110.000000) scale(0.100000,-0.100000)"
fill="#000000" stroke="none">
<path d="M1510 995 l0 -75 95 0 95 0 0 75 0 75 -95 0 -95 0 0 -75z"/>
<path d="M450 936 l0 -86 104 0 c57 0 118 -3 135 -6 l32 -7 -3 79 -3 78 -34 7
c-19 4 -78 10 -132 14 l-99 7 0 -86z"/>
<path d="M307 995 c-40 -14 -82 -47 -99 -78 -19 -36 -28 -134 -19 -203 17
-118 55 -147 222 -171 63 -8 120 -20 127 -26 8 -7 12 -48 12 -144 l0 -135 43
7 c68 12 114 41 139 88 20 37 23 57 23 157 0 181 -26 208 -221 235 -60 8 -115
17 -121 20 -10 3 -13 40 -13 135 l0 130 -27 0 c-16 -1 -45 -7 -66 -15z"/>
<path d="M3420 630 l0 -380 110 0 110 0 0 380 0 380 -110 0 -110 0 0 -380z"/>
<path d="M3840 865 l0 -145 -75 0 -75 0 0 -90 0 -90 75 0 75 0 0 -145 0 -145
110 0 110 0 0 380 0 380 -110 0 -110 0 0 -145z"/>
<path d="M1174 811 c-51 -13 -54 -18 -54 -92 0 -65 1 -69 23 -69 40 0 47 -18
47 -116 0 -112 -4 -124 -41 -124 l-29 0 0 -70 c0 -83 12 -94 105 -95 119 0
156 56 163 255 7 197 -24 287 -107 310 -40 11 -62 11 -107 1z"/>
<path d="M2070 744 l0 -79 75 -2 75 -1 0 68 c0 77 7 71 -102 86 l-48 6 0 -78z"/>
<path d="M2580 751 c0 -69 1 -71 25 -71 28 0 45 -25 45 -69 0 -29 -3 -31 -35
-31 l-35 0 0 -50 0 -50 131 0 131 0 -7 103 c-8 119 -17 156 -48 185 -30 28
-61 39 -140 47 l-67 7 0 -71z"/>
<path d="M3269 811 c-67 -21 -69 -25 -69 -116 l0 -84 28 15 c15 7 44 14 65 14
l37 0 0 90 c0 98 -1 99 -61 81z"/>
<path d="M4308 811 c-49 -10 -84 -34 -105 -74 -15 -27 -18 -58 -18 -202 0
-152 2 -174 20 -203 26 -43 84 -69 173 -78 l72 -7 0 77 c0 68 -2 76 -19 76
-47 0 -51 19 -51 226 0 216 6 200 -72 185z"/>
<path d="M4430 748 l0 -74 32 -9 c42 -13 47 -37 47 -253 l1 -164 43 7 c127 21
147 57 147 275 0 132 -3 161 -20 198 -24 53 -73 77 -177 88 l-73 7 0 -75z"/>
<path d="M5105 805 c-22 -8 -41 -15 -42 -15 -2 0 -3 -31 -3 -70 0 -67 1 -70
24 -70 13 0 27 -7 30 -16 3 -9 6 -99 6 -200 l0 -184 95 0 95 0 0 223 c0 236
-6 281 -43 316 -31 29 -108 36 -162 16z"/>
<path d="M5412 811 c-37 -10 -74 -39 -66 -53 3 -5 9 -30 12 -56 6 -38 11 -47
32 -52 l25 -6 3 -197 2 -197 101 0 101 0 -4 233 c-3 249 -7 271 -58 309 -29
21 -101 30 -148 19z"/>
<path d="M5980 751 c0 -69 1 -71 25 -71 28 0 45 -25 45 -69 0 -29 -3 -31 -35
-31 l-35 0 0 -50 0 -50 131 0 131 0 -7 103 c-8 119 -17 156 -48 185 -30 28
-61 39 -140 47 l-67 7 0 -71z"/>
<path d="M880 420 l0 -390 95 0 95 0 0 390 0 390 -95 0 -95 0 0 -390z"/>
<path d="M1510 530 l0 -280 95 0 95 0 0 280 0 280 -95 0 -95 0 0 -280z"/>
<path d="M1936 800 c-35 -11 -72 -45 -94 -85 -21 -39 -29 -270 -13 -333 15
-54 62 -107 109 -124 41 -14 195 -17 255 -5 l37 8 0 67 0 68 -84 -1 c-129 0
-126 -5 -126 227 l0 188 -27 -1 c-16 0 -41 -5 -57 -9z"/>
<path d="M2420 788 c-71 -36 -84 -69 -88 -222 -5 -160 6 -221 51 -263 18 -17
50 -36 72 -44 46 -15 189 -18 288 -6 l67 9 0 67 0 68 -122 -4 c-173 -7 -162
-22 -166 221 l-3 196 -27 0 c-15 0 -48 -10 -72 -22z"/>
<path d="M2960 530 l0 -280 95 0 95 0 0 280 0 280 -95 0 -95 0 0 -280z"/>
<path d="M4820 530 l0 -280 95 0 95 0 0 280 0 280 -95 0 -95 0 0 -280z"/>
<path d="M5820 788 c-71 -36 -84 -69 -88 -222 -5 -160 6 -221 51 -263 18 -17
50 -36 72 -44 46 -15 189 -18 288 -6 l67 9 0 67 0 68 -122 -4 c-173 -7 -162
-22 -166 221 l-3 196 -27 0 c-15 0 -48 -10 -72 -22z"/>
<path d="M210 339 l0 -77 33 -5 c17 -3 83 -9 145 -13 l112 -7 0 86 0 86 -145
3 -145 3 0 -76z"/>
</g>
</svg>
