<?xml version="1.0" encoding="UTF-8"?>
<!DOCTYPE svg PUBLIC "-//W3C//DTD SVG 1.1//EN" "http://www.w3.org/Graphics/SVG/1.1/DTD/svg11.dtd">
<svg xmlns="http://www.w3.org/2000/svg" version="1.1" width="780px" height="412px" style="shape-rendering:geometricPrecision; text-rendering:geometricPrecision; image-rendering:optimizeQuality; fill-rule:evenodd; clip-rule:evenodd" xmlns:xlink="http://www.w3.org/1999/xlink">
<g><path style="opacity:1" fill="#fefefe" d="M -0.5,-0.5 C 259.5,-0.5 519.5,-0.5 779.5,-0.5C 779.5,136.833 779.5,274.167 779.5,411.5C 519.5,411.5 259.5,411.5 -0.5,411.5C -0.5,274.167 -0.5,136.833 -0.5,-0.5 Z"/></g>
<g><path style="opacity:1" fill="#2a66ca" d="M 409.5,48.5 C 424.304,52.069 437.637,58.569 449.5,68C 451.227,69.3894 452.561,71.0561 453.5,73C 447.522,80.3115 440.855,86.9782 433.5,93C 432.5,93.6667 431.5,93.6667 430.5,93C 426.235,90.7126 422.235,88.2126 418.5,85.5C 418.047,84.5416 417.381,83.7083 416.5,83C 402.787,76.6644 388.454,73.9978 373.5,75C 372.944,75.3826 372.611,75.8826 372.5,76.5C 354.559,79.8115 340.559,89.1448 330.5,104.5C 328.674,106.147 327.34,108.147 326.5,110.5C 326.5,110.833 326.5,111.167 326.5,111.5C 324.755,113.033 323.755,115.033 323.5,117.5C 321.723,120.505 320.723,123.838 320.5,127.5C 319.011,131.236 318.344,135.236 318.5,139.5C 300.167,139.5 281.833,139.5 263.5,139.5C 263.5,129.167 263.5,118.833 263.5,108.5C 273.889,109.141 283.889,108.474 293.5,106.5C 294.939,104.412 295.606,102.079 295.5,99.5C 295.66,97.847 296.326,96.5137 297.5,95.5C 299.408,94.5144 300.408,92.8477 300.5,90.5C 310.522,72.9837 324.856,60.317 343.5,52.5C 349.92,51.2102 356.254,49.7102 362.5,48C 363.381,47.2917 364.047,46.4584 364.5,45.5C 373.154,44.6303 381.82,44.4637 390.5,45C 396.824,46.3323 403.157,47.4989 409.5,48.5 Z"/></g>
<g><path style="opacity:1" fill="#4872bd" d="M 409.5,48.5 C 403.157,47.4989 396.824,46.3323 390.5,45C 381.82,44.4637 373.154,44.6303 364.5,45.5C 366.292,44.6909 368.292,44.1909 370.5,44C 378.5,43.3333 386.5,43.3333 394.5,44C 399.859,44.7237 404.859,46.2237 409.5,48.5 Z"/></g>
<g><path style="opacity:1" fill="#4872bf" d="M 364.5,45.5 C 364.047,46.4584 363.381,47.2917 362.5,48C 356.254,49.7102 349.92,51.2102 343.5,52.5C 349.906,48.8525 356.906,46.5192 364.5,45.5 Z"/></g>
<g><path style="opacity:1" fill="#4670be" d="M 418.5,85.5 C 403.861,79.0075 388.528,76.0075 372.5,76.5C 372.611,75.8826 372.944,75.3826 373.5,75C 388.454,73.9978 402.787,76.6644 416.5,83C 417.381,83.7083 418.047,84.5416 418.5,85.5 Z"/></g>
<g><path style="opacity:1" fill="#7596d4" d="M 300.5,90.5 C 300.408,92.8477 299.408,94.5144 297.5,95.5C 297.75,93.326 298.75,91.6594 300.5,90.5 Z"/></g>
<g><path style="opacity:1" fill="#80a0da" d="M 295.5,99.5 C 295.606,102.079 294.939,104.412 293.5,106.5C 293.167,106.5 292.833,106.5 292.5,106.5C 292.935,103.843 293.935,101.509 295.5,99.5 Z"/></g>
<g><path style="opacity:1" fill="#8aa9de" d="M 330.5,104.5 C 330.155,107.198 328.822,109.198 326.5,110.5C 327.34,108.147 328.674,106.147 330.5,104.5 Z"/></g>
<g><path style="opacity:1" fill="#557bc2" d="M 397.5,111.5 C 389.507,110.205 381.507,110.205 373.5,111.5C 377.227,109.194 381.394,108.194 386,108.5C 389.57,108.544 393.07,109.044 396.5,110C 397.056,110.383 397.389,110.883 397.5,111.5 Z"/></g>
<g><path style="opacity:1" fill="#2a66ca" d="M 397.5,111.5 C 403.857,113.173 408.857,116.839 412.5,122.5C 416.093,129.315 417.426,136.649 416.5,144.5C 414.34,154.659 408.34,161.325 398.5,164.5C 394.316,165.874 389.982,166.54 385.5,166.5C 380.397,165.907 375.397,164.907 370.5,163.5C 364.181,160.679 359.681,156.013 357,149.5C 356.187,147.564 355.687,145.564 355.5,143.5C 355.454,135.272 357.454,127.605 361.5,120.5C 364.363,115.968 368.363,112.968 373.5,111.5C 381.507,110.205 389.507,110.205 397.5,111.5 Z"/></g>
<g><path style="opacity:1" fill="#88a8e1" d="M 326.5,111.5 C 326.245,113.967 325.245,115.967 323.5,117.5C 323.755,115.033 324.755,113.033 326.5,111.5 Z"/></g>
<g><path style="opacity:1" fill="#8fade3" d="M 323.5,117.5 C 323.277,121.162 322.277,124.495 320.5,127.5C 320.723,123.838 321.723,120.505 323.5,117.5 Z"/></g>
<g><path style="opacity:1" fill="#7e9ed8" d="M 412.5,122.5 C 414.708,123.894 416.208,125.894 417,128.5C 417.817,134.016 417.651,139.35 416.5,144.5C 417.426,136.649 416.093,129.315 412.5,122.5 Z"/></g>
<g><path style="opacity:1" fill="#6e91d4" d="M 361.5,120.5 C 357.454,127.605 355.454,135.272 355.5,143.5C 352.771,134.551 354.771,126.884 361.5,120.5 Z"/></g>
<g><path style="opacity:1" fill="#2b66ca" d="M 478.5,170.5 C 476.796,173.256 475.463,176.256 474.5,179.5C 471.759,182.686 469.759,186.353 468.5,190.5C 467.662,190.842 467.328,191.508 467.5,192.5C 465.413,193.585 464.08,195.251 463.5,197.5C 449.351,214.585 431.351,225.585 409.5,230.5C 402.844,231.846 396.011,232.513 389,232.5C 380.29,231.297 371.456,230.297 362.5,229.5C 354.445,227.81 346.778,224.976 339.5,221C 331.31,216.406 323.643,211.073 316.5,205C 323.715,197.283 331.381,190.117 339.5,183.5C 358.799,198.263 380.465,203.596 404.5,199.5C 407.522,199.196 410.522,198.696 413.5,198C 415.063,197.241 416.063,196.074 416.5,194.5C 433.923,184.08 445.256,169.08 450.5,149.5C 451.267,145.711 452.267,141.877 453.5,138C 470.497,137.5 487.497,137.333 504.5,137.5C 504.5,148.167 504.5,158.833 504.5,169.5C 495.651,169.174 486.984,169.507 478.5,170.5 Z"/></g>
<g><path style="opacity:1" fill="#5d80c0" d="M 478.5,170.5 C 486.984,169.507 495.651,169.174 504.5,169.5C 504.5,158.833 504.5,148.167 504.5,137.5C 487.497,137.333 470.497,137.5 453.5,138C 452.267,141.877 451.267,145.711 450.5,149.5C 450.467,145.131 450.8,140.798 451.5,136.5C 469.833,136.5 488.167,136.5 506.5,136.5C 506.5,147.833 506.5,159.167 506.5,170.5C 497.167,170.5 487.833,170.5 478.5,170.5 Z"/></g>
<g><path style="opacity:1" fill="#4a72bd" d="M 292.5,106.5 C 292.833,106.5 293.167,106.5 293.5,106.5C 283.889,108.474 273.889,109.141 263.5,108.5C 263.5,118.833 263.5,129.167 263.5,139.5C 281.833,139.5 300.167,139.5 318.5,139.5C 300.007,140.497 281.341,140.83 262.5,140.5C 262.5,129.5 262.5,118.5 262.5,107.5C 272.319,106.506 282.319,106.173 292.5,106.5 Z"/></g>
<g><path style="opacity:1" fill="#93b4e9" d="M 262.5,107.5 C 262.5,118.5 262.5,129.5 262.5,140.5C 281.341,140.83 300.007,140.497 318.5,139.5C 318.344,135.236 319.011,131.236 320.5,127.5C 320.331,132.181 319.998,136.848 319.5,141.5C 300.167,141.5 280.833,141.5 261.5,141.5C 261.172,129.988 261.505,118.654 262.5,107.5 Z"/></g>
<g><path style="opacity:1" fill="#4973bf" d="M 370.5,163.5 C 375.397,164.907 380.397,165.907 385.5,166.5C 389.982,166.54 394.316,165.874 398.5,164.5C 394.881,167.008 390.714,168.008 386,167.5C 380.151,168.212 374.984,166.879 370.5,163.5 Z"/></g>
<g><path style="opacity:1" fill="#9db8e7" d="M 474.5,179.5 C 473.821,182.707 472.654,185.707 471,188.5C 470.292,189.381 469.458,190.047 468.5,190.5C 469.759,186.353 471.759,182.686 474.5,179.5 Z"/></g>
<g><path style="opacity:1" fill="#a9c2ed" d="M 467.5,192.5 C 466.92,194.749 465.587,196.415 463.5,197.5C 464.08,195.251 465.413,193.585 467.5,192.5 Z"/></g>
<g><path style="opacity:1" fill="#5479c1" d="M 416.5,194.5 C 416.063,196.074 415.063,197.241 413.5,198C 410.522,198.696 407.522,199.196 404.5,199.5C 408.424,197.853 412.424,196.186 416.5,194.5 Z"/></g>
<g><path style="opacity:1" fill="#4b73be" d="M 362.5,229.5 C 371.456,230.297 380.29,231.297 389,232.5C 396.011,232.513 402.844,231.846 409.5,230.5C 407.189,232.068 404.522,232.902 401.5,233C 392.5,233.667 383.5,233.667 374.5,233C 370.11,232.741 366.11,231.574 362.5,229.5 Z"/></g>
<g><path style="opacity:1" fill="#6e6e6e" d="M 313.5,272.5 C 313.184,299.878 313.517,327.211 314.5,354.5C 313.883,354.389 313.383,354.056 313,353.5C 312.17,326.33 312.336,299.33 313.5,272.5 Z"/></g>
<g><path style="opacity:1" fill="#363636" d="M 313.5,272.5 C 318.833,272.5 324.167,272.5 329.5,272.5C 329.5,299.167 329.5,325.833 329.5,352.5C 331.167,352.5 332.833,352.5 334.5,352.5C 334.263,353.791 334.596,354.791 335.5,355.5C 335.5,357.167 335.5,358.833 335.5,360.5C 330.537,361.496 325.537,361.663 320.5,361C 317.614,359.615 315.614,357.449 314.5,354.5C 313.517,327.211 313.184,299.878 313.5,272.5 Z"/></g>
<g><path style="opacity:1" fill="#3a6aba" d="M 683.5,272.5 C 683.5,272.833 683.5,273.167 683.5,273.5C 678.833,273.5 674.167,273.5 669.5,273.5C 669.5,301.833 669.5,330.167 669.5,358.5C 674.167,358.5 678.833,358.5 683.5,358.5C 683.171,343.99 683.504,329.657 684.5,315.5C 684.5,330.167 684.5,344.833 684.5,359.5C 679.167,359.5 673.833,359.5 668.5,359.5C 668.5,330.5 668.5,301.5 668.5,272.5C 673.5,272.5 678.5,272.5 683.5,272.5 Z"/></g>
<g><path style="opacity:1" fill="#2966ca" d="M 683.5,273.5 C 683.168,283.855 683.501,294.188 684.5,304.5C 685.107,304.376 685.44,304.043 685.5,303.5C 686.167,303.5 686.5,303.167 686.5,302.5C 688.05,301.559 689.716,300.893 691.5,300.5C 698.5,300.5 705.5,300.5 712.5,300.5C 716.188,302.188 718.855,304.855 720.5,308.5C 720.372,310.655 720.872,312.655 722,314.5C 722.5,329.163 722.667,343.83 722.5,358.5C 717.5,358.5 712.5,358.5 707.5,358.5C 707.667,344.163 707.5,329.829 707,315.5C 706.617,314.944 706.117,314.611 705.5,314.5C 704.216,310.432 701.383,308.432 697,308.5C 691.866,309.149 687.699,311.483 684.5,315.5C 683.504,329.657 683.171,343.99 683.5,358.5C 678.833,358.5 674.167,358.5 669.5,358.5C 669.5,330.167 669.5,301.833 669.5,273.5C 674.167,273.5 678.833,273.5 683.5,273.5 Z"/></g>
<g><path style="opacity:1" fill="#5887d6" d="M 683.5,272.5 C 683.833,272.5 684.167,272.5 684.5,272.5C 684.172,283.014 684.506,293.347 685.5,303.5C 685.44,304.043 685.107,304.376 684.5,304.5C 683.501,294.188 683.168,283.855 683.5,273.5C 683.5,273.167 683.5,272.833 683.5,272.5 Z"/></g>
<g><path style="opacity:1" fill="#bdd5fb" d="M 684.5,272.5 C 685.167,282.5 685.833,292.5 686.5,302.5C 686.5,303.167 686.167,303.5 685.5,303.5C 684.506,293.347 684.172,283.014 684.5,272.5 Z"/></g>
<g><path style="opacity:1" fill="#373737" d="M 388.5,343.5 C 389.638,340.696 389.805,337.696 389,334.5C 388.34,332.676 387.173,331.343 385.5,330.5C 376.871,325.519 367.871,321.019 358.5,317C 354.592,314.594 351.592,311.428 349.5,307.5C 348.8,303.202 348.467,298.869 348.5,294.5C 352.369,285.209 359.369,279.709 369.5,278C 381.601,276.147 392.435,278.981 402,286.5C 402.667,287.167 402.667,287.833 402,288.5C 399.645,290.855 397.312,293.188 395,295.5C 392.428,293.794 389.928,291.961 387.5,290C 379.612,285.844 372.446,286.677 366,292.5C 364.241,299.009 365.741,304.509 370.5,309C 378.084,312.528 385.751,315.861 393.5,319C 407.872,327.08 410.372,337.913 401,351.5C 394.328,358.344 386.161,361.678 376.5,361.5C 366.757,361.456 357.757,358.956 349.5,354C 347.981,352.649 346.648,351.149 345.5,349.5C 347.942,346.271 350.608,343.271 353.5,340.5C 359.5,346.833 366.833,350.499 375.5,351.5C 381.65,351.6 385.983,348.933 388.5,343.5 Z"/></g>
<g><path style="opacity:1" fill="#333333" d="M 45.5,279.5 C 50.8333,279.5 56.1667,279.5 61.5,279.5C 61.5,303.167 61.5,326.833 61.5,350.5C 73.1667,350.5 84.8333,350.5 96.5,350.5C 96.5,353.5 96.5,356.5 96.5,359.5C 79.5,359.5 62.5,359.5 45.5,359.5C 45.5,332.833 45.5,306.167 45.5,279.5 Z"/></g>
<g><path style="opacity:1" fill="#8eaee4" d="M 684.5,272.5 C 684.167,272.5 683.833,272.5 683.5,272.5C 678.5,272.5 673.5,272.5 668.5,272.5C 668.5,301.5 668.5,330.5 668.5,359.5C 673.833,359.5 679.167,359.5 684.5,359.5C 679.025,360.489 673.358,360.822 667.5,360.5C 667.5,330.833 667.5,301.167 667.5,271.5C 673.358,271.178 679.025,271.511 684.5,272.5 Z"/></g>
<g><path style="opacity:1" fill="#363636" d="M 165.5,316.5 C 167.659,324.076 167.992,331.743 166.5,339.5C 160.101,356.38 147.768,363.547 129.5,361C 116.722,357.058 109.055,348.558 106.5,335.5C 106.152,329.013 106.818,322.68 108.5,316.5C 119.026,298.052 134.026,293.552 153.5,303C 158.856,306.509 162.856,311.009 165.5,316.5 Z"/></g>
<g><path style="opacity:1" fill="#363636" d="M 197.5,319.5 C 195.981,322.526 195.315,325.859 195.5,329.5C 195.503,332.025 195.837,334.359 196.5,336.5C 201.492,354.013 210.992,357.013 225,345.5C 228.403,347.562 230.069,350.562 230,354.5C 217.199,363.025 204.032,363.525 190.5,356C 184.629,350.759 180.962,344.259 179.5,336.5C 179.064,329.683 179.731,323.016 181.5,316.5C 185.325,308.85 191.325,303.35 199.5,300C 210.098,296.924 219.931,298.424 229,304.5C 227.866,308.047 225.699,311.047 222.5,313.5C 211.423,304.082 203.09,306.082 197.5,319.5 Z"/></g>
<g><path style="opacity:1" fill="#363636" d="M 291.5,309.5 C 291.372,311.655 291.872,313.655 293,315.5C 293.5,330.163 293.667,344.83 293.5,359.5C 288.833,359.5 284.167,359.5 279.5,359.5C 279.762,358.022 279.429,356.689 278.5,355.5C 268.645,362.349 258.312,363.182 247.5,358C 237.599,347.798 238.266,338.465 249.5,330C 257.99,325.538 266.99,323.038 276.5,322.5C 277.156,321.378 277.489,320.045 277.5,318.5C 277.639,316.117 276.972,314.117 275.5,312.5C 273.624,309.057 270.624,307.39 266.5,307.5C 260.272,308.447 254.605,310.78 249.5,314.5C 247.333,312.17 245.666,309.503 244.5,306.5C 255.377,298.562 267.377,296.395 280.5,300C 285.473,301.796 289.139,304.963 291.5,309.5 Z"/></g>
<g><path style="opacity:1" fill="#909090" d="M 348.5,294.5 C 348.467,298.869 348.8,303.202 349.5,307.5C 347.967,305.366 347.3,302.866 347.5,300C 347.506,297.967 347.839,296.134 348.5,294.5 Z"/></g>
<g><path style="opacity:1" fill="#3f6bb9" d="M 596.5,300.5 C 591.167,300.5 585.833,300.5 580.5,300.5C 582.807,298.953 585.473,298.287 588.5,298.5C 591.527,298.287 594.193,298.953 596.5,300.5 Z"/></g>
<g><path style="opacity:1" fill="#3e6bb9" d="M 712.5,300.5 C 705.5,300.5 698.5,300.5 691.5,300.5C 694.526,298.981 697.859,298.315 701.5,298.5C 705.447,298.363 709.114,299.03 712.5,300.5 Z"/></g>
<g><path style="opacity:1" fill="#3068c8" d="M 472.5,314.5 C 472.5,320.167 472.5,325.833 472.5,331.5C 459.323,331.171 446.323,331.505 433.5,332.5C 433.232,334.099 433.566,335.432 434.5,336.5C 439.565,353.589 449.732,357.256 465,347.5C 469.567,348.803 471.067,351.636 469.5,356C 465.394,358.202 461.061,359.702 456.5,360.5C 449.441,360.336 442.441,359.67 435.5,358.5C 425.073,354.395 419.073,346.729 417.5,335.5C 417.232,329.044 417.899,322.711 419.5,316.5C 421.369,314.966 422.702,312.966 423.5,310.5C 431.161,300.106 441.494,296.273 454.5,299C 463.474,300.813 469.474,305.98 472.5,314.5 Z"/></g>
<g><path style="opacity:1" fill="#2e67c8" d="M 536.5,310.5 C 536.259,312.898 536.926,314.898 538.5,316.5C 538.5,330.833 538.5,345.167 538.5,359.5C 533.5,359.5 528.5,359.5 523.5,359.5C 523.5,358.5 523.5,357.5 523.5,356.5C 521.079,356.878 518.746,357.545 516.5,358.5C 512.742,359.396 508.909,360.062 505,360.5C 501.814,360.256 498.647,359.923 495.5,359.5C 492.236,357.906 489.569,355.573 487.5,352.5C 485.998,348.658 485.332,344.658 485.5,340.5C 489.629,332.246 496.295,327.08 505.5,325C 510.792,323.84 516.125,323.007 521.5,322.5C 522.152,321.551 522.486,320.385 522.5,319C 522.607,316.779 521.94,314.946 520.5,313.5C 519.08,309.281 516.08,307.281 511.5,307.5C 506.198,308.405 501.198,310.072 496.5,312.5C 495.325,312.719 494.325,312.386 493.5,311.5C 492.294,309.851 490.961,308.351 489.5,307C 490.942,306.623 491.942,305.79 492.5,304.5C 501.315,298.912 510.982,297.079 521.5,299C 525.544,299.856 529.211,301.522 532.5,304C 534.734,305.638 536.067,307.805 536.5,310.5 Z"/></g>
<g><path style="opacity:1" fill="#2966ca" d="M 580.5,300.5 C 585.833,300.5 591.167,300.5 596.5,300.5C 596.037,303.482 595.704,306.482 595.5,309.5C 584.974,306.595 577.974,310.262 574.5,320.5C 573.883,320.611 573.383,320.944 573,321.5C 572.5,333.829 572.333,346.162 572.5,358.5C 568.167,358.5 563.833,358.5 559.5,358.5C 559.5,339.833 559.5,321.167 559.5,302.5C 563.167,302.5 566.833,302.5 570.5,302.5C 570.5,304.167 570.5,305.833 570.5,307.5C 571.93,307.579 573.264,307.246 574.5,306.5C 576.27,304.063 578.27,302.063 580.5,300.5 Z"/></g>
<g><path style="opacity:1" fill="#3068c8" d="M 622.5,316.5 C 621.778,316.918 621.278,317.584 621,318.5C 618.854,326.038 619.021,333.372 621.5,340.5C 627.618,354.209 636.285,356.042 647.5,346C 648.784,345.316 649.951,345.483 651,346.5C 652.665,349.078 653.665,351.745 654,354.5C 650.053,357.723 645.553,359.723 640.5,360.5C 634.464,360.64 628.464,360.307 622.5,359.5C 618.054,358.694 614.221,356.694 611,353.5C 607.709,349.252 605.209,344.585 603.5,339.5C 603.062,331.353 603.729,323.353 605.5,315.5C 614.356,300.419 627.356,295.252 644.5,300C 648.163,300.845 651.163,302.678 653.5,305.5C 652.185,307.316 650.685,308.983 649,310.5C 648.517,311.448 648.351,312.448 648.5,313.5C 644.053,311.07 639.386,309.07 634.5,307.5C 628.749,308.26 624.749,311.26 622.5,316.5 Z"/></g>
<g><path style="opacity:1" fill="#5c81c8" d="M 492.5,304.5 C 491.942,305.79 490.942,306.623 489.5,307C 490.961,308.351 492.294,309.851 493.5,311.5C 494.325,312.386 495.325,312.719 496.5,312.5C 494.802,315.124 492.969,315.124 491,312.5C 490.576,310.485 489.742,308.651 488.5,307C 489.356,305.405 490.689,304.572 492.5,304.5 Z"/></g>
<g><path style="opacity:1" fill="#fafafa" d="M 147.5,315.5 C 149.703,324.415 150.036,333.415 148.5,342.5C 145.453,350.69 139.787,353.523 131.5,351C 125.323,345.144 122.656,337.978 123.5,329.5C 122.15,321.042 124.817,314.208 131.5,309C 138.751,306.459 144.084,308.626 147.5,315.5 Z"/></g>
<g><path style="opacity:1" fill="#fbfdfe" d="M 458.5,316.5 C 458.5,319.167 458.5,321.833 458.5,324.5C 450.5,324.5 442.5,324.5 434.5,324.5C 434.756,321.402 435.422,318.402 436.5,315.5C 436.5,315.167 436.5,314.833 436.5,314.5C 437.906,314.027 438.573,313.027 438.5,311.5C 447.293,304.928 453.96,306.595 458.5,316.5 Z"/></g>
<g><path style="opacity:1" fill="#96b3e7" d="M 438.5,311.5 C 438.573,313.027 437.906,314.027 436.5,314.5C 436.427,312.973 437.094,311.973 438.5,311.5 Z"/></g>
<g><path style="opacity:1" fill="#6e90cf" d="M 423.5,310.5 C 422.702,312.966 421.369,314.966 419.5,316.5C 419.845,313.802 421.178,311.802 423.5,310.5 Z"/></g>
<g><path style="opacity:1" fill="#86a5db" d="M 536.5,310.5 C 538.074,312.102 538.741,314.102 538.5,316.5C 536.926,314.898 536.259,312.898 536.5,310.5 Z"/></g>
<g><path style="opacity:1" fill="#4a76c8" d="M 574.5,304.5 C 575.802,302.178 577.802,300.845 580.5,300.5C 578.27,302.063 576.27,304.063 574.5,306.5C 573.264,307.246 571.93,307.579 570.5,307.5C 570.5,305.833 570.5,304.167 570.5,302.5C 566.833,302.5 563.167,302.5 559.5,302.5C 559.5,321.167 559.5,339.833 559.5,358.5C 563.833,358.5 568.167,358.5 572.5,358.5C 572.333,346.162 572.5,333.829 573,321.5C 573.383,320.944 573.883,320.611 574.5,320.5C 574.667,333.504 574.5,346.504 574,359.5C 568.401,360.825 562.901,360.825 557.5,359.5C 557.5,339.833 557.5,320.167 557.5,300.5C 562.167,300.5 566.833,300.5 571.5,300.5C 571.5,302.167 571.5,303.833 571.5,305.5C 572.791,305.737 573.791,305.404 574.5,304.5 Z"/></g>
<g><path style="opacity:1" fill="#a0a0a0" d="M 275.5,312.5 C 276.972,314.117 277.639,316.117 277.5,318.5C 277.489,320.045 277.156,321.378 276.5,322.5C 276.384,319.14 276.051,315.807 275.5,312.5 Z"/></g>
<g><path style="opacity:1" fill="#88abe7" d="M 520.5,313.5 C 521.94,314.946 522.607,316.779 522.5,319C 522.486,320.385 522.152,321.551 521.5,322.5C 521.296,319.482 520.963,316.482 520.5,313.5 Z"/></g>
<g><path style="opacity:1" fill="#868686" d="M 291.5,309.5 C 292.793,310.842 293.626,312.509 294,314.5C 294.5,329.83 294.667,345.163 294.5,360.5C 289.305,360.821 284.305,360.487 279.5,359.5C 284.167,359.5 288.833,359.5 293.5,359.5C 293.667,344.83 293.5,330.163 293,315.5C 291.872,313.655 291.372,311.655 291.5,309.5 Z"/></g>
<g><path style="opacity:1" fill="#afc8f3" d="M 436.5,315.5 C 435.422,318.402 434.756,321.402 434.5,324.5C 442.5,324.5 450.5,324.5 458.5,324.5C 458.5,321.833 458.5,319.167 458.5,316.5C 459.477,319.287 459.81,322.287 459.5,325.5C 450.833,325.5 442.167,325.5 433.5,325.5C 433.025,321.584 434.025,318.251 436.5,315.5 Z"/></g>
<g><path style="opacity:1" fill="#789ad5" d="M 605.5,315.5 C 603.729,323.353 603.062,331.353 603.5,339.5C 602.346,333.013 602.179,326.346 603,319.5C 603.608,317.934 604.442,316.6 605.5,315.5 Z"/></g>
<g><path style="opacity:1" fill="#d0d0d0" d="M 329.5,272.5 C 330.498,298.661 330.831,324.995 330.5,351.5C 332.167,351.5 333.833,351.5 335.5,351.5C 335.5,352.833 335.5,354.167 335.5,355.5C 334.596,354.791 334.263,353.791 334.5,352.5C 332.833,352.5 331.167,352.5 329.5,352.5C 329.5,325.833 329.5,299.167 329.5,272.5 Z"/></g>
<g><path style="opacity:1" fill="#cadcf5" d="M 622.5,316.5 C 621.635,324.466 621.302,332.466 621.5,340.5C 619.021,333.372 618.854,326.038 621,318.5C 621.278,317.584 621.778,316.918 622.5,316.5 Z"/></g>
<g><path style="opacity:1" fill="#5178be" d="M 705.5,314.5 C 706.117,314.611 706.617,314.944 707,315.5C 707.5,329.829 707.667,344.163 707.5,358.5C 712.5,358.5 717.5,358.5 722.5,358.5C 722.5,358.833 722.5,359.167 722.5,359.5C 717.36,360.488 712.026,360.821 706.5,360.5C 706.802,345.119 706.469,329.785 705.5,314.5 Z"/></g>
<g><path style="opacity:1" fill="#909090" d="M 181.5,316.5 C 179.731,323.016 179.064,329.683 179.5,336.5C 178.349,331.35 178.183,326.016 179,320.5C 179.2,318.68 180.034,317.347 181.5,316.5 Z"/></g>
<g><path style="opacity:1" fill="#8a8a8a" d="M 197.5,319.5 C 196.708,325.13 196.375,330.797 196.5,336.5C 195.837,334.359 195.503,332.025 195.5,329.5C 195.315,325.859 195.981,322.526 197.5,319.5 Z"/></g>
<g><path style="opacity:1" fill="#a9c3ef" d="M 419.5,316.5 C 417.899,322.711 417.232,329.044 417.5,335.5C 415.826,328.942 416.492,322.609 419.5,316.5 Z"/></g>
<g><path style="opacity:1" fill="#969696" d="M 108.5,316.5 C 106.818,322.68 106.152,329.013 106.5,335.5C 105.352,331.019 105.185,326.352 106,321.5C 106.374,319.509 107.207,317.842 108.5,316.5 Z"/></g>
<g><path style="opacity:1" fill="#a8a8a8" d="M 165.5,316.5 C 167.867,320.401 168.867,324.734 168.5,329.5C 168.685,333.141 168.019,336.474 166.5,339.5C 167.992,331.743 167.659,324.076 165.5,316.5 Z"/></g>
<g><path style="opacity:1" fill="#bfbfbf" d="M 147.5,315.5 C 148.966,316.347 149.8,317.68 150,319.5C 150.667,326.167 150.667,332.833 150,339.5C 149.768,340.737 149.268,341.737 148.5,342.5C 150.036,333.415 149.703,324.415 147.5,315.5 Z"/></g>
<g><path style="opacity:1" fill="#f9f9f9" d="M 272.5,330.5 C 273.833,330.5 275.167,330.5 276.5,330.5C 276.5,335.833 276.5,341.167 276.5,346.5C 271.836,351.777 266.17,353.277 259.5,351C 254.478,338.487 258.812,331.653 272.5,330.5 Z"/></g>
<g><path style="opacity:1" fill="#bdbdbd" d="M 272.5,330.5 C 273.919,329.549 275.585,329.216 277.5,329.5C 277.822,335.358 277.489,341.025 276.5,346.5C 276.5,341.167 276.5,335.833 276.5,330.5C 275.167,330.5 273.833,330.5 272.5,330.5 Z"/></g>
<g><path style="opacity:1" fill="#4770b7" d="M 472.5,314.5 C 473.903,318.072 474.569,321.905 474.5,326C 474.496,328.361 474.163,330.527 473.5,332.5C 460.167,332.5 446.833,332.5 433.5,332.5C 446.323,331.505 459.323,331.171 472.5,331.5C 472.5,325.833 472.5,320.167 472.5,314.5 Z"/></g>
<g><path style="opacity:1" fill="#f9fcfe" d="M 517.5,330.5 C 518.833,330.5 520.167,330.5 521.5,330.5C 521.5,335.833 521.5,341.167 521.5,346.5C 517.078,351.112 511.745,352.945 505.5,352C 504.619,351.292 503.953,350.458 503.5,349.5C 502.167,345.5 502.167,341.5 503.5,337.5C 507.037,333.065 511.703,330.732 517.5,330.5 Z"/></g>
<g><path style="opacity:1" fill="#9ebcea" d="M 517.5,330.5 C 518.919,329.549 520.585,329.216 522.5,329.5C 522.822,335.358 522.489,341.025 521.5,346.5C 521.5,341.167 521.5,335.833 521.5,330.5C 520.167,330.5 518.833,330.5 517.5,330.5 Z"/></g>
<g><path style="opacity:1" fill="#bad7fd" d="M 433.5,332.5 C 446.833,332.5 460.167,332.5 473.5,332.5C 460.677,333.495 447.677,333.829 434.5,333.5C 434.5,334.5 434.5,335.5 434.5,336.5C 433.566,335.432 433.232,334.099 433.5,332.5 Z"/></g>
<g><path style="opacity:1" fill="#91b0e3" d="M 720.5,308.5 C 721.793,309.842 722.626,311.509 723,313.5C 723.828,329.006 723.661,344.339 722.5,359.5C 722.5,359.167 722.5,358.833 722.5,358.5C 722.667,343.83 722.5,329.163 722,314.5C 720.872,312.655 720.372,310.655 720.5,308.5 Z"/></g>
<g><path style="opacity:1" fill="#9f9f9f" d="M 385.5,330.5 C 387.173,331.343 388.34,332.676 389,334.5C 389.805,337.696 389.638,340.696 388.5,343.5C 388.879,338.784 387.879,334.45 385.5,330.5 Z"/></g>
<g><path style="opacity:1" fill="#9ab8eb" d="M 503.5,337.5 C 502.167,341.5 502.167,345.5 503.5,349.5C 502.883,349.389 502.383,349.056 502,348.5C 501.333,345.167 501.333,341.833 502,338.5C 502.383,337.944 502.883,337.611 503.5,337.5 Z"/></g>
<g><path style="opacity:1" fill="#afc7f1" d="M 485.5,340.5 C 485.332,344.658 485.998,348.658 487.5,352.5C 486.034,351.653 485.2,350.32 485,348.5C 484.199,345.633 484.366,342.966 485.5,340.5 Z"/></g>
<g><path style="opacity:1" fill="#a7c2ef" d="M 574.5,304.5 C 573.791,305.404 572.791,305.737 571.5,305.5C 571.5,303.833 571.5,302.167 571.5,300.5C 566.833,300.5 562.167,300.5 557.5,300.5C 557.5,320.167 557.5,339.833 557.5,359.5C 556.503,339.674 556.17,319.674 556.5,299.5C 561.833,299.5 567.167,299.5 572.5,299.5C 572.077,301.781 572.744,303.448 574.5,304.5 Z"/></g>
<g><path style="opacity:1" fill="#6084c6" d="M 622.5,359.5 C 628.464,360.307 634.464,360.64 640.5,360.5C 638.19,361.164 635.69,361.497 633,361.5C 629.195,361.696 625.695,361.03 622.5,359.5 Z"/></g>
<g><path style="opacity:1" fill="#4e76c0" d="M 435.5,358.5 C 442.441,359.67 449.441,360.336 456.5,360.5C 451.684,361.65 446.684,361.816 441.5,361C 439.148,360.76 437.148,359.927 435.5,358.5 Z"/></g>
<g><path style="opacity:1" fill="#557dc3" d="M 516.5,358.5 C 513.149,360.893 509.316,361.893 505,361.5C 501.523,361.672 498.356,361.006 495.5,359.5C 498.647,359.923 501.814,360.256 505,360.5C 508.909,360.062 512.742,359.396 516.5,358.5 Z"/></g>
</svg>
