<svg width="853.677" height="146.304" viewBox="0 0 225.869 38.71"><g aria-label="SearXNG" style="line-height:1.25" font-style="normal" font-weight="400" font-size="50.8px" font-family="sans-serif" fill="#487cff" fill-opacity="1" stroke="none" stroke-width=".264583"><path d="M56.494 102.704q-1.168-1.22-3.048-2.032-1.88-.813-4.42-.813-3.15 0-5.08 1.32-1.93 1.27-1.93 3.455 0 2.337 3.708 3.607l7.671 2.641q3.963 1.321 5.842 3.404 1.88 2.083 1.88 5.13 0 4.065-2.185 7.011-2.184 2.896-5.943 4.42-3.76 1.524-8.484 1.524-5.334 0-9.042-1.778-3.709-1.829-5.537-5.131-.204-.356-.204-.711 0-.356.407-.61l4.013-2.438q.356-.254.762-.254.61 0 1.118.66 1.32 1.626 2.387 2.54 1.118.864 2.693 1.321 1.625.457 4.165.457 3.2 0 5.182-1.168 1.981-1.22 1.981-3.76 0-1.27-.914-2.082-.915-.864-2.947-1.575l-7.417-2.49q-3.657-1.218-5.588-3.555-1.88-2.388-1.88-5.436 0-3.759 2.134-6.655 2.134-2.895 5.69-4.47 3.607-1.575 7.874-1.575 4.369 0 7.67 1.575 3.354 1.524 5.182 3.962.407.508.407.762t-.356.458l-4.52 2.997q-.052.05-.204.05-.305 0-1.067-.761zM77.004 132.37q-3.607 0-6.401-1.472-2.794-1.474-4.318-4.115-1.524-2.693-1.524-6.198 0-4.165 1.981-7.874 2.032-3.759 5.537-5.994 3.556-2.286 7.925-2.286 5.334 0 8.484 3.15 3.15 3.149 3.15 8.686 0 1.473-.204 2.845-.101.406-.355.61-.204.152-.813.152h-17.12q-.813 0-.813 2.184 0 2.388 1.524 3.709 1.575 1.27 4.064 1.27 1.93 0 3.607-.813 1.677-.813 3.302-2.54.254-.254.508-.254.153 0 .66.203l3.353 1.575q.61.203.61.66 0 .254-.254.66-2.946 3.303-5.893 4.573-2.895 1.27-7.01 1.27zm6.451-16.56q1.22 0 1.22-1.981 0-1.93-1.169-3.251-1.168-1.372-3.251-1.372-2.54 0-4.521 1.93-1.93 1.88-2.235 4.674zM109.411 129.374q-3.048 2.997-8.331 2.997-3.556 0-5.588-1.829t-2.032-4.775q0-3.607 2.387-5.893 2.388-2.337 5.995-3.353 3.657-1.067 7.569-1.168l1.829-.153q.965 0 1.117-.965l.153-1.067q.05-.254.05-.812 0-3.048-3.505-3.048-4.013 0-5.943 3.15-.254.355-.66.355-.305 0-.458-.051l-4.927-1.168q-.508-.102-.508-.66 0-.509.254-1.017 3.352-5.486 12.649-5.486 5.486 0 8.026 1.93 2.591 1.93 2.591 5.334 0 .457-.102 1.473l-2.54 17.78q-.05.66-.203.813-.152.102-.711.102h-5.232q-.508 0-.66-.305-.153-.305-.204-1.016l.05-1.32q0-.407-.253-.407-.254 0-.813.559zm2.184-9.754v-.305q0-.203-.101-.254-.102-.101-.407-.05l-1.828.152q-2.947.203-5.487 1.473t-2.54 3.912q0 1.219.864 1.98.914.712 2.438.712 1.321 0 2.49-.356 1.168-.406 2.031-1.066 1.88-1.423 2.083-2.896zM123.864 131.863q-.61 0-.915-.356-.254-.355-.152-.914l3.505-24.943q.05-.457.152-.559.153-.152.56-.152h6.044q.915 0 .712 1.067l-.356 2.286v.203q0 .355.203.355.153 0 .457-.304 1.778-1.88 3.963-2.998 2.184-1.117 3.962-1.117 1.067 0 1.575.152.508.153.457.61l-.813 5.69q-.05.558-.203.71-.101.153-.406.102-1.727-.254-3.455-.254-1.32 0-2.794.711-1.473.66-2.54 1.778-1.016 1.067-1.168 2.134l-2.083 14.834q-.101.66-.355.812-.204.153-.966.153zM176.481 130.085q.457.813.457 1.219 0 .305-.254.457-.254.102-.762.102h-7.06q-.61 0-.966-.153-.305-.152-.508-.61l-5.639-11.734q-.254-.508-.508-.508-.152 0-.559.559l-9.042 11.836q-.254.407-.61.508-.304.102-1.066.102h-5.944q-1.016 0-1.016-.66 0-.458.762-1.525l13.005-16.306q.559-.61.559-1.067 0-.356-.102-.559l-8.484-16.56q-.152-.255-.152-.509 0-.508.762-.508h7.417q.66 0 .914.153.254.152.508.66l4.928 10.363q.152.407.355.407.204 0 .508-.407l8.027-10.566q.305-.407.559-.508.304-.102.965-.102h6.553q.61 0 .61.559 0 .406-.305.914l-12.599 15.647q-.508.66-.508.914 0 .203.153.508zM218.113 94.17q.355 0 .457.202.101.153.05.56l-5.13 36.372q-.05.356-.254.457-.153.102-.559.102h-5.182q-.66 0-1.168-.813l-13.106-22.708q-.153-.254-.305-.254-.305 0-.356.56l-3.15 22.402q-.1.508-.304.66-.153.153-.711.153h-5.588q-.813 0-.712-1.118l5.08-35.814q.102-.508.204-.61.152-.152.66-.152h6.147q.508 0 .762.254.305.203.559.711l11.988 21.184q.254.406.508.406.407 0 .458-.61l2.946-21.284q.05-.407.203-.508.203-.153.66-.153zM236.44 132.37q-4.572 0-7.925-1.93-3.353-1.93-5.131-5.435-1.727-3.556-1.727-8.331 0-6.3 2.489-11.532 2.49-5.283 7.061-8.382 4.572-3.099 10.516-3.099 4.064 0 7.163 1.575 3.15 1.575 4.876 4.166 1.728 2.54 1.83 5.435 0 .508-.102.762-.051.203-.254.254l-6.96 1.016h-.05q-.204 0-.356-.254-.102-.254-.254-1.016-.356-2.54-1.93-4.115-1.525-1.574-4.319-1.574-3.607 0-5.994 2.641-2.337 2.642-3.455 6.807-1.117 4.115-1.117 8.586 0 4.368 1.625 6.299 1.677 1.88 4.877 1.88 3.099 0 5.233-1.728 2.133-1.727 3.15-4.216l.304-1.423q.152-.254.152-.355 0-.305-.61-.305h-6.248q-.304 0-.406-.102-.102-.152-.05-.558l.456-4.166q.051-.559.508-.559l14.53.051q.609 0 .761.203.203.153.102.66l-2.49 17.577q-.05.66-.812.66h-1.524q-.457 0-.711-.152-.204-.152-.356-.61l-.864-3.708q-.05-.254-.355-.254t-.66.407q-1.677 2.083-4.37 3.454-2.692 1.372-6.603 1.372z" style="-inkscape-font-specification:'Libre Franklin'" transform="translate(-29.722 -93.661)" font-style="normal" font-variant="normal" font-weight="400" font-stretch="normal" font-size="50.8px" font-family="Libre Franklin" fill="#487cff" fill-opacity="1" stroke-width=".264583"/></g></svg>