<svg xmlns="http://www.w3.org/2000/svg" viewBox="0 0 1024 256"><defs><radialGradient id="a" cx="53.45" cy="42.98" r="18.57" fx="53.45" fy="42.98" gradientTransform="translate(117.081 42.904) scale(1.612)" gradientUnits="userSpaceOnUse"><stop offset="0%" stop-color="#797979"/><stop offset="100%" stop-color="#4C4C4C"/></radialGradient></defs><circle cx="202.177" cy="128" r="85.096" fill="#f4b960"/><circle cx="193.635" cy="119.458" r="76.554" fill="#e66f32"/><circle cx="203.789" cy="109.143" r="66.24" fill="#e43c41"/><circle cx="209.107" cy="114.462" r="60.921" fill="#bdd041"/><circle cx="204.595" cy="118.975" r="56.57" fill="#6db54c"/><circle cx="195.73" cy="110.111" r="47.544" fill="#aedae6"/><circle cx="203.466" cy="102.213" r="39.808" fill="#56b8de"/><circle cx="208.301" cy="107.21" r="34.973" fill="#00b1d5"/><circle cx="203.305" cy="112.206" r="29.977" fill="url(#a)"/><circle cx="203.305" cy="112.206" r="29.977" fill="#221f1f"/><ellipse cx="-4.265" cy="237.734" fill="#fff" rx="9.186" ry="5.963" transform="rotate(-65.8)"/><path fill="#221f1f" d="M895.194 161.04c-.645 0-1.29-.323-1.612-.968L880.69 140.25l-6.93 7.413v12.41c0 .484-.484.967-.967.967h-9.831c-.484 0-.967-.322-1.129-.806v-64.79c0-.483.484-.967.967-.967h9.832c.483 0 .967.323 1.128.806v38.519l17.406-19.018c.483-.644 1.29-.967 1.934-.967h10.798c.322 0 .645.162.645.484 0 .161 0 .483-.161.483l-16.278 17.245 18.695 28.043c.161.323.161.645 0 .806-.161.161-.322.161-.483.161zm-80.1-12.088c-1.128-3.707-1.773-7.736-1.612-11.604-.16-3.868.484-7.898 1.612-11.604 2.901-8.381 10.798-13.055 21.113-13.055 6.769-.322 13.216 2.418 17.728 7.414.323.322.323.967 0 1.29l-.16.16-6.609 5.319c-.483.322-1.128.322-1.45-.161v-.162c-2.418-2.74-5.802-4.19-9.509-4.029-4.513 0-8.058 2.095-9.509 6.125-.806 2.9-1.29 5.802-1.128 8.703-.161 2.9.161 5.963 1.128 8.864 1.45 4.029 4.996 6.124 9.509 6.124 3.546.161 7.091-1.45 9.509-4.19.322-.484.967-.484 1.45-.161l6.608 5.318c.484.323.484.806.161 1.29l-.16.16a23.836 23.836 0 0 1-17.73 7.253c-10.153 0-17.889-4.512-20.95-13.054zm-19.179 12.087c-.483 0-.967-.322-1.128-.806v-3.545c-2.417 3.223-7.252 5.48-14.344 5.48-9.347 0-17.083-4.513-17.083-14.344 0-10.315 7.897-14.989 20.468-14.989h10.314c.323 0 .645-.161.645-.483v-2.418c0-5.319-2.74-7.897-11.282-7.897-4.19-.161-8.219.967-11.604 3.223-.483.322-1.128.322-1.45-.161v-.161l-3.868-6.447c-.322-.322-.161-.967.161-1.29 4.19-2.739 9.67-4.673 18.05-4.673 15.473 0 21.275 4.835 21.275 16.439v30.783c0 .483-.484.967-.967.967h-9.187zm-1.289-15.955v-3.546c0-.322-.161-.483-.484-.645h-8.541c-7.575 0-10.96 1.934-10.96 6.286 0 3.868 3.062 5.802 8.864 5.802 7.092.161 11.121-2.418 11.121-7.897zm-43.676 16.761c-10.315 0-14.183-4.674-14.183-13.86v-24.82c0-.322-.161-.483-.483-.645h-3.546c-.484 0-.967-.322-1.128-.805v-6.769c0-.484.483-.967.967-.967h3.545c.323 0 .645-.162.645-.484V100.44c0-.483.484-.967.967-.967h9.831c.484 0 .967.323 1.128.806v13.055c0 .322.162.483.484.644h6.931c.483 0 .966.323 1.127.806v6.769c0 .484-.483.967-.967.967h-6.93c-.322 0-.645.161-.645.484v24.658c0 3.385 1.451 4.352 4.835 4.352h2.58c.483 0 .966.322 1.127.806v8.058c0 .484-.483.967-.967.967h-.16zm-75.426-8.542c-.484-.322-.645-.967-.323-1.45l6.608-7.092c.323-.483.967-.483 1.45-.16 5.642 4.35 12.41 6.768 19.502 7.09 8.542 0 13.538-4.029 13.538-9.67 0-4.835-3.223-7.897-13.055-9.186l-3.868-.484c-13.86-1.772-21.757-7.897-21.757-19.017 0-12.088 9.509-19.985 24.336-19.985 8.22-.161 16.278 2.256 23.37 6.77.483.16.644.644.322 1.127 0 .161-.162.161-.162.323l-4.996 7.252c-.322.484-.967.645-1.45.322a31.343 31.343 0 0 0-17.245-5.157c-7.253 0-11.282 3.707-11.282 8.864 0 4.674 3.546 7.736 13.216 9.026l3.868.483c13.86 1.773 21.435 7.897 21.435 19.34 0 11.765-9.186 20.63-27.076 20.63-10.637-.323-20.79-4.19-26.431-9.026zm-36.907 7.736c-.484 0-.967-.322-1.129-.806v-45.449c0-.483.484-.967.967-.967h9.832c.483 0 .967.323 1.128.806v4.191h.16c2.418-3.546 6.77-6.125 13.217-6.125 3.868 0 7.736 1.29 10.637 3.868.483.484.644.806.16 1.29l-5.64 6.607c-.322.484-.967.645-1.45.323h-.162c-2.256-1.45-4.835-2.257-7.575-2.257-6.607 0-9.67 4.352-9.67 11.927v25.625c0 .484-.483.967-.967.967h-.16zm-52.218-12.087c-1.29-3.707-1.934-7.575-1.773-11.604-.161-4.03.483-7.898 1.611-11.604 2.901-8.22 10.637-13.055 20.79-13.055 10.477 0 18.052 4.996 20.953 13.055 1.128 3.384 1.611 6.607 1.611 14.182 0 .484-.483.967-.967.967h-31.588c-.323 0-.645.161-.645.484v.161c0 1.29.322 2.418.806 3.546 1.611 4.674 5.64 7.091 11.443 7.091a16.516 16.516 0 0 0 11.926-4.513c.322-.483 1.128-.644 1.612-.16l6.285 5.157c.322.16.484.805.322 1.128 0 .16-.16.16-.16.16-4.352 4.675-11.605 8.06-20.952 8.06-10.637 0-18.373-4.836-21.274-13.055zM617.343 128c-1.45-3.868-5.158-6.124-9.993-6.124s-8.703 2.256-9.992 6.124c-.484 1.29-.645 2.579-.645 4.03 0 .321.161.483.484.644h20.146c.322 0 .644-.161.644-.484v-.16c0-1.29-.322-2.74-.644-4.03zm-82.357 26.593c-.322-.323-.483-.967-.16-1.29l.16-.161 5.964-5.802c.483-.322 1.128-.322 1.45 0 4.19 3.385 9.509 5.319 14.989 5.319 6.285 0 9.508-2.418 9.508-5.641 0-2.901-1.772-4.674-8.38-5.158l-5.48-.483c-10.315-.967-15.633-5.802-15.633-13.86 0-9.187 7.091-14.828 19.823-14.828 6.77-.161 13.538 1.934 19.18 5.802.483.323.483.806.322 1.29v.16l-5.158 5.803c-.322.483-.967.483-1.45.16-4.03-2.417-8.703-3.867-13.377-3.867-4.996 0-7.736 2.095-7.736 4.835 0 2.74 1.773 4.351 8.38 4.996l5.48.483c10.637.967 15.795 6.125 15.795 13.86 0 9.349-7.414 15.956-21.436 15.956-8.22 0-15.955-2.578-22.24-7.574zm-28.043 6.446c-.644 0-1.128-.483-1.289-.967l-9.831-30.3h-.161l-9.993 30.139c-.16.645-.644.967-1.289.967h-8.703c-.645 0-1.128-.483-1.29-.967l-16.116-45.288c-.161-.322 0-.806.322-.967.162 0 .323-.161.484 0h10.153c.645 0 1.29.323 1.45.967l9.832 31.105h.161l9.67-31.105c.161-.645.806-.967 1.45-.967h7.576c.644 0 1.128.322 1.45.967l10.315 31.105h.16l9.349-31.105c.16-.645.805-1.128 1.45-.967h10.154c.322-.161.805.161.805.484v.483l-16.116 45.288c-.161.645-.645.967-1.29.967zm-95.088-12.087c-1.29-3.707-1.773-7.736-1.773-11.604-.161-4.03.484-7.898 1.773-11.604 2.901-8.22 10.637-13.055 21.113-13.055 10.476 0 18.05 4.835 20.952 13.055 1.289 3.706 1.772 7.736 1.772 11.604.162 4.029-.483 7.897-1.772 11.604-2.901 8.22-10.637 13.054-20.952 13.054-10.315 0-18.212-4.674-21.113-13.054zm30.622-2.901c.806-2.74 1.289-5.802 1.128-8.703.161-2.901-.161-5.964-1.128-8.703-1.45-4.03-5.319-6.447-9.51-6.125-4.19-.322-8.219 2.257-9.67 6.125-.805 2.9-1.288 5.802-1.127 8.703-.161 2.9.16 5.963 1.128 8.703 1.45 4.029 5.48 6.446 9.67 6.124 4.19.322 8.058-2.095 9.509-6.124zm-67.69 14.988a1.21 1.21 0 0 1-1.128-.806v-45.449c0-.483.483-.967.967-.967h9.83c.484 0 .968.323 1.129.806v4.191h.161c2.418-3.546 6.769-6.125 13.216-6.125 3.868 0 7.736 1.29 10.637 3.868.483.484.644.806.16 1.29l-5.64 6.607c-.322.484-.967.645-1.45.323h-.162c-2.256-1.45-4.835-2.257-7.574-2.257-6.608 0-9.67 4.352-9.67 11.927v25.625c0 .484-.484.967-.967.967h-.162zM314.51 95.444c0-.483.484-.967.967-.967h26.915c15.311 0 22.402 7.092 22.402 17.729.323 5.963-2.9 11.604-8.38 14.182v.162c5.963 2.417 9.83 8.38 9.67 14.988 0 13.216-9.026 19.662-24.82 19.662h-25.787c-.483 0-.967-.322-1.128-.805v-.162zm27.56 26.593c6.285 0 10.315-3.546 10.315-8.703s-3.868-8.864-10.315-8.864h-14.344c-.322 0-.645.16-.645.483v16.601c0 .322.162.483.484.644h14.505zm-14.505 28.688h14.988c6.93 0 10.96-3.707 10.96-9.348 0-5.641-3.868-9.187-10.798-9.187h-14.989c-.322 0-.645.162-.645.484v17.406c0 .483.162.645.484.645z"/></svg>