<svg xmlns="http://www.w3.org/2000/svg" viewBox="0 0 1024 384"><path fill="#1d63ed" d="M366.43 163.83c-1.52-11.031-7.596-20.608-18.56-29.26l-6.341-4.294-4.228 6.407c-5.416 8.256-8.124 19.749-7.265 30.78.396 3.83 1.651 10.831 5.548 16.842-3.897 2.18-11.625 5.086-21.929 4.888h-196.83l-.397 2.312c-1.85 11.03-1.85 45.574 20.278 72.06 16.843 20.146 42.008 30.384 74.901 30.384 71.335 0 124.043-33.223 148.812-93.726 9.71.198 30.647.066 41.414-20.74.264-.462.924-1.717 2.774-5.68l1.057-2.18-6.011-4.095c-6.605-4.293-21.599-5.944-33.223-3.699zm-92.207-73.78h-29.92v27.543h29.92zm0 33.091h-29.92v27.543h29.92zm-35.403 0h-29.921v27.543h29.92zm-35.337 0h-29.921v27.543h29.92zm-35.403 33.092h-29.921v27.543h29.92zm35.403 0h-29.921v27.543h29.92zm35.337 0h-29.921v27.543h29.92zm35.403 0h-29.92v27.543h29.92zm35.403 0h-29.92v27.543h29.92zm181.903-6.21c-2.18 0-4.029.727-5.416 2.18-1.453 1.454-2.18 3.37-2.18 5.549v37.318c-7.397-6.142-15.918-9.18-25.693-9.18-11.295 0-20.938 4.094-28.93 12.285-7.992 8.19-11.955 18.032-11.955 29.59s4.029 21.4 11.955 29.591c7.992 8.19 17.635 12.285 28.93 12.285 11.294 0 20.872-4.095 28.93-12.285 7.992-8.058 11.955-17.966 11.955-29.59v-69.948c0-2.246-.726-4.095-2.246-5.548-1.387-1.52-3.17-2.246-5.35-2.246zm-9.577 87.914a26.439 26.439 0 0 1-5.482 8.323 26.107 26.107 0 0 1-8.124 5.68c-3.105 1.387-6.473 2.113-10.04 2.113-3.567 0-6.935-.66-10.106-2.113a26.108 26.108 0 0 1-8.124-5.68c-2.312-2.378-4.095-5.152-5.416-8.323-1.321-3.17-1.982-6.605-1.982-10.172 0-3.566.66-7.001 1.982-10.171a27.443 27.443 0 0 1 5.416-8.323c2.312-2.378 5.02-4.227 8.124-5.68 3.105-1.387 6.473-2.114 10.106-2.114s6.87.66 10.04 2.114a26.107 26.107 0 0 1 8.124 5.68 26.438 26.438 0 0 1 5.482 8.323c1.321 3.17 1.981 6.539 1.981 10.105 0 3.633-.66 7.002-1.981 10.238zm344.19-39.762c-8.059-8.19-17.768-12.286-28.93-12.286-11.23 0-20.939 4.095-28.93 12.286-7.993 8.19-11.956 18.032-11.956 29.59s4.029 21.4 11.955 29.591c7.992 8.19 17.636 12.285 28.93 12.285 10.304 0 19.155-3.368 26.75-10.171 1.454-1.52 2.18-3.435 2.18-5.615s-.726-4.095-2.18-5.548c-1.452-1.453-3.236-2.18-5.415-2.18-1.916.066-3.567.66-5.02 1.982-2.312 1.981-4.756 3.5-7.464 4.491-2.708.991-5.614 1.52-8.85 1.52a25.54 25.54 0 0 1-8.125-1.321c-2.576-.925-5.02-2.18-7.133-3.765-2.18-1.652-4.03-3.567-5.68-5.813-1.586-2.246-2.841-4.755-3.634-7.53h57.86c2.114 0 3.964-.726 5.417-2.18 1.519-1.452 2.245-3.368 2.245-5.547 0-5.813-.99-11.163-2.972-16.117-2.047-5.086-5.02-9.577-9.049-13.672zm-53.634 21.862a26.286 26.286 0 0 1 3.567-7.53c1.585-2.245 3.5-4.227 5.68-5.812 2.18-1.651 4.624-2.84 7.266-3.765 2.642-.924 5.35-1.32 8.124-1.32 2.774 0 5.482.462 8.058 1.32 2.642.925 5.02 2.18 7.134 3.765 2.18 1.651 4.095 3.567 5.68 5.813 1.651 2.245 2.84 4.755 3.699 7.53zm133.753-28.864c-1.387-1.32-3.105-2.377-5.152-3.17-2.048-.793-4.36-1.321-6.803-1.585a51.633 51.633 0 0 0-6.936-.463c-4.887 0-9.445.793-13.738 2.378-4.294 1.585-8.257 3.897-11.89 6.87v-1.454c0-2.18-.726-3.963-2.245-5.482-1.52-1.519-3.237-2.312-5.35-2.312-2.114 0-3.963.793-5.416 2.312-1.52 1.52-2.246 3.369-2.246 5.482v68.164c0 2.18.726 3.964 2.246 5.483 1.519 1.519 3.302 2.311 5.416 2.311 2.113 0 3.897-.792 5.35-2.311 1.52-1.52 2.246-3.369 2.246-5.483v-34.082c0-3.632.66-7.067 1.981-10.237a26.438 26.438 0 0 1 5.482-8.323c2.312-2.378 5.02-4.227 8.125-5.614 3.104-1.387 6.472-2.048 10.04-2.048 3.566 0 6.935.66 10.039 1.85 1.189.528 2.312.858 3.236.858a7.465 7.465 0 0 0 2.973-.594c.924-.396 1.717-.99 2.444-1.651.66-.727 1.255-1.52 1.65-2.51.397-.925.595-1.982.595-3.039 0-2.245-.66-4.029-2.047-5.35zm-328.47 7.002c-8.058-8.19-17.767-12.286-28.93-12.286-11.162 0-20.938 4.095-28.93 12.286-7.992 8.19-11.955 18.032-11.955 29.59s4.029 21.4 11.955 29.591c7.992 8.19 17.636 12.285 28.93 12.285 11.295 0 20.872-4.095 28.93-12.285 7.992-8.058 11.955-17.966 11.955-29.59-.065-5.813-1.056-11.163-3.038-16.05-1.981-4.889-4.954-9.446-8.917-13.541zm-5.284 39.762a26.439 26.439 0 0 1-5.482 8.323 26.108 26.108 0 0 1-8.124 5.68c-3.105 1.387-6.473 2.113-10.04 2.113-3.567 0-6.935-.66-10.106-2.113a26.108 26.108 0 0 1-8.124-5.68c-2.312-2.378-4.095-5.152-5.416-8.323-1.32-3.17-1.981-6.605-1.981-10.172 0-3.566.66-7.001 1.981-10.171a27.443 27.443 0 0 1 5.416-8.323c2.312-2.378 5.02-4.227 8.124-5.68 3.105-1.387 6.473-2.114 10.106-2.114s6.87.66 10.04 2.114a26.108 26.108 0 0 1 8.124 5.68 26.438 26.438 0 0 1 5.482 8.323c1.321 3.17 1.982 6.539 1.982 10.105 0 3.633-.66 7.002-1.982 10.238zm175.43-44.254a7.464 7.464 0 0 0-.594-2.972c-.396-.925-.925-1.783-1.651-2.51a6.178 6.178 0 0 0-2.444-1.651 7.464 7.464 0 0 0-2.972-.595c-1.52 0-2.907.397-4.095 1.19l-43.726 29.062v-58.323c0-2.18-.727-4.03-2.246-5.548-1.519-1.52-3.236-2.312-5.35-2.312-2.113 0-3.963.792-5.416 2.312-1.52 1.519-2.246 3.368-2.246 5.548v103.897c0 2.18.727 4.03 2.246 5.549 1.52 1.519 3.303 2.311 5.416 2.311 2.114 0 3.897-.792 5.35-2.311 1.52-1.52 2.246-3.369 2.246-5.549v-27.014l8.917-6.01 33.752 38.77c1.387 1.322 3.104 1.982 5.086 1.982a7.465 7.465 0 0 0 2.972-.594c.925-.396 1.717-.99 2.444-1.651.66-.727 1.255-1.52 1.651-2.51a7.701 7.701 0 0 0 .594-2.973c0-2.047-.726-3.83-2.113-5.482l-31.308-36.13 30.647-20.343c1.916-1.321 2.84-3.369 2.84-6.143zm-126.883 15.522c2.312-2.378 5.086-4.227 8.19-5.614 3.105-1.387 6.474-2.048 10.04-2.048 3.237 0 6.21.529 8.917 1.652a28.692 28.692 0 0 1 7.794 4.821c1.453 1.19 3.105 1.784 4.954 1.784 2.18 0 4.029-.727 5.416-2.246 1.453-1.52 2.18-3.369 2.18-5.614s-.859-4.294-2.642-5.879c-7.53-6.803-16.38-10.172-26.685-10.172-11.294 0-20.938 4.095-28.93 12.286-7.992 8.19-11.955 18.032-11.955 29.59 0 11.56 4.03 21.4 11.955 29.591 7.992 8.19 17.636 12.285 28.93 12.285 10.238 0 19.155-3.368 26.685-10.171 1.585-1.652 2.444-3.567 2.444-5.747 0-2.18-.727-4.095-2.18-5.548-1.453-1.453-3.237-2.18-5.416-2.18-1.85.066-3.435.595-4.822 1.652-2.444 2.18-5.02 3.764-7.728 4.821s-5.68 1.585-8.917 1.585c-3.566 0-6.869-.66-10.04-2.047-3.104-1.387-5.878-3.237-8.19-5.614-2.311-2.312-4.16-5.152-5.548-8.323-1.32-3.17-1.981-6.605-1.981-10.238 0-3.632.66-7.067 1.981-10.237 1.387-3.237 3.237-5.945 5.548-8.389z"/></svg>