<svg id="svg" version="1.1" xmlns="http://www.w3.org/2000/svg" xmlns:xlink="http://www.w3.org/1999/xlink" width="400" height="150.2377179080824" viewBox="0, 0, 400,150.2377179080824"><g id="svgg"><path id="path0" d="M260.945 25.198 C 260.453 26.157,253.725 42.623,245.994 61.789 C 228.271 105.729,227.366 107.331,221.602 104.983 C 218.039 103.533,218.081 103.988,218.139 67.512 C 218.203 27.749,217.981 29.062,224.833 27.948 C 226.416 27.691,227.317 27.178,227.456 26.456 C 227.651 25.444,226.726 25.357,215.872 25.357 L 204.075 25.357 202.936 28.051 C 202.310 29.532,196.688 44.206,190.443 60.659 C 183.234 79.652,178.909 90.252,178.596 89.693 C 178.325 89.209,173.094 76.603,166.971 61.681 C 160.848 46.758,154.977 32.474,153.924 29.938 L 152.009 25.327 141.139 25.500 C 132.115 25.644,130.269 25.831,130.269 26.598 C 130.269 27.127,131.127 27.699,132.272 27.933 C 135.144 28.520,138.380 30.563,139.292 32.364 C 140.763 35.270,140.401 99.333,138.900 101.794 C 137.759 103.665,134.226 105.864,132.361 105.864 C 131.396 105.864,129.952 107.079,129.952 107.892 C 129.952 108.171,135.800 108.399,142.948 108.399 C 150.095 108.399,155.943 108.149,155.943 107.843 C 155.943 106.952,154.511 106.043,152.399 105.592 C 149.134 104.895,146.395 102.124,145.771 98.886 C 145.057 95.182,144.996 38.226,145.708 39.017 C 146.005 39.349,149.310 47.322,153.052 56.735 C 156.794 66.149,163.009 81.639,166.863 91.158 L 173.870 108.465 176.158 108.274 L 178.447 108.082 189.726 78.288 C 195.930 61.902,202.119 45.642,203.479 42.155 L 205.953 35.816 205.988 69.230 L 206.022 102.645 204.643 103.929 C 203.885 104.636,202.245 105.376,200.998 105.573 C 198.380 105.988,196.830 106.711,196.830 107.518 C 196.830 107.836,207.851 108.155,222.076 108.248 C 244.837 108.398,247.302 108.315,247.116 107.409 C 246.999 106.842,245.453 105.913,243.560 105.273 C 236.274 102.813,236.075 101.955,240.303 91.218 L 243.523 83.043 259.855 83.043 L 276.188 83.043 280.092 92.976 C 284.466 104.106,284.442 104.781,279.628 105.590 C 275.869 106.221,275.119 106.538,275.119 107.491 C 275.119 108.256,277.682 108.399,291.330 108.399 C 306.270 108.399,307.525 108.315,307.333 107.318 C 307.203 106.644,306.221 106.048,304.730 105.739 C 298.140 104.369,300.176 108.108,280.803 61.807 C 272.342 41.585,265.142 24.683,264.803 24.247 C 263.760 22.905,261.884 23.367,260.945 25.198 M322.979 24.055 C 301.562 27.513,289.344 43.218,289.415 67.195 C 289.509 98.908,313.052 116.027,346.677 108.830 C 362.306 105.485,362.599 105.110,362.599 88.452 L 362.599 74.894 364.269 73.580 C 365.188 72.857,366.579 72.266,367.361 72.266 C 368.867 72.266,370.481 70.851,369.778 70.148 C 368.812 69.181,341.680 69.685,341.680 70.669 C 341.680 71.186,342.322 71.738,343.106 71.897 C 350.800 73.458,350.557 72.963,350.545 87.005 C 350.533 102.702,349.268 104.525,337.983 105.117 C 316.120 106.264,302.732 90.169,302.748 62.758 C 302.761 40.096,311.977 28.758,330.269 28.899 C 343.183 28.999,350.796 33.942,356.788 46.117 C 357.854 48.284,358.822 49.445,359.562 49.445 C 360.948 49.445,360.956 50.050,359.422 37.756 C 358.729 32.199,358.162 27.421,358.162 27.138 C 358.162 26.856,356.379 26.621,354.200 26.616 C 352.021 26.611,347.604 26.064,344.384 25.400 C 337.450 23.969,327.415 23.338,322.979 24.055 M44.691 25.117 C 11.375 32.061,-2.852 73.517,19.012 99.947 C 33.839 117.870,61.132 122.110,80.019 109.424 L 83.360 107.181 86.990 110.767 C 90.343 114.079,90.545 114.437,89.627 115.451 C 89.062 116.076,88.798 117.066,89.014 117.749 C 89.577 119.520,111.682 141.196,113.715 141.969 C 119.758 144.267,125.441 141.292,126.837 135.100 C 127.860 130.565,127.269 129.686,114.520 116.799 C 102.785 104.936,101.251 103.757,99.646 105.362 C 99.048 105.960,98.120 105.376,95.399 102.689 C 91.251 98.593,91.331 99.269,94.413 94.331 C 115.698 60.233,84.509 16.818,44.691 25.117 M362.718 26.459 C 362.835 27.065,363.498 27.657,364.191 27.775 C 373.521 29.358,372.742 25.773,372.742 67.097 C 372.742 108.194,373.627 104.080,364.342 106.136 C 363.384 106.348,362.599 106.944,362.599 107.461 C 362.599 108.265,364.910 108.399,378.764 108.399 C 392.618 108.399,394.929 108.265,394.929 107.461 C 394.929 106.944,394.144 106.348,393.185 106.136 C 383.901 104.080,384.786 108.194,384.786 67.097 C 384.786 25.773,384.007 29.358,393.337 27.775 C 394.030 27.657,394.693 27.065,394.809 26.459 C 395.007 25.435,393.865 25.357,378.764 25.357 C 363.662 25.357,362.521 25.435,362.718 26.459 M63.326 34.572 C 89.475 40.736,100.624 74.500,82.956 94.023 L 80.559 96.672 80.533 74.077 C 80.504 48.666,80.957 50.713,75.364 50.713 C 73.160 50.713,72.118 50.996,71.862 51.664 C 71.306 53.111,39.047 53.084,37.598 51.635 C 36.892 50.928,35.619 50.707,33.047 50.842 L 29.477 51.030 29.311 73.693 C 29.219 86.157,28.910 96.355,28.625 96.355 C 27.726 96.355,22.719 89.215,21.127 85.663 C 8.623 57.766,33.572 27.559,63.326 34.572 M267.153 60.431 C 270.837 69.785,273.851 77.559,273.851 77.705 C 273.851 77.852,267.461 77.971,259.650 77.971 L 245.449 77.971 252.519 60.261 C 256.407 50.520,259.783 42.747,260.021 42.987 C 260.259 43.227,263.468 51.077,267.153 60.431 M34.231 77.732 C 34.231 98.296,34.123 100.858,33.281 100.158 C 31.847 98.969,31.847 54.517,33.281 54.517 C 34.108 54.517,34.231 57.519,34.231 77.732 M76.704 77.300 C 76.704 97.953,76.421 102.296,75.179 100.697 C 74.713 100.097,75.670 54.517,76.149 54.517 C 76.456 54.517,76.704 64.697,76.704 77.300 M51.981 63.100 C 51.981 69.300,53.333 74.802,54.856 74.802 C 56.538 74.802,57.682 70.252,57.684 63.550 L 57.686 56.418 64.659 56.418 L 71.632 56.418 71.632 68.780 C 71.632 75.856,71.384 81.141,71.051 81.141 C 70.731 81.141,68.274 79.843,65.590 78.257 C 61.445 75.806,60.286 75.401,57.883 75.563 L 55.054 75.753 56.554 77.971 C 58.656 81.083,69.355 87.313,70.691 86.204 C 71.709 85.359,71.827 85.739,71.233 87.956 C 70.868 89.316,70.555 89.382,64.427 89.376 L 58.003 89.370 61.331 87.820 C 66.615 85.360,65.847 83.930,60.510 86.290 C 56.983 87.851,51.178 87.688,48.710 85.959 C 47.130 84.852,45.008 84.602,45.008 85.522 C 45.008 86.031,48.690 88.022,51.347 88.950 C 51.870 89.132,49.089 89.304,45.166 89.332 L 38.035 89.382 38.049 86.688 L 38.063 83.994 39.228 85.509 L 40.393 87.024 46.496 83.433 C 51.879 80.265,54.517 77.749,54.517 75.784 C 54.517 74.216,48.806 75.739,43.935 78.605 C 40.973 80.349,38.434 81.775,38.292 81.775 C 38.151 81.775,38.035 76.070,38.035 69.097 L 38.035 56.418 45.008 56.418 L 51.981 56.418 51.981 63.100 M48.425 59.249 C 42.370 61.820,38.314 69.648,39.569 76.339 C 40.327 80.379,41.769 79.171,41.375 74.825 C 40.801 68.488,44.811 62.287,50.958 60.008 C 51.430 59.833,51.454 59.526,51.030 59.079 C 50.588 58.613,49.801 58.664,48.425 59.249 M58.954 59.278 C 58.954 59.814,59.739 60.548,60.697 60.909 C 65.590 62.750,69.387 69.327,68.985 75.264 C 68.722 79.139,69.881 79.553,70.582 75.835 C 71.748 69.657,67.308 61.706,61.331 59.272 C 59.195 58.401,58.954 58.402,58.954 59.278 M58.954 62.865 C 58.954 63.353,59.789 64.245,60.809 64.848 C 63.647 66.524,65.439 69.903,65.439 73.577 C 65.439 77.314,66.327 78.279,66.909 75.174 C 67.425 72.425,65.785 67.227,63.846 65.468 C 61.209 63.076,58.954 61.876,58.954 62.865 M47.290 64.689 C 43.699 67.842,41.704 75.724,44.282 76.571 C 44.907 76.777,45.022 76.480,44.706 75.484 C 43.744 72.451,45.025 68.998,48.295 65.813 C 51.752 62.446,50.913 61.508,47.290 64.689 M50.396 84.345 C 53.482 85.806,56.341 85.893,59.389 84.619 C 62.495 83.321,61.577 82.676,58.035 83.668 C 55.847 84.280,54.515 84.301,52.348 83.755 C 48.264 82.727,47.478 82.965,50.396 84.345 M71.499 98.326 L 71.682 103.150 68.538 104.503 C 60.984 107.753,49.271 108.028,42.155 105.123 L 38.352 103.571 38.168 98.367 L 37.983 93.164 54.649 93.333 L 71.315 93.502 71.499 98.326 M92.752 105.746 L 96.399 109.431 95.088 110.618 C 93.166 112.357,85.541 105.120,87.276 103.204 C 88.701 101.629,88.658 101.609,92.752 105.746 M150.872 122.296 C 150.349 122.596,147.710 123.329,145.008 123.925 C 139.692 125.097,138.106 126.591,142.948 125.865 L 145.800 125.437 145.800 127.695 C 145.800 129.616,145.588 129.951,144.374 129.944 C 141.517 129.926,140.227 129.268,140.560 127.996 C 141.217 125.484,139.519 126.907,138.414 129.794 C 137.582 131.970,137.198 132.453,137.029 131.537 C 136.669 129.590,134.998 128.051,133.242 128.051 C 131.785 128.051,131.736 128.140,132.632 129.160 C 133.168 129.770,133.802 130.911,134.041 131.696 C 134.296 132.534,134.981 133.122,135.702 133.122 C 137.372 133.122,135.920 136.907,133.853 137.943 C 132.623 138.560,132.571 138.741,133.422 139.447 C 133.988 139.917,134.390 141.280,134.390 142.728 C 134.390 145.477,135.662 146.499,137.587 145.296 C 138.462 144.750,138.794 144.799,139.068 145.513 C 139.721 147.215,140.494 146.456,141.364 143.261 L 142.228 140.087 144.041 142.286 C 145.859 144.492,146.299 144.651,152.851 145.482 C 155.300 145.793,155.846 145.667,156.179 144.718 C 156.398 144.093,156.744 143.225,156.947 142.789 C 157.225 142.192,156.121 141.997,152.468 141.997 C 145.683 141.997,143.110 140.467,147.109 138.810 C 149.965 137.627,156.172 131.464,155.713 130.267 C 155.175 128.866,153.432 128.365,152.064 129.218 C 149.872 130.587,148.871 130.141,149.088 127.892 C 149.307 125.620,150.180 124.992,153.211 124.926 C 155.807 124.869,156.347 123.968,154.545 122.706 C 152.947 121.587,152.244 121.508,150.872 122.296 M165.078 130.104 C 165.031 137.030,164.779 139.176,163.651 142.292 C 162.069 146.662,162.113 146.434,162.856 146.434 C 163.828 146.434,167.189 140.851,167.629 138.507 C 168.030 136.369,168.144 136.292,170.869 136.292 L 173.693 136.292 173.693 140.773 C 173.693 145.058,173.755 145.246,175.119 145.052 C 176.415 144.868,176.562 144.458,176.733 140.571 L 176.920 136.292 179.812 136.292 C 182.188 136.292,182.634 136.470,182.318 137.294 C 182.107 137.846,181.933 139.129,181.933 140.147 C 181.933 141.780,181.710 141.997,180.032 141.997 C 177.894 141.997,177.480 142.973,179.365 143.571 C 180.045 143.787,180.781 144.531,181.001 145.225 C 181.302 146.172,181.745 146.384,182.777 146.073 C 185.229 145.333,185.393 144.660,185.431 135.164 C 185.452 130.031,185.684 125.261,185.947 124.564 C 186.566 122.923,184.227 121.231,182.882 122.347 C 181.939 123.130,167.727 122.978,166.086 122.168 C 165.266 121.763,165.127 122.858,165.078 130.104 M203.434 122.725 C 202.767 123.529,201.635 123.690,197.969 123.505 C 194.531 123.332,193.344 123.478,193.344 124.076 C 193.344 124.519,193.914 124.881,194.612 124.881 C 195.598 124.881,195.880 125.304,195.880 126.783 C 195.880 128.389,195.633 128.685,194.295 128.685 C 193.258 128.685,192.710 129.039,192.710 129.709 C 192.710 130.463,193.133 130.653,194.311 130.428 C 196.159 130.075,196.057 131.165,193.887 134.945 C 193.211 136.122,192.804 137.231,192.981 137.408 C 193.744 138.171,196.731 135.326,197.870 132.752 C 199.587 128.870,200.951 129.034,200.951 133.122 C 200.951 135.517,201.183 136.292,201.902 136.292 C 202.448 136.292,202.853 136.864,202.853 137.636 C 202.853 138.886,202.588 138.961,199.049 138.705 C 196.191 138.498,195.246 138.636,195.246 139.262 C 195.246 139.858,196.330 140.095,199.049 140.095 L 202.853 140.095 202.853 142.045 L 202.853 143.995 197.780 143.788 C 194.033 143.636,192.707 143.789,192.708 144.374 C 192.710 144.981,195.606 145.166,205.071 145.166 C 217.473 145.166,218.419 144.987,216.273 143.046 C 214.838 141.747,214.012 141.722,212.995 142.948 C 211.346 144.935,206.022 144.209,206.022 141.997 L 206.022 140.095 210.143 140.095 C 213.962 140.095,215.230 139.500,213.581 138.481 C 213.145 138.211,213.374 137.618,214.215 136.834 C 215.352 135.775,215.544 134.792,215.626 129.611 C 215.678 126.312,215.750 123.257,215.784 122.821 C 215.819 122.385,215.074 121.939,214.128 121.830 L 212.408 121.632 212.226 127.852 L 212.044 134.073 210.301 133.869 C 209.342 133.757,208.558 133.971,208.558 134.344 C 208.558 134.718,208.772 135.028,209.033 135.033 C 212.060 135.095,210.946 138.827,207.902 138.827 C 205.974 138.827,205.430 137.771,206.703 136.499 C 207.187 136.014,206.913 135.701,205.752 135.409 C 203.318 134.798,203.276 129.952,205.705 129.952 C 206.973 129.952,207.290 130.269,207.290 131.537 C 207.290 132.791,207.610 133.122,208.823 133.122 C 210.284 133.122,210.365 132.906,210.566 128.526 C 210.789 123.652,210.392 122.798,208.086 123.193 C 207.304 123.326,206.342 123.048,205.949 122.574 C 205.018 121.453,204.463 121.486,203.434 122.725 M225.135 123.613 C 224.770 124.659,224.052 125.515,223.538 125.515 C 222.799 125.515,222.912 126.094,224.083 128.297 C 225.593 131.136,225.326 132.488,223.254 132.488 C 222.588 132.488,222.473 132.937,222.808 134.231 C 223.443 136.677,223.457 138.654,222.867 142.314 C 222.281 145.945,222.955 145.741,225.020 141.661 L 226.294 139.144 226.142 142.631 C 225.903 148.119,228.372 147.832,228.869 142.314 C 229.154 139.152,229.260 138.884,229.503 140.729 C 229.716 142.356,230.090 142.924,230.903 142.860 C 231.724 142.795,232.013 143.248,232.013 144.603 C 232.013 146.012,232.305 146.434,233.281 146.434 C 234.455 146.434,234.548 146.012,234.548 140.692 C 234.548 137.025,234.777 135.091,235.182 135.341 C 235.531 135.556,235.816 136.679,235.816 137.836 C 235.816 140.696,237.091 141.599,240.576 141.206 C 242.727 140.963,243.423 141.098,243.423 141.758 C 243.423 142.310,242.706 142.631,241.473 142.631 L 239.522 142.631 241.455 144.564 C 245.438 148.547,246.228 146.928,246.264 134.707 C 246.278 129.826,246.513 125.261,246.786 124.564 C 247.398 122.997,245.006 121.143,243.856 122.293 C 242.981 123.168,234.860 123.191,233.239 122.323 C 232.152 121.741,232.013 121.885,232.013 123.591 C 232.013 125.718,231.858 125.816,230.048 124.847 C 228.972 124.272,228.708 124.446,228.126 126.115 C 227.755 127.179,227.194 127.890,226.880 127.696 C 225.966 127.131,226.197 126.453,227.944 124.568 C 229.223 123.188,229.396 122.684,228.737 122.266 C 227.098 121.227,225.797 121.714,225.135 123.613 M255.468 123.356 C 255.468 124.478,255.057 125.107,254.174 125.338 C 253.462 125.524,252.982 125.854,253.106 126.071 C 253.230 126.288,253.697 127.393,254.144 128.526 C 254.592 129.659,255.250 130.586,255.607 130.586 C 255.989 130.586,255.931 130.979,255.468 131.537 C 255.033 132.060,254.112 132.488,253.419 132.488 C 252.343 132.488,252.236 132.740,252.680 134.231 C 253.364 136.527,253.365 140.507,252.682 143.252 C 251.938 146.244,253.851 144.779,255.565 141.046 L 256.729 138.510 256.574 142.314 C 256.320 148.535,258.803 147.961,259.318 141.680 C 259.574 138.543,259.714 138.038,259.793 139.957 C 259.911 142.818,261.409 144.256,262.511 142.565 C 263.344 141.286,262.587 138.759,260.811 136.891 C 259.262 135.262,258.791 133.756,259.831 133.756 C 260.139 133.756,260.540 134.326,260.723 135.024 C 260.921 135.782,261.587 136.292,262.381 136.292 C 263.611 136.292,263.708 136.643,263.708 141.066 C 263.708 146.135,264.846 147.936,266.564 145.586 C 266.988 145.007,268.128 144.532,269.097 144.532 C 270.066 144.532,271.205 145.007,271.629 145.586 C 273.183 147.711,274.485 146.141,274.485 142.144 C 274.485 140.057,274.830 138.081,275.277 137.607 C 275.861 136.988,275.877 136.696,275.338 136.497 C 274.883 136.329,275.200 135.585,276.177 134.531 L 277.748 132.836 276.275 132.401 C 275.465 132.161,274.028 131.795,273.082 131.586 L 271.362 131.208 272.962 128.851 C 273.841 127.554,274.901 126.283,275.315 126.025 C 276.757 125.130,273.605 122.727,272.068 123.550 C 270.066 124.621,268.273 124.421,268.375 123.138 C 268.617 120.086,264.933 121.897,263.742 125.415 C 262.414 129.338,260.899 131.200,259.871 130.172 C 259.392 129.693,259.783 129.001,261.214 127.796 C 262.325 126.862,263.127 126.005,262.996 125.892 C 262.387 125.368,259.925 124.247,259.381 124.247 C 259.048 124.247,258.596 124.960,258.377 125.832 C 257.974 127.437,257.105 127.893,256.454 126.841 C 256.258 126.524,257.005 125.502,258.112 124.569 C 260.281 122.744,259.852 121.741,256.894 121.721 C 255.779 121.714,255.468 122.070,255.468 123.356 M285.895 124.564 C 285.895 127.184,285.766 127.417,284.311 127.417 C 283.277 127.417,282.726 127.771,282.726 128.436 C 282.726 129.207,283.112 129.359,284.311 129.058 C 285.804 128.683,285.895 128.807,285.895 131.208 C 285.895 133.455,285.720 133.756,284.416 133.756 C 282.371 133.756,282.095 134.210,282.840 136.345 C 283.453 138.106,284.628 138.903,284.628 137.559 C 284.628 137.211,284.913 136.926,285.261 136.926 C 287.025 136.926,285.922 142.630,284.152 142.664 L 282.409 142.697 283.835 143.692 C 284.620 144.239,285.261 145.049,285.261 145.490 C 285.261 146.574,291.667 146.193,295.534 144.880 C 298.110 144.006,298.667 144.002,300.696 144.850 C 303.830 146.159,305.726 146.040,306.706 144.471 C 307.739 142.817,307.619 142.702,304.267 142.130 L 301.544 141.665 303.871 139.197 C 306.007 136.933,306.117 136.638,305.212 135.638 C 304.317 134.649,304.319 134.510,305.235 134.159 C 306.071 133.838,306.173 133.128,305.823 130.042 C 305.542 127.559,305.638 126.168,306.108 125.877 C 307.187 125.210,306.956 124.367,305.479 123.577 C 304.513 123.060,303.951 123.054,303.450 123.555 C 302.198 124.806,300.340 124.404,300.792 122.979 C 301.135 121.900,300.906 121.712,299.250 121.712 C 297.694 121.712,297.306 121.979,297.306 123.051 C 297.306 124.433,295.555 124.535,292.710 123.318 C 291.800 122.929,291.601 123.173,291.601 124.677 C 291.601 126.116,291.315 126.511,290.274 126.511 C 289.093 126.511,288.989 126.247,289.330 124.111 C 289.703 121.780,289.659 121.712,287.805 121.712 C 285.964 121.712,285.895 121.815,285.895 124.564 M322.662 123.063 C 322.662 124.349,322.433 124.399,317.908 124.109 C 314.189 123.870,313.154 123.990,313.154 124.659 C 313.154 125.302,314.340 125.515,317.908 125.515 C 321.712 125.515,322.662 125.705,322.662 126.466 C 322.662 127.184,321.888 127.417,319.493 127.417 C 317.750 127.417,316.323 127.132,316.323 126.783 C 316.323 126.434,316.038 126.149,315.689 126.149 C 315.341 126.149,315.055 126.533,315.055 127.003 C 315.055 127.472,314.485 128.515,313.788 129.319 C 312.287 131.048,312.234 131.462,313.390 132.421 C 314.686 133.497,316.192 132.625,316.652 130.533 C 317.017 128.871,317.311 128.685,319.566 128.685 C 321.919 128.685,322.029 128.767,321.358 130.020 C 320.796 131.071,320.251 131.277,318.800 130.987 C 316.366 130.500,316.475 131.152,319.190 133.319 C 322.126 135.662,321.512 136.477,317.213 135.940 C 313.484 135.474,313.503 135.460,314.411 137.850 C 314.934 139.225,315.319 139.430,316.789 139.117 C 318.410 138.771,318.316 138.956,315.531 141.582 C 312.069 144.846,311.826 145.477,314.263 144.870 C 318.812 143.737,324.199 139.461,321.078 139.461 C 320.596 139.461,320.025 139.176,319.810 138.827 C 319.581 138.457,320.226 138.193,321.357 138.193 L 323.296 138.193 323.296 142.358 C 323.296 146.314,323.368 146.512,324.723 146.320 C 326.016 146.136,326.166 145.724,326.335 141.902 L 326.521 137.687 329.188 137.400 C 331.314 137.171,332.063 137.371,332.882 138.386 C 334.100 139.893,335.975 139.448,335.975 137.652 C 335.975 136.296,333.843 134.675,331.182 134.007 C 329.731 133.643,329.495 133.744,329.819 134.589 C 330.209 135.604,326.913 136.757,325.227 136.196 C 324.554 135.971,335.095 130.121,336.292 130.054 C 337.636 129.980,337.222 128.183,335.619 127.133 C 334.402 126.336,333.746 126.223,333.244 126.724 C 332.130 127.839,325.832 127.619,325.832 126.466 C 325.832 125.695,326.853 125.515,331.220 125.515 C 335.621 125.515,336.609 125.338,336.609 124.551 C 336.609 122.958,333.456 121.839,332.713 123.167 C 332.263 123.971,331.265 124.245,328.812 124.238 C 326.686 124.231,325.825 124.031,326.389 123.674 C 327.706 122.840,326.635 121.712,324.527 121.712 C 323.047 121.712,322.662 121.990,322.662 123.063 M352.361 122.778 C 351.698 123.577,350.680 123.701,347.199 123.410 C 343.985 123.140,342.929 123.242,343.115 123.805 C 343.271 124.276,345.092 124.635,347.911 124.750 L 352.456 124.937 352.456 126.877 C 352.456 128.912,350.669 129.170,346.369 127.756 C 345.155 127.357,344.999 127.619,344.624 130.695 C 344.397 132.553,344.037 134.715,343.823 135.499 C 343.491 136.714,343.680 136.926,345.092 136.926 C 346.005 136.926,346.751 136.640,346.751 136.292 C 346.751 135.943,348.035 135.658,349.604 135.658 C 352.794 135.658,352.964 136.021,351.776 140.302 C 351.110 142.699,351.073 142.723,348.610 142.306 C 345.831 141.837,345.036 142.969,347.679 143.633 C 348.538 143.848,349.417 144.579,349.632 145.256 C 349.924 146.176,350.371 146.381,351.398 146.066 C 353.718 145.356,354.262 144.569,355.012 140.838 C 355.410 138.861,356.012 136.721,356.351 136.083 C 357.430 134.052,353.978 131.806,352.773 133.756 C 351.871 135.216,347.208 134.499,347.619 132.964 C 347.830 132.179,348.006 131.181,348.010 130.745 C 348.016 130.264,348.890 129.952,350.238 129.952 C 351.458 129.952,352.456 130.238,352.456 130.586 C 352.456 131.508,354.987 131.365,355.275 130.428 C 356.951 124.977,354.932 119.679,352.361 122.778 M361.158 133.597 C 361.237 140.135,361.309 145.717,361.317 146.003 C 361.325 146.289,361.973 146.431,362.758 146.320 C 364.167 146.120,364.186 145.984,364.358 135.070 C 364.453 128.994,364.808 123.691,365.145 123.284 C 366.002 122.251,365.256 121.712,362.969 121.712 L 361.014 121.711 361.158 133.597 M375.911 122.731 C 375.911 123.502,375.525 123.654,374.326 123.353 C 373.157 123.059,372.742 123.208,372.742 123.918 C 372.742 124.525,373.333 124.881,374.343 124.881 C 376.103 124.881,375.403 127.373,373.107 129.278 C 371.945 130.242,372.373 131.322,373.713 130.808 C 374.384 130.550,374.643 130.911,374.643 132.103 C 374.643 133.333,374.968 133.756,375.911 133.756 C 376.609 133.756,377.179 133.471,377.179 133.122 C 377.179 132.185,378.280 132.349,380.131 133.562 C 382.050 134.820,381.080 135.532,377.338 135.613 C 373.661 135.693,375.162 136.858,379.239 137.090 L 383.201 137.315 378.922 137.437 C 373.419 137.594,373.279 138.827,378.764 138.827 C 381.088 138.827,382.884 139.104,382.884 139.461 C 382.884 139.834,380.672 140.095,377.516 140.095 C 373.305 140.095,372.217 140.277,372.472 140.940 C 372.717 141.580,374.013 141.714,377.840 141.492 C 381.336 141.290,382.884 141.420,382.884 141.915 C 382.884 142.309,382.029 142.631,380.983 142.631 C 379.937 142.631,379.081 142.916,379.081 143.265 C 379.081 143.613,379.474 143.899,379.954 143.899 C 380.435 143.899,381.250 144.534,381.765 145.310 C 383.154 147.402,386.054 146.028,386.054 143.278 L 386.054 141.363 391.759 141.363 C 398.327 141.363,398.133 141.528,395.249 138.387 C 394.030 137.060,393.032 135.637,393.030 135.225 C 393.026 134.341,390.710 133.456,388.906 133.649 C 387.828 133.764,387.873 133.649,389.205 132.881 C 390.612 132.068,391.010 132.115,393.140 133.341 C 395.503 134.701,395.512 134.701,396.467 133.438 C 397.831 131.632,397.724 131.410,395.268 130.949 L 393.071 130.537 394.094 128.392 C 394.656 127.213,395.716 126.091,396.449 125.899 L 397.781 125.551 396.377 124.147 C 395.054 122.823,394.906 122.804,393.792 123.812 C 392.526 124.957,390.491 125.258,390.491 124.300 C 390.491 123.980,390.827 123.607,391.237 123.470 C 391.648 123.333,391.774 122.882,391.517 122.467 C 390.859 121.402,388.163 121.526,387.735 122.640 C 387.423 123.454,387.161 123.454,385.607 122.644 C 383.249 121.413,380.349 121.424,380.349 122.662 C 380.349 123.185,380.072 123.613,379.735 123.613 C 379.397 123.613,379.285 123.185,379.485 122.662 C 379.762 121.943,379.371 121.712,377.881 121.712 C 376.494 121.712,375.911 122.013,375.911 122.731 M135.235 124.889 C 136.707 127.613,138.377 128.018,138.705 125.728 C 138.915 124.257,136.785 122.345,134.935 122.345 C 133.976 122.345,134.008 122.616,135.235 124.889 M173.693 126.466 C 173.693 128.632,173.632 128.685,171.157 128.685 C 168.682 128.685,168.621 128.632,168.621 126.466 C 168.621 124.300,168.682 124.247,171.157 124.247 C 173.632 124.247,173.693 124.300,173.693 126.466 M182.054 126.466 L 182.313 128.685 179.587 128.685 C 176.895 128.685,176.862 128.658,176.862 126.466 C 176.862 124.310,176.932 124.247,179.328 124.247 C 181.675 124.247,181.807 124.355,182.054 126.466 M236.009 127.024 C 236.913 129.677,236.902 129.786,235.752 129.485 C 234.830 129.244,234.548 128.594,234.548 126.709 C 234.548 123.543,234.845 123.606,236.009 127.024 M239.620 125.832 C 239.620 126.704,239.527 127.417,239.413 127.417 C 239.300 127.417,238.537 126.704,237.718 125.832 L 236.229 124.247 237.924 124.247 C 239.310 124.247,239.620 124.537,239.620 125.832 M200.951 127.100 C 200.951 128.649,200.664 129.319,200.000 129.319 C 199.336 129.319,199.049 128.649,199.049 127.100 C 199.049 125.550,199.336 124.881,200.000 124.881 C 200.664 124.881,200.951 125.550,200.951 127.100 M207.290 126.861 C 207.290 128.522,207.142 128.717,206.367 128.074 C 205.859 127.652,205.146 127.492,204.782 127.717 C 204.388 127.960,204.120 127.469,204.120 126.503 C 204.120 125.196,204.428 124.881,205.705 124.881 C 207.057 124.881,207.290 125.172,207.290 126.861 M380.349 125.515 C 380.349 125.864,380.902 126.149,381.579 126.149 C 382.256 126.149,382.986 125.864,383.201 125.515 C 383.995 124.230,387.234 124.763,386.879 126.120 C 386.581 127.261,386.440 127.284,385.095 126.403 C 384.122 125.765,383.498 125.669,383.223 126.115 C 382.995 126.482,381.987 126.783,380.983 126.783 C 379.154 126.783,378.125 126.048,378.887 125.287 C 379.503 124.670,380.349 124.802,380.349 125.515 M270.661 126.307 C 270.610 128.320,269.034 129.382,267.922 128.153 C 266.359 126.426,266.655 125.515,268.780 125.515 C 269.889 125.515,270.673 125.845,270.661 126.307 M297.306 126.783 C 297.306 127.628,296.883 128.051,296.038 128.051 C 295.193 128.051,294.770 127.628,294.770 126.783 C 294.770 125.938,295.193 125.515,296.038 125.515 C 296.883 125.515,297.306 125.938,297.306 126.783 M303.011 126.783 C 303.011 127.628,302.588 128.051,301.743 128.051 C 300.898 128.051,300.475 127.628,300.475 126.783 C 300.475 125.938,300.898 125.515,301.743 125.515 C 302.588 125.515,303.011 125.938,303.011 126.783 M243.423 127.397 C 243.423 128.221,243.114 128.526,242.512 128.295 C 242.011 128.103,241.757 127.542,241.946 127.047 C 242.454 125.725,243.423 125.954,243.423 127.397 M391.759 126.414 C 391.759 127.813,390.887 128.642,390.100 127.989 C 388.847 126.950,389.018 126.149,390.491 126.149 C 391.189 126.149,391.759 126.268,391.759 126.414 M232.013 129.746 L 232.013 132.709 230.424 131.217 L 228.836 129.725 230.218 128.254 C 232.030 126.325,232.013 126.311,232.013 129.746 M266.748 129.603 C 267.375 130.980,267.231 131.344,265.473 132.823 L 263.490 134.491 262.693 133.014 C 261.987 131.708,262.087 131.336,263.554 129.794 C 265.585 127.660,265.855 127.644,266.748 129.603 M388.901 130.596 C 388.685 130.944,387.646 131.676,386.590 132.222 C 384.247 133.434,384.498 131.222,386.928 129.248 C 388.337 128.105,389.816 129.115,388.901 130.596 M291.484 130.422 C 291.185 133.015,289.065 133.199,289.065 130.633 C 289.065 129.086,289.335 128.685,290.375 128.685 C 291.429 128.685,291.646 129.024,291.484 130.422 M332.181 129.933 C 331.609 131.003,331.286 131.078,329.925 130.458 C 328.505 129.812,328.098 129.965,326.105 131.896 C 324.252 133.693,323.773 133.899,323.271 133.115 C 322.843 132.444,322.972 131.988,323.719 131.537 C 324.297 131.189,325.223 130.428,325.776 129.847 C 327.376 128.168,333.085 128.245,332.181 129.933 M297.306 130.903 C 297.306 132.066,296.968 132.488,296.038 132.488 C 295.108 132.488,294.770 132.066,294.770 130.903 C 294.770 129.741,295.108 129.319,296.038 129.319 C 296.968 129.319,297.306 129.741,297.306 130.903 M303.011 130.903 C 303.011 132.066,302.673 132.488,301.743 132.488 C 300.814 132.488,300.475 132.066,300.475 130.903 C 300.475 129.741,300.814 129.319,301.743 129.319 C 302.673 129.319,303.011 129.741,303.011 130.903 M173.693 132.488 L 173.693 135.024 170.840 135.024 C 167.804 135.024,167.773 134.985,168.384 131.933 C 169.077 128.468,173.693 128.951,173.693 132.488 M182.567 132.488 L 182.567 135.024 179.715 135.024 L 176.862 135.024 176.862 132.488 L 176.862 129.952 179.715 129.952 L 182.567 129.952 182.567 132.488 M379.081 130.586 C 379.081 130.935,378.653 131.220,378.130 131.220 C 377.607 131.220,377.179 130.935,377.179 130.586 C 377.179 130.238,377.607 129.952,378.130 129.952 C 378.653 129.952,379.081 130.238,379.081 130.586 M150.872 131.857 C 150.872 132.158,149.414 133.900,147.632 135.729 L 144.393 139.055 143.234 137.519 C 142.116 136.036,142.059 136.027,141.616 137.247 C 138.915 144.677,136.329 142.321,138.624 134.521 L 139.688 130.903 145.280 131.107 C 148.355 131.219,150.872 131.556,150.872 131.857 M259.500 131.537 C 259.753 132.196,259.457 132.488,258.540 132.488 C 257.433 132.488,257.344 132.331,258.003 131.537 C 258.437 131.014,258.870 130.586,258.964 130.586 C 259.058 130.586,259.300 131.014,259.500 131.537 M237.718 132.488 C 237.718 133.418,237.295 133.756,236.133 133.756 C 234.971 133.756,234.548 133.418,234.548 132.488 C 234.548 131.558,234.971 131.220,236.133 131.220 C 237.295 131.220,237.718 131.558,237.718 132.488 M243.423 132.209 C 243.423 132.752,243.125 133.013,242.761 132.788 C 242.398 132.563,241.684 132.724,241.177 133.145 C 240.047 134.083,239.956 133.406,241.046 132.169 C 242.108 130.963,243.423 130.985,243.423 132.209 M270.903 134.051 C 272.560 135.306,271.655 136.292,268.848 136.292 C 265.685 136.292,265.230 135.694,267.355 134.332 C 269.495 132.959,269.465 132.962,270.903 134.051 M293.986 134.470 C 295.888 133.453,297.306 133.587,297.306 134.785 C 297.306 135.645,296.733 135.767,293.819 135.526 C 291.193 135.308,290.333 135.445,290.333 136.081 C 290.333 136.597,291.073 136.926,292.235 136.926 C 293.419 136.926,294.136 137.252,294.136 137.791 C 294.136 138.267,294.732 139.413,295.459 140.338 L 296.782 142.020 294.033 143.208 C 288.447 145.623,288.721 145.783,288.958 140.248 C 289.192 134.790,290.455 132.180,291.902 134.159 C 292.503 134.981,292.917 135.043,293.986 134.470 M231.093 135.658 C 231.701 135.658,232.013 136.332,232.013 137.648 L 232.013 139.638 230.428 137.303 C 229.556 136.018,228.852 134.624,228.862 134.203 C 228.873 133.783,229.172 133.938,229.528 134.548 C 229.883 135.158,230.588 135.658,231.093 135.658 M302.377 134.707 C 301.943 135.230,301.204 135.658,300.735 135.658 C 300.237 135.658,300.033 135.262,300.246 134.707 C 300.447 134.184,301.186 133.756,301.889 133.756 C 302.952 133.756,303.034 133.915,302.377 134.707 M226.307 135.658 C 226.307 136.006,225.880 136.292,225.357 136.292 C 224.834 136.292,224.406 136.006,224.406 135.658 C 224.406 135.309,224.834 135.024,225.357 135.024 C 225.880 135.024,226.307 135.309,226.307 135.658 M243.423 137.280 C 243.423 138.925,243.209 139.402,242.631 139.043 C 242.195 138.771,241.197 138.632,240.412 138.734 C 239.202 138.890,238.986 138.622,238.986 136.971 C 238.986 135.168,239.150 135.024,241.204 135.024 C 243.324 135.024,243.423 135.124,243.423 137.280 M256.735 135.915 C 256.735 136.495,256.292 136.691,255.468 136.475 C 254.770 136.293,254.200 135.892,254.200 135.584 C 254.200 135.276,254.770 135.024,255.468 135.024 C 256.165 135.024,256.735 135.425,256.735 135.915 M391.468 136.883 C 390.953 137.717,386.054 137.789,386.054 136.962 C 386.054 136.633,387.266 136.277,388.748 136.170 C 391.878 135.943,392.025 135.982,391.468 136.883 M300.494 138.158 C 299.388 140.224,298.516 140.325,296.779 138.588 L 295.116 136.926 298.135 136.926 C 300.929 136.926,301.105 137.017,300.494 138.158 M271.315 140.412 C 271.315 143.250,271.304 143.265,269.097 143.265 C 266.890 143.265,266.878 143.250,266.878 140.412 C 266.878 137.575,266.890 137.559,269.097 137.559 C 271.304 137.559,271.315 137.575,271.315 140.412 M328.368 140.088 C 329.239 140.826,330.879 142.262,332.012 143.278 C 334.279 145.312,336.163 145.204,335.850 143.058 C 335.613 141.438,332.692 139.691,329.319 139.152 L 326.783 138.747 328.368 140.088 M393.344 139.461 C 393.128 139.810,391.400 140.095,389.503 140.095 C 387.606 140.095,386.054 139.810,386.054 139.461 C 386.054 139.108,387.757 138.827,389.895 138.827 C 392.294 138.827,393.589 139.065,393.344 139.461 " stroke="none" fill="#000000" fill-rule="evenodd"></path></g></svg>