<svg xmlns="http://www.w3.org/2000/svg" width="892" height="316" fill="none"><path fill="#410002" d="M761.169 183.664c0-27.719 21.372-60.793 57.735-60.793h26.794l-9.569 30.239c-11.164 36.224-29.027 58.588-50.718 58.588-15.63 0-24.242-10.709-24.242-28.034Zm-136.204-15.119c-13.397 42.523 7.017 71.818 53.269 71.818 6.699 0 15.63-.63 18.182-1.26 1.276-.315 1.914-.945 2.552-2.52l7.974-26.46c.319-1.574 0-2.834-2.232-2.519-7.018.63-13.398 1.26-19.139 1.26-23.286 0-32.855-12.285-25.837-34.335l16.267-51.658h47.209c1.276 0 2.233-.63 2.871-2.205l8.294-26.7745c.319-1.575-.319-2.52-2.233-2.52H685.89l6.06-19.5294c.319-1.26 0-2.205-.956-3.15l-24.562-22.0494c-1.276-1.26-2.871-.945-3.509.945L624.965 168.545Zm-162.679.945c-13.717 43.153 8.293 71.503 42.743 71.503 19.776 0 35.406-9.45 46.571-24.885l-.319 19.845c0 1.89.957 2.52 2.552 2.52h22.009c1.595 0 2.233-.63 2.871-2.205l44.338-142.0615c.638-1.89-.319-2.835-1.914-2.835h-31.579c-1.595 0-2.552.63-2.871 2.205l-18.819 59.8485c-11.803 37.169-30.303 58.273-49.761 58.273-19.458 0-27.751-15.119-20.415-38.429l24.881-79.0625c.638-1.89-.319-2.835-1.914-2.835H489.08c-1.595 0-2.233.63-2.871 2.205L462.286 169.49Zm-107.496-.945c-13.397 42.523 7.017 71.818 53.269 71.818 6.699 0 15.63-.63 18.182-1.26 1.276-.315 1.914-.945 2.552-2.52l7.974-26.46c.319-1.574 0-2.834-2.233-2.519-7.017.63-13.397 1.26-19.138 1.26-23.286 0-32.855-12.285-25.838-34.335l16.268-51.658h47.209c1.276 0 2.552-.63 2.871-2.205l8.293-26.7745c.319-1.575-.319-2.52-2.232-2.52h-46.571l6.06-19.5294c.319-1.26 0-2.205-.957-3.15l-24.561-22.0494c-1.276-1.26-2.871-.945-3.509.945L354.79 168.545Zm419.138 72.448c18.501 0 33.812-8.19 45.295-24.885v19.845c0 1.575.957 2.52 2.552 2.52h22.009c1.595 0 2.233-.63 2.871-2.205l44.657-142.3765c.319-1.575-.319-2.8349-1.914-2.8349h-69.537c-67.942 0-94.418 58.2734-94.418 96.0724 0 33.074 20.734 53.864 48.485 53.864Z"/><path fill="#850122" d="M25.284 3.80373 79.8294 58.2973c1.2759 1.26 2.5518 1.575 4.4657 1.575H314.279c1.595 0 2.552-1.89.957-3.4649L261.329 2.54376c-1.276-1.25997-2.552-1.889951-5.104-1.889951H26.5599c-2.2328 0-2.5518 1.889951-1.2759 3.149921ZM17.3097 313.125c-.319 1.26.319 2.52 1.9139 2.52H246.018c2.233 0 3.19-.945 3.828-2.835l68.58-218.604c.638-2.2049-.319-2.8349-2.233-2.8349H88.761c-1.9138 0-2.5518.63-3.1897 2.2049L17.3097 313.125ZM.0848389 250.126c0 2.52 3.1897911 2.52 3.8277511 0L55.9062 82.8657c.6379-1.89.6379-3.1499-.957-4.7249L3.27463 27.4271c-1.27592-1.26-3.1897911-.63-3.1897911.945V250.126Z"/></svg>