<?xml version="1.0" standalone="yes"?>
<svg xmlns="http://www.w3.org/2000/svg" width="1024" height="1024">
<path style="fill:#dba77b; stroke:none;" d="M0 0L0 102C0 111.955 -3.88935 132.512 1.6034 140.985C14.6882 161.17 53.0251 161.579 72 153C114.991 133.562 164.483 83.4442 154.804 32C153.181 23.3714 151.619 8.06036 145.031 1.60339C142.595 -0.78418 138.105 0.000183105 135 0L108 0L0 0z"/>
<path style="fill:#30abbb; stroke:none;" d="M145 0C149.884 17.0849 158.438 33.578 155.561 52C149.904 88.2206 124.508 117.004 96 138.373C84.9032 146.692 69.2842 157.154 55 158.366C33.6625 160.175 16.8298 151.714 0 140L0 188C0 194.637 -1.58621 203.681 0.588735 210C2.52282 215.619 8.08541 219.56 11.7369 224C14.6184 227.504 18.2981 239.376 23.0957 240.079C28.1143 240.814 37.3432 227.318 41 224.213C47.4775 218.713 59.1162 216.067 64.2585 209.61C66.7643 206.463 67.2288 200.799 68.4938 197C71.0529 189.315 74.6767 182.286 78.1698 175C95.9265 137.962 141.211 103.588 182 97.2747C217.024 91.8539 269.87 100.868 294.907 128.001C299.919 133.432 302.277 140.514 307.185 145.985C313.998 153.579 324.009 159.376 329.522 168.039C333.882 174.892 341.479 189.973 350.895 190.963C354.066 191.296 355.585 187.229 356.756 184.996C360.228 178.376 364.581 172.099 368.9 166.001C380.422 149.733 400.165 139.793 419 134.924C428.986 132.342 438.214 136.534 448 135.776C459.386 134.895 469.105 130 481 130C487.683 130 500.867 134.744 506.566 130.821C510.319 128.238 511.599 117.34 514.899 113C520.133 106.115 527.228 100.931 532.392 94C544.365 77.9301 552.465 61.3811 572 53.2284C588.439 46.3679 608.646 45.1075 626 48.6003C635.582 50.5289 646.047 57.2144 656 55.6705C675.846 52.5923 690.666 27.3723 703 13.4252C707.515 8.32001 713.671 5.10065 718 0L479 0C439.838 0 398.997 -3.37817 360.004 0.0586548C351.521 0.806274 348.782 12.3852 343.535 17.7863C338.017 23.4673 326.71 26.1495 319 26.2894C301.03 26.6152 285.184 18.1403 270 9.625C265.389 7.03882 260.929 1.57794 255.83 0.303223C245.137 -2.37024 231.027 0 220 0L145 0z"/>
<path style="fill:#dba77b; stroke:none;" d="M258 0C262.27 7.99213 274.067 13.0523 282 16.8325C299.042 24.9538 325.931 33.042 342.7 19.3511C348.354 14.7351 352.489 6.30707 356 0L258 0M718 0L719 1L718 0z"/>
<path style="fill:#f2f5f1; stroke:none;" d="M0 211L0 344L392 233.561L560 185.961L620 169.255L648 161L646 116C651.287 117.67 650.992 122.093 651 127C651.018 137.885 650.633 148.184 652 159L685 151.374L767 127.569L931 82.5154L1000 64.0038L1022.4 57.0625L1024 42L1024 0L816 0L751 0C741.419 0 729.283 -1.99561 720 0.42981C692.905 7.50891 685.589 48.1011 658 55.3549C646.707 58.3242 634.152 50.576 623 48.615C606.452 45.7049 586.602 47.697 571 53.8117C551.769 61.3484 543.742 78.5423 531.96 94C527.169 100.286 520.652 104.768 515.843 111.001C511.868 116.154 510.247 129.1 504.944 131.643C498.034 134.957 482.167 129.679 474 130.039C464.981 130.438 456.696 135.283 447.996 135.835C443.276 136.134 438.721 134.081 434 134.079C420.794 134.074 407.653 137.423 396 143.552C381.284 151.292 371.783 161.494 362.435 175C360.122 178.342 355.567 190.768 350.995 190.794C343.959 190.834 333.677 175.45 330.741 170C325.403 160.092 314.909 154.004 307.465 145.829C302.577 140.462 300.593 133.398 295.815 128.004C275.536 105.11 231.307 96.1655 201.996 96.0031C152.968 95.7316 106.552 128.409 81.3233 169C76.1105 177.387 71.9653 186.707 68.6914 196C67.2783 200.011 66.9624 206.299 64.2585 209.582C59.0249 215.935 46.7099 219.096 40 224.39C36.1701 227.411 28.7874 239.944 23.9537 239.944C20.4253 239.944 18.6611 234.453 17.2438 232C12.8164 224.336 6.91208 216.591 0 211z"/>
<path style="fill:#dba77b; stroke:none;" d="M714 3L715 4L714 3M712 4L713 5L712 4M711 5L712 6L711 5M708 7L709 8L708 7M707 8L708 9L707 8M706 9L707 10L706 9M704 11L705 12L704 11M702 13L703 14L702 13M696 20L697 21L696 20M695 21L696 22L695 21M694 22L695 23L694 22M691 26L692 27L691 26M689 28L690 29L689 28M685 33L686 34L685 33M684 34L685 35L684 34M682 36L683 37L682 36M680 38L681 39L680 38M675 44L676 45L675 44M595 47L595 48L612 48L595 47M613 47L613 48L621 48L613 47M672 47L673 48L672 47M590 48L590 49L594 49L590 48M622 48L622 49L626 49L622 48M671 48L672 49L671 48M583 49L583 50L586 50L583 49M627 49L627 50L631 50L627 49M670 49L671 50L670 49M579 50L579 51L582 51L579 50M632 50L632 51L635 51L632 50M576.667 51.3333L577.333 51.6667L576.667 51.3333M635.667 51.3333L636.333 51.6667L635.667 51.3333M666 51L667 52L666 51M573.667 52.3333L574.333 52.6667L573.667 52.3333M638.667 52.3333L639.333 52.6667L638.667 52.3333M665 52L666 53L665 52M571 53L572 54L571 53M640.667 53.3333L641.333 53.6667L640.667 53.3333M663 53L664 54L663 53M568.667 54.3333L569.333 54.6667L568.667 54.3333M644.667 54.3333L645.333 54.6667L644.667 54.3333M660.667 54.3333L661.333 54.6667L660.667 54.3333M647 55L647 56L650 56L647 55M657 55L658 56L657 55M564 56L565 57L564 56M651 56L651 57L654 57L651 56z"/>
<path style="fill:#30abbb; stroke:none;" d="M1023 57C976.756 74.4465 926.427 82.5547 879 96.4244C841.494 107.393 803.445 116.563 766 127.721C728.775 138.812 691.245 151.794 653 159C653.243 170.786 656.693 194.391 666.264 202.44C679.727 213.762 699.723 215.308 714 225.757C735.095 241.196 748.119 265.985 749.911 292C750.941 306.967 746.029 322.092 746.029 337C746.029 350.005 752.49 361.993 742.945 373.863C740.15 377.339 736.739 375.974 733.56 378.204C728.223 381.947 728.101 388.755 721 391.945C711.032 396.424 698.632 393.063 696.435 406C694.237 418.943 693.137 431.944 691.831 445C691.432 448.988 689.017 455.8 690.643 459.582C692.629 464.202 704.816 467.917 708.895 471.515C720.242 481.522 717.942 499.879 711.865 511.999C706.156 523.385 692.807 529.573 684.3 538.188C673.242 549.388 665.049 563.135 652.999 573.575C647.912 577.983 628.948 586.593 628.399 593.019C627.438 604.258 633.11 616.259 635.549 627C638.594 640.411 639.906 654.435 641.791 668C651.789 739.958 661.171 812.079 672.275 884C676.856 913.674 682.041 943.167 685.17 973C685.891 979.876 688.972 986.619 688.972 993.576C688.973 1003.74 684.852 1014.07 683 1024L876 1024C876.986 976.236 948.598 975.471 949 1024L1024 1024L1024 338L1024 140L1024 83L1023 57z"/>
<path style="fill:#dba77b; stroke:none;" d="M562 58L563 59L562 58M560 59L561 60L560 59M557 61L558 62L557 61M556 62L557 63L556 62M553 64L554 65L553 64M552 65L553 66L552 65M551 66L552 67L551 66M550 67L551 68L550 67M549 68L550 69L549 68M547 71L548 72L547 71M546 73L547 74L546 73M545 74L546 75L545 74M543 77L544 78L543 77M540 82L541 83L540 82M539.333 83.6667L539.667 84.3333L539.333 83.6667M536 87L537 88L536 87M534 90L535 91L534 90M533 92L534 93L533 92M198 95L199 96L198 95M882 95L883 96L882 95M187 96L187 97L194 97L187 96M208 96L209 97L208 96M212 96L213 97L212 96M180.667 97.3333L181.333 97.6667L180.667 97.3333M529 97L530 98L529 97M175.667 98.3333L176.333 98.6667L175.667 98.3333M225 98L225 99L229 99L225 98M528 98L529 99L528 98M232.667 99.3333L233.333 99.6667L232.667 99.3333M527 99L528 100L527 99M237 100L238 101L237 100M526 100L527 101L526 100M165 101L166 102L165 101M240 101L241 102L240 101M162 102L163 103L162 102M243 102L244 103L243 102M245.667 102.333L246.333 102.667L245.667 102.333M248 103L249 104L248 103M523 103L524 104L523 103M250.667 104.333L251.333 104.667L250.667 104.333M154 105L155 106L154 105M253.667 105.333L254.333 105.667L253.667 105.333M152.667 106.333L153.333 106.667L152.667 106.333M258 106L259 107L258 106z"/>
<path style="fill:#ba7d4a; stroke:none;" d="M128 107L129 108L128 107z"/>
<path style="fill:#dba77b; stroke:none;" d="M151 107L152 108L151 107M260 107L261 108L260 107M262 108L263 109L262 108M147 109L148 110L147 109M265 109L266 110L265 109M268 110L269 111L268 110M516 110L517 111L516 110M270 111L271 112L270 111M141 112L142 113L141 112M274 113L275 114L274 113M138 114L139 115L138 114M276 114L277 115L276 114M137 115L138 116L137 115M278 115L279 116L278 115M512 116L513 117L512 116M646 116L646 125L647 125L646 116z"/>
<path style="fill:#ba7d4a; stroke:none;" d="M647 116C647.003 145.31 646.412 175.963 660 203C633.29 204.223 627.622 247.109 656 249.895C664.983 250.777 674.662 249.547 680.867 242.24C693.899 226.892 681.866 205.678 664 203L658.345 187L651.133 157L649 116L647 116z"/>
<path style="fill:#dba77b; stroke:none;" d="M649 116L650 117L649 116M133 117L134 118L133 117M511 117L512 118L511 117M132 118L133 119L132 118M650 118L650 129L651 129L650 118M128 120L129 121L128 120M286 120L287 121L286 120M509 120L510 121L509 120M126 121L127 122L126 121M288 121L289 122L288 121M124 122L125 123L124 122M122 124L123 125L122 124M509.333 125.667L509.667 126.333L509.333 125.667M120 126L121 127L120 126M647 126L647 134L648 134L647 126M766 127L767 128L766 127M508 129L509 130L508 129M115 130L116 131L115 130M466 130L466 131L470 131L466 130M490 130L490 131L493 131L490 130M650 130L650 144L651 144L650 130M462 131L462 132L465 132L462 131M506 131L507 132L506 131M460 132L461 133L460 132M500 132L500 133L504 133L500 132M110 134L111 135L110 134M420 134L420 135L430 135L420 134M454 134L455 135L454 134M646 134L646 151L647 151L646 134M416 135L416 136L419 136L416 135M443 135L444 136L443 135M450.667 135.333L451.333 135.667L450.667 135.333M414 136L415 137L414 136M301 137L302 138L301 137M410 137L411 138L410 137M406 138L407 139L406 138M302 139L303 140L302 139M404 139L405 140L404 139M402 140L403 141L402 140M304 142L305 143L304 142M397.667 142.333L398.333 142.667L397.667 142.333M101 143L102 144L101 143M394 144L395 145L394 144M392 145L393 146L392 145M98 146L99 147L98 146M307 146L308 147L307 146M390 146L391 147L390 146M308 147L309 148L308 147M650 147L650 150L651 150L650 147M385 149L386 150L385 149M384 150L385 151L384 150M313 151L314 152L313 151M647 151L647 156L648 156L647 151M650 151L650 154L651 154L650 151M91 154L92 155L91 154M317 155L318 156L317 155M378 155L379 156L378 155M651 155L652 162L653 162L651 155M318 156L319 157L318 156M377 156L378 157L377 156M648 157L648 161L649 161L648 157M87 159L88 160L87 159M321 159L322 160L321 159M374 159L375 160L374 159M322 160L323 161L322 160M86 161L87 162L86 161z"/>
<path style="fill:#30abbb; stroke:none;" d="M0 568C8.3443 566.279 15.6952 565.085 24 567.903C52.9335 577.72 48.107 624.406 17 626.776C10.7797 627.25 5.2683 623.771 0 621L0 1024L405 1024C399.363 1010.6 388.306 998.337 380.53 986C367.182 964.822 354.285 943.331 341.203 921.996C323.529 893.173 307.845 863.197 290.858 834C261.952 784.316 231.336 735.327 207.309 683C198.051 662.839 192.883 643.234 187.286 622C182.191 602.667 175.925 583.191 175.039 563C174.423 548.934 176.465 534.872 178.289 521C179.104 514.806 182.115 507.184 181.136 501C178.568 484.788 170.173 468.291 164.425 453C160.993 443.87 159.198 434.168 155.91 425C152.741 416.166 147.835 407.5 147 398L136 396C122.931 394.63 122.571 374.969 129.279 367.044C135.27 359.966 141.313 363.063 149 364L149 365L145 368C153.828 364.259 162.952 366.944 172 368.576C187.164 371.31 202.007 374.41 217 378C223.359 379.523 231.44 383.287 238 382.686C246.64 381.894 251.098 374.575 257.001 369.424C266.603 361.045 277.453 352.893 289 347.323C306.089 339.08 326.091 333.007 345 331.17C357.629 329.943 374.265 332.112 385.697 325.49C391.074 322.375 391.191 309.496 392.425 304C396.31 286.695 412.289 244.665 436.086 252.383C444.966 255.264 451.759 269.14 455.306 277C466.24 301.234 474.098 327.064 485.644 351C492.682 365.589 510.709 375.522 521.911 387.039C534.42 399.902 543.128 415.098 554.248 429C562.031 438.729 572.584 446.39 580 456L570 460L579 477L580 477L578 463C585.064 460.647 586.622 465.097 589.293 471C590.031 472.631 592.345 476.419 590.292 477.955C588.359 479.402 583.965 476.627 582 476C580.157 484.87 588.593 491.68 592.319 499C600.951 515.953 605.446 535.051 614 552C631.137 539.82 632.683 513.41 638.749 495C641.246 487.423 646.142 479.354 651.619 473.579C654.683 470.349 661.064 467.013 662.647 462.826C664.265 458.55 660.759 451.407 660.158 447C658.597 435.556 656.958 424.353 654.509 413C653.603 408.8 653.552 401.984 650.986 398.433C648.29 394.701 639.205 394.74 635 393.074C623.555 388.541 612.092 381.849 607.257 370C603.944 361.881 603.626 353.392 601.698 345C600.495 339.765 595.607 336.262 594.434 331C593.389 326.314 595.171 320.839 594.961 316C594.108 296.352 597.591 272.464 607.978 255C615.206 242.848 624.796 236.694 634.697 227.367C638.267 224.003 638.284 218.128 640.779 214.004C645.023 206.988 651.794 204.764 659 202L649.665 173L646.397 162.121L637 163.424L613 170.651L508 200.154L152 301.265L42 332.652L13 340.421L1.6034 343.938L0 359L0 400L0 568z"/>
<path style="fill:#dba77b; stroke:none;" d="M647 161L648 162L647 161M370 163L371 164L370 163M327 164L328 165L327 164M369 164L370 165L369 164M653.333 165.667L653.667 166.333L653.333 165.667M648 166L648 169L649 169L648 166M82 167L83 168L82 167M329 167L330 168L329 167M330 169L331 170L330 169M366 169L367 170L366 169M80 170L81 171L80 170M649 170L649 173L650 173L649 170M331 171L332 172L331 171M654 171L654 174L655 174L654 171M364 172L365 173L364 172M78 173L79 174L78 173M363 173L364 174L363 173M333 175L334 176L333 175M650.333 175.667L650.667 176.333L650.333 175.667M655 175L655 178L656 178L655 175M77 176L78 177L77 176M651 177L652 178L651 177M335 178L336 179L335 178M336 179L337 180L336 179M359 179L360 180L359 179M656.333 179.667L656.667 180.333L656.333 179.667M75 180L76 181L75 180M652.333 180.667L652.667 181.333L652.333 180.667M358 181L359 182L358 181M74 182L75 183L74 182M657.333 183.667L657.667 184.333L657.333 183.667M342 184L343 185L342 184M343 185L344 186L343 185M355 187L356 188L355 187M654.333 187.667L654.667 188.333L654.333 187.667M658 187L659 188L658 187M659.333 189.667L659.667 190.333L659.333 189.667M70.3333 190.667L70.6667 191.333L70.3333 190.667M348 190L349 191L348 190M655 190L656 191L655 190M349 191L350 192L349 191M352 191L353 192L352 191M660.333 192.667L660.667 193.333L660.333 192.667M656.333 193.667L656.667 194.333L656.333 193.667M661 194L662 195L661 194M68 196L69 197L68 196M657.333 196.667L657.667 197.333L657.333 196.667M662 197L663 198L662 197M663 198L664 199L663 198M658 200L659 201L658 200M66 202L67 203L66 202M658.667 202.333L659.333 202.667L658.667 202.333M664.667 202.333L665.333 202.667L664.667 202.333M654 203L655 204L654 203M651 204L652 205L651 204M670 204L671 205L670 204M649 205L650 206L649 205M672 205L673 206L672 205M674 206L675 207L674 206M646 207L647 208L646 207M65 208L66 209L65 208M644 208L645 209L644 208M64 210L65 211L64 210M680 210L685 220L686 220L684 212L684 211L680 210M62 211L63 212L62 211M641 212L642 213L641 212z"/>
<path style="fill:#f2f5f1; stroke:none;" d="M682 212C686.112 220.862 688.091 230.649 682.9 239.826C670.509 261.736 638.904 249.463 636 228C613.621 233.135 604.348 261.975 599 281C605.381 282.882 611.575 279.982 618 281.278C623.527 282.392 627.238 287.304 633 287.891C637.7 288.37 642.478 285.763 647 286.742C654.38 288.338 662.835 299.114 670.039 298.461C679.574 297.598 682.011 282.929 688.054 277.289C689.88 275.586 693.485 271.761 696.319 272.612C702.396 274.436 703.888 288.1 706.26 293C714.001 308.992 730.017 314.592 740 328L744 323L745 323L744 336L745 336L746 319C749.35 318.442 747.845 311.952 748.134 309C749.186 298.272 749.67 287.672 747.227 277.074C740.283 246.953 715.183 214.974 682 212z"/>
<path style="fill:#dba77b; stroke:none;" d="M686 212L687 213L686 212M640 213L641 214L640 213M687 213L688 214L687 213M3 214L4 215L3 214M55 214L56 215L55 214M690 214L690 215L693 215L690 214M693.667 215.333L694.333 215.667L693.667 215.333M696 216L697 217L696 216M50 217L51 218L50 217M700.667 218.333L701.333 218.667L700.667 218.333M7 219L8 220L7 219M8 220L9 221L8 220M46 220L47 221L46 220M704.667 220.333L705.333 220.667L704.667 220.333M9 221L10 222L9 221M44 221L45 222L44 221M42 222L43 223L42 222M709 222L710 223L709 222M712 224L713 225L712 224M636 226L637 227L636 226M715 226L716 227L715 226M635 227L636 228L635 227M716 227L717 228L716 227M14 228L15 229L14 228M636 228L636 232L637 232L636 228M717 228L718 229L717 228M15 229L16 230L15 229M631 229L632 230L631 229M718 229L719 230L718 229M629 230L630 231L629 230M719 230L720 231L719 230M685.333 231.667L685.667 232.333L685.333 231.667M721 231L722 232L721 231M637 232L637 236L638 236L637 232M722 232L723 233L722 232M30 234L31 235L30 234M624 234L625 235L624 234M684.333 234.667L684.667 235.333L684.333 234.667M29 235L30 236L29 235M623 235L624 236L623 235M725 235L726 236L725 235M28 236L29 237L28 236M622 236L623 237L622 236M638.333 236.667L638.667 237.333L638.333 236.667M27 237L28 238L27 237M683 237L683 240L684 240L683 237M727 237L728 238L727 237M20 238L21 239L20 238M26.3333 238.667L26.6667 239.333L26.3333 238.667M639 238L639 241L640 241L639 238M619 239L620 240L619 239M25 240L26 241L25 240M618 240L619 241L618 240M682.333 240.667L682.667 241.333L682.333 240.667M23.6667 241.333L24.3333 241.667L23.6667 241.333M640 241L641 242L640 241M641 242L641 244L643 244L641 242M680 242L681 243L680 242M683 242L684 243L683 242M731 243L732 244L731 243M614 244L615 245L614 244M643 244L644 245L643 244M678.667 244.333L679.333 244.667L678.667 244.333M732 244L733 245L732 244M644 245L645 246L644 245M677 245L678 246L677 245M733 245L734 246L733 245M613 246L614 247L613 246M646 246L647 247L646 246M675.667 246.333L676.333 246.667L675.667 246.333M647.667 247.333L648.333 247.667L647.667 247.333M674 247L675 248L674 247M650 248L651 249L650 248M672.667 248.333L673.333 248.667L672.667 248.333M735 248L736 249L735 248M651.667 249.333L652.333 249.667L651.667 249.333M669 249L669 250L672 250L669 249M611 250L612 251L611 250M656 250L656 251L669 251L656 250z"/>
<path style="fill:#f2f5f1; stroke:none;" d="M369 466L370 466C372.523 462.03 377.492 453.378 382.985 453.692C387.059 453.925 388.557 457.695 393 457C396.459 472.963 375.877 472.757 374.133 486.001C373.17 493.32 375.163 500.671 374.985 508C374.729 518.61 372.268 530.746 369.511 541C358.735 581.081 322.254 607.779 283 616.575C269.477 619.605 254.842 620.371 241 620.741C235.452 620.889 228.274 617.401 223 619.112C210.815 623.066 205.175 640.708 193 644C193.397 663.153 208.221 685.182 216.63 702C240.126 748.993 261.964 806.465 312 830.356C341.93 844.648 376.133 851.373 409 845.714C418.808 844.025 439.561 836.702 441.338 825.04C442.092 820.095 435.07 818.265 432.213 815.61C427.126 810.884 425.394 803.244 423 797L440 798C429.815 784.622 403.691 799.748 390 801.7C357.036 806.399 313.962 781.296 308.44 747C307.051 738.376 308.656 728.829 312.515 721C315.497 714.949 319.261 709.779 324.004 705.001C327.904 701.071 331.813 697.249 337 695.093C348.598 690.273 361.452 690.63 371.91 698.105C387.108 708.967 401.223 731.045 423 721.981C448.781 711.25 449.576 654.629 485.015 662.368C499.823 665.602 508.968 683.774 519.17 693.714C541.193 715.173 568.942 727.683 600 720.102C628.404 713.169 637.34 688.229 630.152 662C627.243 651.385 618.381 627.508 635 626C633.279 617.659 624.593 598.207 629.218 590.302C631.679 586.098 640.948 583.818 645 580.957C656.559 572.793 665.479 561.391 674.911 551C677.851 547.761 683.944 541.719 684.169 537.093C684.372 532.921 678.116 530.817 675 529.746C665.994 526.652 640.401 507.373 655.225 496.619C658.982 493.893 663.851 496.856 666.996 499.184C675.246 505.294 681.248 515.222 691 519C694.038 515.034 700.13 521.022 704.985 519.435C712.829 516.872 715.256 505.109 716.535 498C722.035 467.434 682.334 449.241 659.015 466.301C630.561 487.117 637.959 527.825 614 552L591.601 497L570 459L580 456L580 454C555.457 437.237 543.102 408.07 522.829 387.089C510.209 374.028 491.648 364.057 484.281 347C474.573 324.524 466.047 301.571 456.576 279C453.045 270.586 446.883 256.589 437.96 252.707C412.878 241.795 395.994 286.213 392.211 304C390.901 310.155 390.91 317.299 387.606 322.856C384.94 327.339 377.621 327.709 373 328.873C366.373 330.543 361.849 333.329 357.34 338.515C333.969 365.393 324.808 401.591 342.9 434C349.759 446.286 360.186 455.291 369 466z"/>
<path style="fill:#dba77b; stroke:none;" d="M610 251L611 252L610 251M608 253L609 254L608 253M739 254L740 255L739 254M607 255L608 256L607 255M606 257L607 258L606 257M741.333 258.667L741.667 259.333L741.333 258.667M445 260L446 261L445 260M605 260L606 261L605 260M604.333 262.667L604.667 263.333L604.333 262.667M743 263L744 264L743 263M410 264L411 265L410 264M744.333 266.667L744.667 267.333L744.333 266.667M745.333 269.667L745.667 270.333L745.333 269.667M601 270L602 271L601 270M599 281L600 285C596.006 285.585 595.12 291.918 597 295C593.585 297.214 592.796 302.2 596 305L596 306C591.908 309.594 595.999 322.556 596 328L595 328L595 325L594 325L594 333L596 332L596 333C596.591 340.072 603.6 346.582 610 349.16C624.722 355.092 651.871 359.914 664.961 348.671C670.705 343.736 677.355 321.763 686.17 325.663C693.112 328.734 699.42 334.938 706 338.871C709.783 341.133 714.396 342.197 716.914 346.105C722.945 355.461 721.835 378.182 738 376L737 378L742 377L746 371L745 368L746 364L749 351L747 351L746 334L745 334L745 336L744 336L745 323L744 323L740 328C736.502 320.987 728.81 317.779 723.089 312.834C714.019 304.994 707.886 296.206 703.831 285C702.493 281.303 700.248 271.63 694.957 272.172C681.4 273.561 682.709 296.863 670.039 298.044C663.557 298.648 654.618 288.454 648 286.663C643.277 285.384 638.773 288.263 634 287.877C628.227 287.411 624.518 282.393 619 281.278C612.291 279.922 605.694 282.575 599 281M746.333 272.667L746.667 273.333L746.333 272.667M600 275L601 276L600 275M746 275L747 276L746 275M747 277L748 278L747 277M747 280L748 281L747 280M457 281L458 282L457 281M748 282L749 283L748 282z"/>
<path style="fill:#f2f5f1; stroke:none;" d="M599.333 283.667L599.667 284.333L599.333 283.667z"/>
<path style="fill:#dba77b; stroke:none;" d="M748 285L749 286L748 285M459 286L460 287L459 286z"/>
<path style="fill:#f2f5f1; stroke:none;" d="M598.333 287.667L598.667 288.333L598.333 287.667z"/>
<path style="fill:#dba77b; stroke:none;" d="M749 288L749 306L750 306L749 288M461 291L462 292L461 291z"/>
<path style="fill:#f2f5f1; stroke:none;" d="M595.667 294.333L596.333 294.667L595.667 294.333M595.333 296.667L595.667 297.333L595.333 296.667z"/>
<path style="fill:#dba77b; stroke:none;" d="M463 297L464 298L463 297z"/>
<path style="fill:#f2f5f1; stroke:none;" d="M594.667 305.333L595.333 305.667L594.667 305.333z"/>
<path style="fill:#dba77b; stroke:none;" d="M748 306L749 307L748 306M469 311L470 312L469 311M390.333 313.667L390.667 314.333L390.333 313.667z"/>
<path style="fill:#f2f5f1; stroke:none;" d="M595 317L595 328L596 328L595 317z"/>
<path style="fill:#dba77b; stroke:none;" d="M389 318L390 319L389 318M746 319L747 329L748 329L746 319M745 321L746 322L745 321z"/>
<path style="fill:#ba7d4a; stroke:none;" d="M602 344C604.445 362.934 608.642 378.698 626 388.716C631.735 392.026 647.537 393.557 650.976 398.434C653.949 402.649 653.62 410.1 654.745 415C658.313 430.531 659.965 446.349 663 462L690 460L695.385 414L699.089 398.279L721.985 390.911L734 377C723.195 367.25 724.518 356.274 716.914 345.214C713.031 339.565 701.87 335.49 696 331.931C692.079 329.553 688.87 325.241 684.004 324.838C675.905 324.166 669.027 345.267 661.999 350.2C645.888 361.507 617.233 352.636 602 344z"/>
<path style="fill:#dba77b; stroke:none;" d="M475 325L476 326L475 325M382 326L383 327L382 326z"/>
<path style="fill:#5f5553; stroke:none;" d="M185 610L185 601C191.232 605.07 200.371 613.462 208 613C209.993 619.814 236.432 620.531 243 619.741C276.971 615.652 309.052 614.108 337 590.926C368.172 565.069 373.843 528.842 370.134 491C369.311 482.594 370.374 472.147 366.824 464.264C361.655 452.787 348.312 444.506 342.093 433C324.717 400.853 332.515 358.035 361 334L361 333L358 334L360 331C351.548 328.571 339.492 331.444 331 333.349C307.419 338.641 285.781 346.904 266 361.04C257.016 367.461 250.666 378.442 240 381.915C235.401 383.413 230.48 381.074 226 380C216.013 377.605 205.878 375.497 196 372.71C184.049 369.338 169.416 366.583 157 366.039C151.967 365.819 145.963 365.456 143.742 371.019C139.67 381.221 146.643 400.108 149.806 410C154.665 425.2 159.366 441.132 165.203 456C170.724 470.064 178.611 485.973 180.752 501C182.259 511.582 177.306 524.425 176.174 535C174.408 551.48 175.676 566.661 177.715 583C178.552 589.706 179.327 605.993 185 610z"/>
<path style="fill:#ba7d4a; stroke:none;" d="M359 330L358 334L361 333L361 334L359 336L365 331L359 330z"/>
<path style="fill:#dba77b; stroke:none;" d="M365.667 330.333L366.333 330.667L365.667 330.333M477 330L478 331L477 330z"/>
<path style="fill:#f2f5f1; stroke:none;" d="M594.333 330.667L594.667 331.333L594.333 330.667z"/>
<path style="fill:#dba77b; stroke:none;" d="M746 330L745 332L747 332L746 330z"/>
<path style="fill:#5f5553; stroke:none;" d="M363 331L364 332L363 331z"/>
<path style="fill:#dba77b; stroke:none;" d="M364 331L365 332L364 331M363 332L364 333L363 332z"/>
<path style="fill:#f2f5f1; stroke:none;" d="M595.333 332.667L595.667 333.333L595.333 332.667z"/>
<path style="fill:#dba77b; stroke:none;" d="M361 334L362 335L361 334M360 335L361 336L360 335M479 335L480 336L479 335z"/>
<path style="fill:#ba7d4a; stroke:none;" d="M358 336L357 338L358 336z"/>
<path style="fill:#dba77b; stroke:none;" d="M358 337L359 338L358 337z"/>
<path style="fill:#ba7d4a; stroke:none;" d="M356 338L357 339L356 338z"/>
<path style="fill:#dba77b; stroke:none;" d="M356 339L357 340L356 339z"/>
<path style="fill:#f2f5f1; stroke:none;" d="M745 339L746 340L745 339z"/>
<path style="fill:#dba77b; stroke:none;" d="M355 340L356 341L355 340z"/>
<path style="fill:#ba7d4a; stroke:none;" d="M354 341L355 342L354 341z"/>
<path style="fill:#dba77b; stroke:none;" d="M354 342L355 343L354 342M353 343L354 344L353 343z"/>
<path style="fill:#ba7d4a; stroke:none;" d="M352 344L353 345L352 344z"/>
<path style="fill:#f2f5f1; stroke:none;" d="M666 344L667 345L666 344z"/>
<path style="fill:#ba7d4a; stroke:none;" d="M351 345L352 346L351 345z"/>
<path style="fill:#f2f5f1; stroke:none;" d="M664 345L665 346L664 345z"/>
<path style="fill:#ba7d4a; stroke:none;" d="M350 346L351 347L350 346z"/>
<path style="fill:#dba77b; stroke:none;" d="M350 347L351 348L350 347z"/>
<path style="fill:#5f5553; stroke:none;" d="M602 347L603 355L604 355L602 347z"/>
<path style="fill:#f2f5f1; stroke:none;" d="M747 347L748 348L747 347z"/>
<path style="fill:#ba7d4a; stroke:none;" d="M349 348L350 349L349 348M348 349L349 350L348 349M347 350L348 351L347 350z"/>
<path style="fill:#f2f5f1; stroke:none;" d="M657 350L658 351L657 350M747 350L748 351L747 350z"/>
<path style="fill:#dba77b; stroke:none;" d="M347 351L348 352L347 351z"/>
<path style="fill:#ba7d4a; stroke:none;" d="M346 352L347 353L346 352z"/>
<path style="fill:#f2f5f1; stroke:none;" d="M748 352L748 356L749 356L748 352z"/>
<path style="fill:#ba7d4a; stroke:none;" d="M345 353L346 354L345 353z"/>
<path style="fill:#dba77b; stroke:none;" d="M345 354L346 355L345 354M487 354L488 355L487 354z"/>
<path style="fill:#ba7d4a; stroke:none;" d="M344 355L345 356L344 355M343 356L344 357L343 356z"/>
<path style="fill:#5f5553; stroke:none;" d="M604 356L604 363L605 363L604 356z"/>
<path style="fill:#dba77b; stroke:none;" d="M343 357L344 358L343 357M342.333 358.667L342.667 359.333L342.333 358.667z"/>
<path style="fill:#f2f5f1; stroke:none;" d="M747 360L748 361L747 360z"/>
<path style="fill:#dba77b; stroke:none;" d="M341 361L342 362L341 361z"/>
<path style="fill:#f2f5f1; stroke:none;" d="M136 396L146 399C144.662 389.062 136.626 370.643 149 365C135.919 357.248 123.092 367.31 124.231 382C124.69 387.914 129.742 395.842 136 396z"/>
<path style="fill:#ba7d4a; stroke:none;" d="M340 362L341 363L340 362z"/>
<path style="fill:#dba77b; stroke:none;" d="M494 362L495 363L494 362M340 363L341 364L340 363M495 363L496 364L495 363z"/>
<path style="fill:#5f5553; stroke:none;" d="M605.333 363.667L605.667 364.333L605.333 363.667z"/>
<path style="fill:#ba7d4a; stroke:none;" d="M339 364L340 365L339 364z"/>
<path style="fill:#5f5553; stroke:none;" d="M721 364L722 365L721 364z"/>
<path style="fill:#f2f5f1; stroke:none;" d="M746.333 364.667L746.667 365.333L746.333 364.667z"/>
<path style="fill:#dba77b; stroke:none;" d="M339.333 365.667L339.667 366.333L339.333 365.667M498 365L499 366L498 365z"/>
<path style="fill:#5f5553; stroke:none;" d="M606 365L607 371L608 371L606 365z"/>
<path style="fill:#dba77b; stroke:none;" d="M144 367L145 368L144 367z"/>
<path style="fill:#ba7d4a; stroke:none;" d="M338 367L339 368L338 367M144 368L145 369L144 368M337 368L338 369L337 368z"/>
<path style="fill:#dba77b; stroke:none;" d="M502 368L503 369L502 368z"/>
<path style="fill:#f2f5f1; stroke:none;" d="M745 368L746 369L745 368z"/>
<path style="fill:#dba77b; stroke:none;" d="M143 369L144 370L143 369M337.333 369.667L337.667 370.333L337.333 369.667z"/>
<path style="fill:#30abbb; stroke:none;" d="M143 370L144 371L143 370z"/>
<path style="fill:#f2f5f1; stroke:none;" d="M744.333 370.667L744.667 371.333L744.333 370.667z"/>
<path style="fill:#ba7d4a; stroke:none;" d="M336 371L337 372L336 371z"/>
<path style="fill:#5f5553; stroke:none;" d="M608 371L609 375L610 375L608 371z"/>
<path style="fill:#dba77b; stroke:none;" d="M142 372L142 376L143 376L142 372M336.333 372.667L336.667 373.333L336.333 372.667z"/>
<path style="fill:#ba7d4a; stroke:none;" d="M335 374L336 375L335 374z"/>
<path style="fill:#dba77b; stroke:none;" d="M335.333 375.667L335.667 376.333L335.333 375.667z"/>
<path style="fill:#5f5553; stroke:none;" d="M610.333 375.667L610.667 376.333L610.333 375.667z"/>
<path style="fill:#f2f5f1; stroke:none;" d="M741 375L742 376L741 375z"/>
<path style="fill:#30abbb; stroke:none;" d="M142 376L143 377L142 376z"/>
<path style="fill:#f2f5f1; stroke:none;" d="M736.667 376.333L737.333 376.667L736.667 376.333M739.667 376.333L740.333 376.667L739.667 376.333z"/>
<path style="fill:#dba77b; stroke:none;" d="M142.333 377.667L142.667 378.333L142.333 377.667z"/>
<path style="fill:#ba7d4a; stroke:none;" d="M334 377L334 380L335 380L334 377z"/>
<path style="fill:#5f5553; stroke:none;" d="M611 377L612 378L611 377M731 377L723 391L734 378L731 377z"/>
<path style="fill:#dba77b; stroke:none;" d="M513 378L514 379L513 378z"/>
<path style="fill:#5f5553; stroke:none;" d="M612 379L613 380L612 379z"/>
<path style="fill:#dba77b; stroke:none;" d="M334.333 380.667L334.667 381.333L334.333 380.667z"/>
<path style="fill:#5f5553; stroke:none;" d="M613 380L616 382L613 380z"/>
<path style="fill:#30abbb; stroke:none;" d="M143 381L143 387L144 387L143 381z"/>
<path style="fill:#5f5553; stroke:none;" d="M616 382L617 383L616 382z"/>
<path style="fill:#30abbb; stroke:none;" d="M140 383L141 384L140 383z"/>
<path style="fill:#ba7d4a; stroke:none;" d="M333 383L333 387L334 387L333 383z"/>
<path style="fill:#dba77b; stroke:none;" d="M518 383L519 384L518 383z"/>
<path style="fill:#5f5553; stroke:none;" d="M617 383L618 384L617 383M618.667 384.333L619.333 384.667L618.667 384.333M620 385L621 386L620 385M621.667 386.333L622.333 386.667L621.667 386.333z"/>
<path style="fill:#ba7d4a; stroke:none;" d="M790 411L788 410C788 414.745 786.6 421.147 791 424L790 427L793 428C793.476 438.718 810.758 445.075 820 443.791C837.268 441.392 848.977 429.684 847.957 412C846.084 379.538 790.993 377.509 790 411z"/>
<path style="fill:#dba77b; stroke:none;" d="M817 386L818 387L817 386M819 386L820 387L819 386z"/>
<path style="fill:#ba7d4a; stroke:none;" d="M144 387L145 388L144 387z"/>
<path style="fill:#dba77b; stroke:none;" d="M333 387L333 392L334 392L333 387z"/>
<path style="fill:#5f5553; stroke:none;" d="M623 387L624 388L623 387z"/>
<path style="fill:#dba77b; stroke:none;" d="M810 387L811 388L810 387z"/>
<path style="fill:#30abbb; stroke:none;" d="M144 388L144 391L145 391L144 388z"/>
<path style="fill:#5f5553; stroke:none;" d="M625 388L626 389L625 388M627 389L628 390L627 389M629 390L630 391L629 390z"/>
<path style="fill:#dba77b; stroke:none;" d="M144 391L145 392L144 391z"/>
<path style="fill:#5f5553; stroke:none;" d="M721.667 391.333L722.333 391.667L721.667 391.333z"/>
<path style="fill:#30abbb; stroke:none;" d="M145 392L145 396L146 396L145 392z"/>
<path style="fill:#5f5553; stroke:none;" d="M718.667 392.333L719.333 392.667L718.667 392.333z"/>
<path style="fill:#ba7d4a; stroke:none;" d="M332 393L332 401L333 401L332 393z"/>
<path style="fill:#5f5553; stroke:none;" d="M713 393L713 394L718 394L713 393M639.667 394.333L640.333 394.667L639.667 394.333M711 394L712 395L711 394z"/>
<path style="fill:#dba77b; stroke:none;" d="M799 394L800 395L799 394M529 395L530 396L529 395z"/>
<path style="fill:#5f5553; stroke:none;" d="M642.667 395.333L643.333 395.667L642.667 395.333M702 395L702 396L711 396L702 395z"/>
<path style="fill:#dba77b; stroke:none;" d="M530 396L531 397L530 396z"/>
<path style="fill:#5f5553; stroke:none;" d="M649 396L650 397L649 396M699 396L699 397L702 397L699 396M651 397L652 398L651 397z"/>
<path style="fill:#dba77b; stroke:none;" d="M333.333 402.667L333.667 403.333L333.333 402.667M791 404L792 405L791 404z"/>
<path style="fill:#5f5553; stroke:none;" d="M652 405L653 406L652 405z"/>
<path style="fill:#dba77b; stroke:none;" d="M696 405L697 406L696 405M333 406L334 407L333 406z"/>
<path style="fill:#5f5553; stroke:none;" d="M653 406L654 407L653 406z"/>
<path style="fill:#ba7d4a; stroke:none;" d="M333 407L333 410L334 410L333 407z"/>
<path style="fill:#dba77b; stroke:none;" d="M789 408L789 411L790 411L789 408M895.094 410.346C891.451 411.566 892.919 417.403 896.701 416.248C899.977 415.249 898.534 409.193 895.094 410.346M541 410L542 411L541 410M334 411L335 418L336 418L334 411z"/>
<path style="fill:#ba7d4a; stroke:none;" d="M334 415L335 416L334 415M476 417L478 419L476 417M335 418L336 419L335 418z"/>
<path style="fill:#dba77b; stroke:none;" d="M475 418L475 421L476 421L475 418z"/>
<path style="fill:#5f5553; stroke:none;" d="M476 418C473.341 438.588 452.518 471.746 431.394 447.714C428.924 444.904 428.194 441.435 427 438L426 438C422.044 451.802 440.032 461.77 452 459.671C463.305 457.689 470.447 445.739 474.572 436C476.831 430.666 479.833 423.066 476 418z"/>
<path style="fill:#dba77b; stroke:none;" d="M790 418L792 421L790 418M336.333 419.667L336.667 420.333L336.333 419.667M478 419L478 426L479 426L478 419M846 420L847 421L846 420z"/>
<path style="fill:#ba7d4a; stroke:none;" d="M336 421L337 422L336 421M475 421L476 422L475 421z"/>
<path style="fill:#dba77b; stroke:none;" d="M337 422L338 423L337 422z"/>
<path style="fill:#ba7d4a; stroke:none;" d="M337 423L338 424L337 423z"/>
<path style="fill:#dba77b; stroke:none;" d="M338.333 424.667L338.667 425.333L338.333 424.667M790 424L791 425L790 424M474 425L475 426L474 425M791 425L792 426L791 425z"/>
<path style="fill:#ba7d4a; stroke:none;" d="M338 426L339 427L338 426M474 426L475 427L474 426M477 426L477 430L478 430L477 426M339 427L340 428L339 427z"/>
<path style="fill:#dba77b; stroke:none;" d="M340 428L341 429L340 428M473 428L474 429L473 428M792 428L793 429L792 428z"/>
<path style="fill:#ba7d4a; stroke:none;" d="M340 429L341 430L340 429M473 429L474 430L473 429z"/>
<path style="fill:#dba77b; stroke:none;" d="M477 430L478 431L477 430M341 431L342 432L341 431z"/>
<path style="fill:#ba7d4a; stroke:none;" d="M472.333 431.667L472.667 432.333L472.333 431.667M476 431L477 432L476 431M341 432L342 433L341 432z"/>
<path style="fill:#dba77b; stroke:none;" d="M476 432L477 433L476 432M342 433L343 434L342 433M471 433L472 434L471 433z"/>
<path style="fill:#ba7d4a; stroke:none;" d="M475 433L476 434L475 433z"/>
<path style="fill:#dba77b; stroke:none;" d="M657 433L657 436L659 435L659 434L657 433z"/>
<path style="fill:#ba7d4a; stroke:none;" d="M471 434L472 435L471 434z"/>
<path style="fill:#dba77b; stroke:none;" d="M343 435L344 436L343 435M470 435L471 436L470 435M799 435L800 436L799 435M344.333 436.667L344.667 437.333L344.333 436.667z"/>
<path style="fill:#ba7d4a; stroke:none;" d="M470 436L471 437L470 436M474 436L475 437L474 436z"/>
<path style="fill:#dba77b; stroke:none;" d="M658 436L660 440L658 436M836 436L837 437L836 436M832.333 437.667L832.667 438.333L832.333 437.667M345 438L346 439L345 438M425 438L426 439L425 438M427 438L428 439L427 438M469 438L470 439L469 438z"/>
<path style="fill:#ba7d4a; stroke:none;" d="M473 438L474 439L473 438z"/>
<path style="fill:#dba77b; stroke:none;" d="M346 439L347 440L346 439M347.333 440.667L347.667 441.333L347.333 440.667M424 440L425 441L424 440z"/>
<path style="fill:#ba7d4a; stroke:none;" d="M468 440L469 441L468 440M472 440L473 441L472 440z"/>
<path style="fill:#dba77b; stroke:none;" d="M467 441L468 442L467 441M472 441L473 442L472 441M820.667 441.333L821.333 441.667L820.667 441.333M348 442L349 443L348 442M428 442L429 443L428 442z"/>
<path style="fill:#ba7d4a; stroke:none;" d="M467 442L468 443L467 442M471 442L472 443L471 442M348 443L349 444L348 443M428 443L429 444L428 443z"/>
<path style="fill:#dba77b; stroke:none;" d="M466 443L467 444L466 443M471 443L472 444L471 443z"/>
<path style="fill:#ba7d4a; stroke:none;" d="M349 444L350 445L349 444z"/>
<path style="fill:#dba77b; stroke:none;" d="M429 444L430 445L429 444M470 444L471 445L470 444M350 445L351 446L350 445z"/>
<path style="fill:#ba7d4a; stroke:none;" d="M425 445L426 446L425 445M429 445L430 446L429 445M465 445L466 446L465 445M469 445L470 446L469 445z"/>
<path style="fill:#dba77b; stroke:none;" d="M351 446L352 447L351 446M425 446L426 447L425 446M430 446L431 447L430 446M464 446L465 447L464 446M469 446L470 447L469 446M352 447L353 448L352 447z"/>
<path style="fill:#ba7d4a; stroke:none;" d="M426 447L427 448L426 447M430 447L431 448L430 447z"/>
<path style="fill:#dba77b; stroke:none;" d="M468 447L469 448L468 447z"/>
<path style="fill:#5f5553; stroke:none;" d="M691 447L692 448L691 447z"/>
<path style="fill:#dba77b; stroke:none;" d="M426 448L427 449L426 448z"/>
<path style="fill:#ba7d4a; stroke:none;" d="M431 448L432 449L431 448z"/>
<path style="fill:#dba77b; stroke:none;" d="M432 448L433 449L432 448M462 448L463 449L462 448M467 448L468 449L467 448z"/>
<path style="fill:#ba7d4a; stroke:none;" d="M353 449L354 450L353 449z"/>
<path style="fill:#dba77b; stroke:none;" d="M433 449L434 450L433 449M461 449L462 450L461 449z"/>
<path style="fill:#ba7d4a; stroke:none;" d="M466 449L467 450L466 449z"/>
<path style="fill:#dba77b; stroke:none;" d="M497 449L497 450L501 450L497 449M427 450L428 451L427 450M434 450L435 451L434 450M460 450L461 451L460 450M466 450L467 451L466 450z"/>
<path style="fill:#ba7d4a; stroke:none;" d="M497 450L498 451L497 450z"/>
<path style="fill:#5f5553; stroke:none;" d="M497 451C505.452 464.166 527.769 470.005 542 464L515 461.02L497 451z"/>
<path style="fill:#ba7d4a; stroke:none;" d="M501 450L502 451L501 450z"/>
<path style="fill:#dba77b; stroke:none;" d="M502 450L503 451L502 450M574 450L575 451L574 450M355 451L356 452L355 451M428 451L429 452L428 451M435 451L436 452L435 451z"/>
<path style="fill:#ba7d4a; stroke:none;" d="M459 451L460 452L459 451z"/>
<path style="fill:#dba77b; stroke:none;" d="M465 451L466 452L465 451M496 451L497 452L496 451M503 451L506 454L503 451M356 452L357 453L356 452M381.667 452.333L382.333 452.667L381.667 452.333z"/>
<path style="fill:#ba7d4a; stroke:none;" d="M430 452L431 453L430 452z"/>
<path style="fill:#dba77b; stroke:none;" d="M436 452L437 453L436 452M457 452L458 453L457 452M464 452L465 453L464 452z"/>
<path style="fill:#ba7d4a; stroke:none;" d="M497 452L498 453L497 452M503 452L504 453L503 452z"/>
<path style="fill:#dba77b; stroke:none;" d="M577 452L578 453L577 452M357 453L358 454L357 453z"/>
<path style="fill:#5f5553; stroke:none;" d="M380 453L379 466C375.55 465.826 371.89 463.866 371 468C376.931 466.711 381.327 468.257 386 472C391.115 468.405 392.855 464.175 393 458L388 459C386.715 454.836 384.211 453.565 380 453z"/>
<path style="fill:#dba77b; stroke:none;" d="M384 453L385 454L384 453M431 453L432 454L431 453z"/>
<path style="fill:#ba7d4a; stroke:none;" d="M437 453L438 454L437 453z"/>
<path style="fill:#dba77b; stroke:none;" d="M455 453L456 454L455 453M463 453L464 454L463 453z"/>
<path style="fill:#ba7d4a; stroke:none;" d="M498 453L499 454L498 453M504 453L505 454L504 453z"/>
<path style="fill:#dba77b; stroke:none;" d="M591 464C590.998 470.503 595.85 473.07 601 469L598 468L602 465L600 462L603 464L604 464L608 458C605.194 458.653 604.59 459.155 605 462L603 460L597 461C599.562 453.313 589.704 449.481 588 458C587.668 459.661 588.855 460.329 590 463C590.161 463.375 587.886 463.377 591 464M358 454L359 455L358 454z"/>
<path style="fill:#ba7d4a; stroke:none;" d="M379.333 454.667L379.667 455.333L379.333 454.667z"/>
<path style="fill:#dba77b; stroke:none;" d="M385 454L386 455L385 454M433 454L434 455L433 454z"/>
<path style="fill:#ba7d4a; stroke:none;" d="M439 454L440 455L439 454z"/>
<path style="fill:#dba77b; stroke:none;" d="M453 454L454 455L453 454z"/>
<path style="fill:#ba7d4a; stroke:none;" d="M454 454L455 455L454 454z"/>
<path style="fill:#dba77b; stroke:none;" d="M462 454L463 455L462 454M498 454L499 455L498 454z"/>
<path style="fill:#ba7d4a; stroke:none;" d="M505 454L506 455L505 454z"/>
<path style="fill:#dba77b; stroke:none;" d="M359 455L360 456L359 455M378 455L371 465L378 466L378 455M387 455L388 456L387 455M434 455L435 456L434 455z"/>
<path style="fill:#ba7d4a; stroke:none;" d="M441 455L442 456L441 455z"/>
<path style="fill:#dba77b; stroke:none;" d="M451 455L452 456L451 455z"/>
<path style="fill:#ba7d4a; stroke:none;" d="M452 455L453 456L452 455M461 455L462 456L461 455z"/>
<path style="fill:#dba77b; stroke:none;" d="M499 455L500 456L499 455z"/>
<path style="fill:#ba7d4a; stroke:none;" d="M500 455L501 456L500 455z"/>
<path style="fill:#dba77b; stroke:none;" d="M506 455L507 456L506 455z"/>
<path style="fill:#30abbb; stroke:none;" d="M593 455L591 461C594.331 460.286 594.591 457.762 593 455z"/>
<path style="fill:#dba77b; stroke:none;" d="M435 456L436 457L435 456z"/>
<path style="fill:#ba7d4a; stroke:none;" d="M443.667 456.333L444.333 456.667L443.667 456.333z"/>
<path style="fill:#dba77b; stroke:none;" d="M447 456L448 457L447 456z"/>
<path style="fill:#ba7d4a; stroke:none;" d="M448 456L448 457L451 457L448 456M460 456L461 457L460 456z"/>
<path style="fill:#dba77b; stroke:none;" d="M501 456L502 457L501 456z"/>
<path style="fill:#ba7d4a; stroke:none;" d="M502 456L503 457L502 456M507 456L508 457L507 456z"/>
<path style="fill:#f2f5f1; stroke:none;" d="M595.333 456.667L595.667 457.333L595.333 456.667z"/>
<path style="fill:#dba77b; stroke:none;" d="M361 457L362 458L361 457z"/>
<path style="fill:#ba7d4a; stroke:none;" d="M375 458L375 459L378 459L378 458L375 458z"/>
<path style="fill:#dba77b; stroke:none;" d="M388 457L391 459L391 458L388 457M392 457L393 458L392 457M436 457L437 458L436 457z"/>
<path style="fill:#ba7d4a; stroke:none;" d="M437 457L438 458L437 457M458 457L459 458L458 457z"/>
<path style="fill:#dba77b; stroke:none;" d="M459 457L460 458L459 457z"/>
<path style="fill:#ba7d4a; stroke:none;" d="M503 457L504 458L503 457M508 457L509 458L508 457z"/>
<path style="fill:#dba77b; stroke:none;" d="M509 457L510 458L509 457M576 457L577 458L576 457M362 458L364 460L362 458z"/>
<path style="fill:#5f5553; stroke:none;" d="M376 458L373 462L376 458z"/>
<path style="fill:#ba7d4a; stroke:none;" d="M379 458C377.878 460.66 377.606 461.334 380 463L379 458z"/>
<path style="fill:#dba77b; stroke:none;" d="M393 458L393 464L394 464L393 458z"/>
<path style="fill:#ba7d4a; stroke:none;" d="M439.667 458.333L440.333 458.667L439.667 458.333M456 458L457 459L456 458z"/>
<path style="fill:#dba77b; stroke:none;" d="M457 458L458 459L457 458z"/>
<path style="fill:#ba7d4a; stroke:none;" d="M504 458L505 459L504 458M510 458L511 459L510 458z"/>
<path style="fill:#dba77b; stroke:none;" d="M572 458L573 459L572 458z"/>
<path style="fill:#f2f5f1; stroke:none;" d="M588 458L589 459L588 458M606 458L607 459L606 458z"/>
<path style="fill:#ba7d4a; stroke:none;" d="M362 459L363 460L362 459z"/>
<path style="fill:#dba77b; stroke:none;" d="M441 459L442 460L441 459z"/>
<path style="fill:#ba7d4a; stroke:none;" d="M442 459L443 460L442 459M453 459L454 460L453 459z"/>
<path style="fill:#dba77b; stroke:none;" d="M454 459L455 460L454 459z"/>
<path style="fill:#ba7d4a; stroke:none;" d="M505 459L506 460L505 459M511 459L512 460L511 459z"/>
<path style="fill:#dba77b; stroke:none;" d="M512 459L513 460L512 459M570 459L571 460L570 459z"/>
<path style="fill:#f2f5f1; stroke:none;" d="M597 459L600 461L597 459M607 459L608 460L607 459z"/>
<path style="fill:#dba77b; stroke:none;" d="M364 460L365 461L364 460z"/>
<path style="fill:#ba7d4a; stroke:none;" d="M373 460L374 461L373 460z"/>
<path style="fill:#dba77b; stroke:none;" d="M445 460L446 461L445 460z"/>
<path style="fill:#ba7d4a; stroke:none;" d="M446 460L446 461L450 461L446 460z"/>
<path style="fill:#dba77b; stroke:none;" d="M450.667 460.333L451.333 460.667L450.667 460.333z"/>
<path style="fill:#ba7d4a; stroke:none;" d="M506 460L507 461L506 460M513 460L514 461L513 460z"/>
<path style="fill:#dba77b; stroke:none;" d="M514 460L515 461L514 460z"/>
<path style="fill:#f2f5f1; stroke:none;" d="M603 460L603 462L605 462L603 460z"/>
<path style="fill:#dba77b; stroke:none;" d="M672 460L672 461L679 461L672 460M684 460L684 461L690 461L684 460M372 461L373 462L372 461z"/>
<path style="fill:#ba7d4a; stroke:none;" d="M375 461L376 462L375 461z"/>
<path style="fill:#dba77b; stroke:none;" d="M507.667 461.333L508.333 461.667L507.667 461.333z"/>
<path style="fill:#ba7d4a; stroke:none;" d="M509 461L510 462L509 461M515.667 461.333L516.333 461.667L515.667 461.333z"/>
<path style="fill:#dba77b; stroke:none;" d="M517 461L517 462L520 462L517 461z"/>
<path style="fill:#f2f5f1; stroke:none;" d="M580 475L585 475C585.816 478.701 588.452 479.142 592 479C591.555 476.034 586.36 458.633 581.698 462.086C578.673 464.328 580.181 471.661 580 475M594 461L593 463L595 463L594 461z"/>
<path style="fill:#dba77b; stroke:none;" d="M668 461L668 462L671 462L668 461M691 461L692 462L691 461z"/>
<path style="fill:#ba7d4a; stroke:none;" d="M365 462L366 463L365 462M372.667 462.333L373.333 462.667L372.667 462.333z"/>
<path style="fill:#dba77b; stroke:none;" d="M510 462L511 463L510 462z"/>
<path style="fill:#ba7d4a; stroke:none;" d="M511 462L512 463L511 462M520 462L520 463L524 463L520 462z"/>
<path style="fill:#dba77b; stroke:none;" d="M524 462L524 463L529 463L524 462M540.667 462.333L541.333 462.667L540.667 462.333M544 462L542 465L546 463L544 462M579 462L579 468L580 468L581 462L579 462M585 462L586 463L585 462z"/>
<path style="fill:#f2f5f1; stroke:none;" d="M589 462L590 463L589 462M600 462L603 464L600 462z"/>
<path style="fill:#dba77b; stroke:none;" d="M664.667 462.333L665.333 462.667L664.667 462.333M367 463L370 479L371 479L371 465L367 463z"/>
<path style="fill:#ba7d4a; stroke:none;" d="M375 463L376 464L375 463M385 464L387 467L388 467L388 463L385 464z"/>
<path style="fill:#dba77b; stroke:none;" d="M512.667 463.333L513.333 463.667L512.667 463.333z"/>
<path style="fill:#ba7d4a; stroke:none;" d="M514 463L515 464L514 463M529 463L530 464L529 463z"/>
<path style="fill:#dba77b; stroke:none;" d="M530 463L530 464L535 464L530 463z"/>
<path style="fill:#ba7d4a; stroke:none;" d="M535 463L535 464L539 464L535 463M542 463L543 464L542 463z"/>
<path style="fill:#dba77b; stroke:none;" d="M663 463L664 464L663 463z"/>
<path style="fill:#ba7d4a; stroke:none;" d="M392 464L393 465L392 464z"/>
<path style="fill:#dba77b; stroke:none;" d="M515.667 464.333L516.333 464.667L515.667 464.333z"/>
<path style="fill:#ba7d4a; stroke:none;" d="M517 464L518 465L517 464M541 464L542 465L541 464z"/>
<path style="fill:#f2f5f1; stroke:none;" d="M590.333 464.667L590.667 465.333L590.333 464.667M597 464L598 465L597 464M599.667 464.333L600.333 464.667L599.667 464.333z"/>
<path style="fill:#ba7d4a; stroke:none;" d="M367 465L368 466L367 465M374 465L374 466L377 466L374 465M378 465L379 466L378 465M380 465L380 466L387 469L387 468L380 465z"/>
<path style="fill:#dba77b; stroke:none;" d="M383 465L386 469L387 465L383 465M392 465L391 468L392 465M518 465L518 466L521 466L518 465z"/>
<path style="fill:#ba7d4a; stroke:none;" d="M521 465L522 466L521 465M538 465L539 466L538 465z"/>
<path style="fill:#dba77b; stroke:none;" d="M539.667 465.333L540.333 465.667L539.667 465.333M586 465L587 466L586 465z"/>
<path style="fill:#ba7d4a; stroke:none;" d="M391 466L392 467L391 466z"/>
<path style="fill:#dba77b; stroke:none;" d="M522 466L522 467L538 467L522 466M587 466L588 467L587 466z"/>
<path style="fill:#ba7d4a; stroke:none;" d="M366 467L367 468L366 467M370 467L370 494L371 494L381 472L384 474L386 472L386 471L370 467M367 468L367 471L368 471L367 468M390 468L391 469L390 468z"/>
<path style="fill:#dba77b; stroke:none;" d="M656 468L657 469L656 468M390 469L391 470L390 469z"/>
<path style="fill:#ba7d4a; stroke:none;" d="M387.333 470.667L387.667 471.333L387.333 470.667z"/>
<path style="fill:#dba77b; stroke:none;" d="M388.667 470.333L389.333 470.667L388.667 470.333z"/>
<path style="fill:#f2f5f1; stroke:none;" d="M596 470L597 471L596 470z"/>
<path style="fill:#dba77b; stroke:none;" d="M580 471L581 472L580 471M653 471L654 472L653 471z"/>
<path style="fill:#ba7d4a; stroke:none;" d="M368 472L369 473L368 472z"/>
<path style="fill:#dba77b; stroke:none;" d="M381 472L381 476L384 475L381 472M385 472L385 473L388 473L385 472M652 472L653 473L652 472z"/>
<path style="fill:#ba7d4a; stroke:none;" d="M369 473L369 479L370 479L369 473z"/>
<path style="fill:#dba77b; stroke:none;" d="M384 473L385 474L384 473M711 473L712 474L711 473M385 476L385 477L391 475L385 476M650 474L651 475L650 474z"/>
<path style="fill:#5f5553; stroke:none;" d="M388.015 475.743C375.578 479.436 377.409 501.527 391.985 497.424C405.079 493.738 402.003 471.59 388.015 475.743z"/>
<path style="fill:#ba7d4a; stroke:none;" d="M392.667 475.333L393.333 475.667L392.667 475.333z"/>
<path style="fill:#dba77b; stroke:none;" d="M394 475L395 476L394 475M580 479L585 476C581.877 474.79 580.173 475.649 580 479M591 475L592 476L591 475M649 475L650 476L649 475M377 479L381 476L377 479z"/>
<path style="fill:#ba7d4a; stroke:none;" d="M395 476L396 477L395 476z"/>
<path style="fill:#dba77b; stroke:none;" d="M648 476L649 477L648 476z"/>
<path style="fill:#ba7d4a; stroke:none;" d="M384 477L385 478L384 477z"/>
<path style="fill:#dba77b; stroke:none;" d="M397 477L398 478L397 477M647 478L648 479L647 478M376 479L377 480L376 479z"/>
<path style="fill:#ba7d4a; stroke:none;" d="M382 479L383 480L382 479z"/>
<path style="fill:#dba77b; stroke:none;" d="M399 479L400 480L399 479M589 479L590 480L589 479M375 480C366.46 488.822 372.098 514.109 372 526L373 526L375 480M381 480L382 481L381 480M581 480L582 481L581 480z"/>
<path style="fill:#ba7d4a; stroke:none;" d="M400 481L401 482L400 481z"/>
<path style="fill:#dba77b; stroke:none;" d="M645 481L646 482L645 481M715 481L716 482L715 481M380 482L381 483L380 482M379.333 483.667L379.667 484.333L379.333 483.667M401 483L402 484L401 483M644 483L645 484L644 483z"/>
<path style="fill:#ba7d4a; stroke:none;" d="M401 484L401 488L402 488L401 484M379.333 485.667L379.667 486.333L379.333 485.667z"/>
<path style="fill:#dba77b; stroke:none;" d="M583 485L584 486L583 485M642 486L643 487L642 486M401 488L402 489L401 488M378 489L379 490L378 489z"/>
<path style="fill:#ba7d4a; stroke:none;" d="M400 489L401 490L400 489z"/>
<path style="fill:#dba77b; stroke:none;" d="M586 489L587 490L586 489M400 490L401 491L400 490z"/>
<path style="fill:#ba7d4a; stroke:none;" d="M379 491L380 492L379 491z"/>
<path style="fill:#dba77b; stroke:none;" d="M399 491L400 492L399 491M587 491L588 492L587 491M379 492L380 493L379 492z"/>
<path style="fill:#ba7d4a; stroke:none;" d="M398 492L399 493L398 492M380 493L381 494L380 493M397 493L398 494L397 493z"/>
<path style="fill:#dba77b; stroke:none;" d="M380 494L381 495L380 494M397 494L398 495L397 494M381 495L382 496L381 495M396 495L397 496L396 495M638 495L639 496L638 495M670 522L670 521C659.357 517.382 648.76 499.565 666 498C668.522 508.551 678.566 514.303 687 520L672 502L671 502L672 505C670.339 502.831 668.984 500.194 666.832 498.46C659.558 492.599 650.224 495.932 651.253 506C652.351 516.741 660.383 521.47 670 522z"/>
<path style="fill:#ba7d4a; stroke:none;" d="M371 496L372 497L371 496M382 496L383 497L382 496z"/>
<path style="fill:#dba77b; stroke:none;" d="M591 496L592 497L591 496z"/>
<path style="fill:#ba7d4a; stroke:none;" d="M660 496L661 497L660 496z"/>
<path style="fill:#dba77b; stroke:none;" d="M383 497L384 498L383 497z"/>
<path style="fill:#ba7d4a; stroke:none;" d="M384.667 497.333L385.333 497.667L384.667 497.333M392 497L393 498L392 497z"/>
<path style="fill:#dba77b; stroke:none;" d="M393 497L394 498L393 497z"/>
<path style="fill:#ba7d4a; stroke:none;" d="M371 498L371 514L372 514L371 498z"/>
<path style="fill:#dba77b; stroke:none;" d="M386 498L386 499L391 499L386 498z"/>
<path style="fill:#ba7d4a; stroke:none;" d="M661 498L661 499L666 500L661 498z"/>
<path style="fill:#dba77b; stroke:none;" d="M716 498L717 499L716 498M637 499L638 500L637 499z"/>
<path style="fill:#ba7d4a; stroke:none;" d="M658 499L659 500L658 499z"/>
<path style="fill:#5f5553; stroke:none;" d="M659.148 499.747C652.872 502.449 657.628 512.436 663.942 510.214C671.453 507.57 666.301 496.667 659.148 499.747z"/>
<path style="fill:#dba77b; stroke:none;" d="M593 501L594 502L593 501z"/>
<path style="fill:#ba7d4a; stroke:none;" d="M667 501L668 502L667 501M669 502L669 503L671 505L672 505L669 502z"/>
<path style="fill:#dba77b; stroke:none;" d="M715 502L716 503L715 502z"/>
<path style="fill:#5f5553; stroke:none;" d="M670 503L671 504L670 503z"/>
<path style="fill:#ba7d4a; stroke:none;" d="M655.333 504.667L655.667 505.333L655.333 504.667M668.333 505.667L668.667 506.333L668.333 505.667z"/>
<path style="fill:#dba77b; stroke:none;" d="M714 505L715 506L714 505z"/>
<path style="fill:#f2f5f1; stroke:none;" d="M669 506L666 509L670 515L658 510C660.957 520.533 682.23 530.681 692 526C688.043 517.69 676.48 511.114 669 506z"/>
<path style="fill:#ba7d4a; stroke:none;" d="M673 506L674 507L673 506z"/>
<path style="fill:#dba77b; stroke:none;" d="M635 507L636 508L635 507z"/>
<path style="fill:#ba7d4a; stroke:none;" d="M656 507L657 508L656 507z"/>
<path style="fill:#dba77b; stroke:none;" d="M668 507L669 508L668 507M667 508L668 509L667 508M634 510L635 511L634 510M659 510L660 511L659 510z"/>
<path style="fill:#ba7d4a; stroke:none;" d="M664 510L664 511L667 512L664 510z"/>
<path style="fill:#dba77b; stroke:none;" d="M666 510L667 511L666 510M663 511L664 512L663 511M667 511L670 515L667 511M671 511L673 513L671 511z"/>
<path style="fill:#f2f5f1; stroke:none;" d="M677 511L678 512L677 511z"/>
<path style="fill:#ba7d4a; stroke:none;" d="M680 513L681 514L680 513M372 514L372 517L373 517L372 514M682 514L685 517L682 514z"/>
<path style="fill:#dba77b; stroke:none;" d="M633 515L634 516L633 515M676 515L678 517L676 515M691 516L690 520C695.996 522.725 700.186 526.244 705 520L691 516z"/>
<path style="fill:#ba7d4a; stroke:none;" d="M685 517L685 518L687 520L688 520L685 517z"/>
<path style="fill:#dba77b; stroke:none;" d="M687 517L688 518L687 517z"/>
<path style="fill:#ba7d4a; stroke:none;" d="M693 517L694 518L693 517z"/>
<path style="fill:#dba77b; stroke:none;" d="M708 517L709 518L708 517z"/>
<path style="fill:#ba7d4a; stroke:none;" d="M372 518L373 519L372 518z"/>
<path style="fill:#dba77b; stroke:none;" d="M672 520L675 520L673 518L672 520z"/>
<path style="fill:#5f5553; stroke:none;" d="M686 518L687 519L686 518z"/>
<path style="fill:#dba77b; stroke:none;" d="M688 518L689 519L688 518M707 518L708 519L707 518z"/>
<path style="fill:#ba7d4a; stroke:none;" d="M675 519L676 520L675 519z"/>
<path style="fill:#dba77b; stroke:none;" d="M676 519L677 520L676 519z"/>
<path style="fill:#5f5553; stroke:none;" d="M688 519L689 520L688 519z"/>
<path style="fill:#ba7d4a; stroke:none;" d="M689 519L692 521L692 520L689 519z"/>
<path style="fill:#dba77b; stroke:none;" d="M601 520L602 521L601 520M688 520L689 521L688 520z"/>
<path style="fill:#5f5553; stroke:none;" d="M690 520L691 521L690 520z"/>
<path style="fill:#ba7d4a; stroke:none;" d="M665 522L665 523L679 528C675.218 524.1 670.5 521.528 665 522z"/>
<path style="fill:#dba77b; stroke:none;" d="M689 521L690 522L689 521z"/>
<path style="fill:#5f5553; stroke:none;" d="M691 521C693.719 538.228 670.511 522.196 663 523C666.702 527.05 683.674 535.76 688.999 534.667C697.757 532.868 700.145 523.749 691 521z"/>
<path style="fill:#ba7d4a; stroke:none;" d="M693 521L694 522L693 521M662 522L663 525L664 525L664 522L662 522z"/>
<path style="fill:#dba77b; stroke:none;" d="M671.667 522.333L672.333 522.667L671.667 522.333M675 522L676 523L675 522M690 522L691 523L690 522M673 523L674 524L673 523M691 523L692 524L691 523z"/>
<path style="fill:#ba7d4a; stroke:none;" d="M697 523L698 524L697 523z"/>
<path style="fill:#dba77b; stroke:none;" d="M630 524L631 525L630 524M662 524L663 525L662 524M674 524L674 525C681.116 528.322 684.49 530.77 692 527L674 524M692.333 524.667L692.667 525.333L692.333 524.667z"/>
<path style="fill:#ba7d4a; stroke:none;" d="M698 524L699 525L698 524z"/>
<path style="fill:#dba77b; stroke:none;" d="M664 525L665 526L664 525z"/>
<path style="fill:#ba7d4a; stroke:none;" d="M371 526L372 527L371 526z"/>
<path style="fill:#dba77b; stroke:none;" d="M665.667 526.333L666.333 526.667L665.667 526.333z"/>
<path style="fill:#ba7d4a; stroke:none;" d="M667 526L668 527L667 526z"/>
<path style="fill:#dba77b; stroke:none;" d="M371 527L371 532L372 532L371 527M668 527L669 528L668 527z"/>
<path style="fill:#ba7d4a; stroke:none;" d="M669 527L670 528L669 527M690 527L691 528L690 527z"/>
<path style="fill:#dba77b; stroke:none;" d="M670.667 528.333L671.333 528.667L670.667 528.333z"/>
<path style="fill:#ba7d4a; stroke:none;" d="M672 528L673 529L672 528M680 528L681 529L680 528M689 528L690 529L689 528z"/>
<path style="fill:#dba77b; stroke:none;" d="M977 528C976.475 529.656 975.865 531.32 975.515 533.025C971.996 550.218 991.694 532.461 977 528M674 529L675 530L674 529z"/>
<path style="fill:#ba7d4a; stroke:none;" d="M675.667 529.333L676.333 529.667L675.667 529.333M682 529L683 530L682 529M687.667 529.333L688.333 529.667L687.667 529.333z"/>
<path style="fill:#dba77b; stroke:none;" d="M677 530L678 531L677 530z"/>
<path style="fill:#ba7d4a; stroke:none;" d="M678 530L679 531L678 530M684 530L684 531L687 531L684 530z"/>
<path style="fill:#dba77b; stroke:none;" d="M679 531L680 532L679 531z"/>
<path style="fill:#ba7d4a; stroke:none;" d="M680 531L681 532L680 531M370.333 532.667L370.667 533.333L370.333 532.667z"/>
<path style="fill:#dba77b; stroke:none;" d="M681 532L682 533L681 532M682 533L683 534L682 533z"/>
<path style="fill:#ba7d4a; stroke:none;" d="M683 533L684 534L683 533z"/>
<path style="fill:#dba77b; stroke:none;" d="M370 534L370 537L371 537L370 534M626 534L627 535L626 534M684 534L685 535L684 534M685.333 535.667L685.667 536.333L685.333 535.667z"/>
<path style="fill:#ba7d4a; stroke:none;" d="M686 535L687 536L686 535M369.333 538.667L369.667 539.333L369.333 538.667z"/>
<path style="fill:#dba77b; stroke:none;" d="M624 538L625 539L624 538M369.333 540.667L369.667 541.333L369.333 540.667z"/>
<path style="fill:#ba7d4a; stroke:none;" d="M368 542L369 543L368 542z"/>
<path style="fill:#dba77b; stroke:none;" d="M368.333 543.667L368.667 544.333L368.333 543.667z"/>
<path style="fill:#ba7d4a; stroke:none;" d="M367 545L368 546L367 545z"/>
<path style="fill:#dba77b; stroke:none;" d="M611 545L612 546L611 545M367 546L368 547L367 546z"/>
<path style="fill:#ba7d4a; stroke:none;" d="M366 547L366 550L367 550L366 547z"/>
<path style="fill:#dba77b; stroke:none;" d="M366 550L367 551L366 550z"/>
<path style="fill:#ba7d4a; stroke:none;" d="M365 551L366 552L365 551M258 552L256 560L257 560L257 554L261 556L258 552z"/>
<path style="fill:#dba77b; stroke:none;" d="M365.333 552.667L365.667 553.333L365.333 552.667M257 554C257.12 557.692 257.313 559.777 261 561C261.14 557.29 260.283 555.736 257 554M364 555L362 560L363 560L364 555z"/>
<path style="fill:#ba7d4a; stroke:none;" d="M363 556L364 557L363 556z"/>
<path style="fill:#dba77b; stroke:none;" d="M669 556L670 557L669 556M243 557L242 563L247 563L243 557z"/>
<path style="fill:#ba7d4a; stroke:none;" d="M244.667 557.333L245.333 557.667L244.667 557.333M261 557L262 558L261 557M246.333 558.667L246.667 559.333L246.333 558.667M362 558L363 559L362 558M241 559L241 562L242 562L241 559z"/>
<path style="fill:#f2f5f1; stroke:none;" d="M261 559L262 560L261 559z"/>
<path style="fill:#ba7d4a; stroke:none;" d="M261 560L262 561L261 560M360 560L361 561L360 560z"/>
<path style="fill:#dba77b; stroke:none;" d="M361 560L362 561L361 560z"/>
<path style="fill:#ba7d4a; stroke:none;" d="M247 561L248 562L247 561M258 561L258 562L261 562L258 561z"/>
<path style="fill:#dba77b; stroke:none;" d="M360 561L361 562L360 561M665 561L666 562L665 561z"/>
<path style="fill:#ba7d4a; stroke:none;" d="M359 562L360 563L359 562M242 563L242 564L246 564L242 563z"/>
<path style="fill:#dba77b; stroke:none;" d="M359 563L360 564L359 563z"/>
<path style="fill:#ba7d4a; stroke:none;" d="M358 564L359 565L358 564M357 565L358 566L357 565z"/>
<path style="fill:#dba77b; stroke:none;" d="M661 565L662 566L661 565z"/>
<path style="fill:#f2f5f1; stroke:none;" d="M6.00463 566.468C-2.93669 568.235 0 579.968 0 587C0 602.576 -5.63237 630.7 19 626.674C59.5542 620.045 45.2218 558.72 6.00463 566.468z"/>
<path style="fill:#dba77b; stroke:none;" d="M357 566L358 567L357 566z"/>
<path style="fill:#ba7d4a; stroke:none;" d="M356 567L357 568L356 567z"/>
<path style="fill:#dba77b; stroke:none;" d="M356 568L357 569L356 568M355 569L356 570L355 569z"/>
<path style="fill:#ba7d4a; stroke:none;" d="M354 571L355 572L354 571M353 572L354 573L353 572z"/>
<path style="fill:#dba77b; stroke:none;" d="M353 573L354 574L353 573M653 573L654 574L653 573z"/>
<path style="fill:#ba7d4a; stroke:none;" d="M352 574L353 575L352 574M351 575L352 576L351 575M350 576L351 577L350 576z"/>
<path style="fill:#dba77b; stroke:none;" d="M350 577L351 578L350 577M349 578L350 579L349 578M348 579L349 580L348 579M347 580L348 581L347 580z"/>
<path style="fill:#ba7d4a; stroke:none;" d="M346 581L347 582L346 581z"/>
<path style="fill:#dba77b; stroke:none;" d="M345 583L346 584L345 583z"/>
<path style="fill:#ba7d4a; stroke:none;" d="M267 584L264 591L265 599L266 599C266.338 593.84 270.628 588.585 267 584M344 584L345 585L344 584M343 585L344 586L343 585z"/>
<path style="fill:#dba77b; stroke:none;" d="M637 585L638 586L637 585M342 586L343 587L342 586M267.333 588.667L267.667 589.333L267.333 588.667M339 588L340 589L339 588M629 588L630 589L629 588M338 589L339 590L338 589M337 590L338 591L337 590M628 590L629 591L628 590z"/>
<path style="fill:#ba7d4a; stroke:none;" d="M336 591L337 592L336 591z"/>
<path style="fill:#dba77b; stroke:none;" d="M264 592L258 611L261 610C262.52 604.079 266.557 598.108 264 592z"/>
<path style="fill:#ba7d4a; stroke:none;" d="M335 592L336 593L335 592M263 593L264 594L263 593M333 593L331 596L333 593z"/>
<path style="fill:#dba77b; stroke:none;" d="M334 593L335 594L334 593M333 594L334 595L333 594z"/>
<path style="fill:#ba7d4a; stroke:none;" d="M262 595L263 596L262 595z"/>
<path style="fill:#dba77b; stroke:none;" d="M332 595L333 596L332 595z"/>
<path style="fill:#ba7d4a; stroke:none;" d="M329 596L330 597L329 596z"/>
<path style="fill:#dba77b; stroke:none;" d="M330 596L331 597L330 596z"/>
<path style="fill:#ba7d4a; stroke:none;" d="M262 597L263 598L262 597M327 597L328 598L327 597z"/>
<path style="fill:#dba77b; stroke:none;" d="M326 598L327 599L326 598z"/>
<path style="fill:#ba7d4a; stroke:none;" d="M261.333 599.667L261.667 600.333L261.333 599.667M324 599L325 600L324 599z"/>
<path style="fill:#dba77b; stroke:none;" d="M325 599L326 600L325 599z"/>
<path style="fill:#ba7d4a; stroke:none;" d="M264 600L265 601L264 600z"/>
<path style="fill:#dba77b; stroke:none;" d="M322 600L323 601L322 600z"/>
<path style="fill:#ba7d4a; stroke:none;" d="M185 601L185 605L186 605L190 605L185 601M320 601L321 602L320 601z"/>
<path style="fill:#dba77b; stroke:none;" d="M321 601L322 602L321 601z"/>
<path style="fill:#ba7d4a; stroke:none;" d="M260 602L261 603L260 602M263.333 602.667L263.667 603.333L263.333 602.667z"/>
<path style="fill:#dba77b; stroke:none;" d="M318.667 602.333L319.333 602.667L318.667 602.333M186 603L185 616L194 607L186 603M317 603L318 604L317 603z"/>
<path style="fill:#ba7d4a; stroke:none;" d="M259.333 604.667L259.667 605.333L259.333 604.667M315 604L316 605L315 604M191 605L192 606L191 605M262.333 605.667L262.667 606.333L262.333 605.667M312 605L313 606L312 605z"/>
<path style="fill:#dba77b; stroke:none;" d="M313.667 605.333L314.333 605.667L313.667 605.333z"/>
<path style="fill:#ba7d4a; stroke:none;" d="M184.333 606.667L184.667 607.333L184.333 606.667M193 606L194 607L193 606z"/>
<path style="fill:#f2f5f1; stroke:none;" d="M261 606L262 607L261 606z"/>
<path style="fill:#ba7d4a; stroke:none;" d="M310 606L311 607L310 606z"/>
<path style="fill:#dba77b; stroke:none;" d="M311 606L312 607L311 606z"/>
<path style="fill:#ba7d4a; stroke:none;" d="M194 607C190.16 612.458 184.364 616.033 188 623L189 623L198 611L202 612L194 607M308 607L309 608L308 607z"/>
<path style="fill:#dba77b; stroke:none;" d="M309 607L310 608L309 607z"/>
<path style="fill:#ba7d4a; stroke:none;" d="M185 608L186 609L185 608M200 608L201 609L200 608M261 608L262 609L261 608z"/>
<path style="fill:#dba77b; stroke:none;" d="M307 608L308 609L307 608z"/>
<path style="fill:#f2f5f1; stroke:none;" d="M259 609L260 610L259 609z"/>
<path style="fill:#ba7d4a; stroke:none;" d="M303.667 609.333L304.333 609.667L303.667 609.333z"/>
<path style="fill:#dba77b; stroke:none;" d="M305 609L306 610L305 609M630 609L631 610L630 609z"/>
<path style="fill:#ba7d4a; stroke:none;" d="M184 610L185 611L184 610M257 610L258 611L257 610M259 610L260 611L259 610z"/>
<path style="fill:#dba77b; stroke:none;" d="M301 610L302 611L301 610M198 611L188 631C193.581 627.774 212.631 613.989 198 611z"/>
<path style="fill:#ba7d4a; stroke:none;" d="M298 611L299 612L298 611z"/>
<path style="fill:#dba77b; stroke:none;" d="M299.667 611.333L300.333 611.667L299.667 611.333z"/>
<path style="fill:#ba7d4a; stroke:none;" d="M203 612L204 613L203 612z"/>
<path style="fill:#dba77b; stroke:none;" d="M295 612L295 613L298 613L295 612z"/>
<path style="fill:#f2f5f1; stroke:none;" d="M199 613L198 616L199 613z"/>
<path style="fill:#ba7d4a; stroke:none;" d="M204 613L205 614L204 613M207 613L189 630L192 644L222 619L222 618C216.593 618.101 210.902 616.865 207 613M292 613L293 614L292 613z"/>
<path style="fill:#dba77b; stroke:none;" d="M293.667 613.333L294.333 613.667L293.667 613.333z"/>
<path style="fill:#f2f5f1; stroke:none;" d="M201 614L202 615L201 614z"/>
<path style="fill:#dba77b; stroke:none;" d="M288 614L288 615L291 615L288 614z"/>
<path style="fill:#f2f5f1; stroke:none;" d="M203 615L204 616L203 615z"/>
<path style="fill:#ba7d4a; stroke:none;" d="M284 615L285 616L284 615z"/>
<path style="fill:#dba77b; stroke:none;" d="M285 615L285 616L288 616L285 615z"/>
<path style="fill:#ba7d4a; stroke:none;" d="M279 616L280 617L279 616z"/>
<path style="fill:#dba77b; stroke:none;" d="M280 616L280 617L284 617L280 616z"/>
<path style="fill:#f2f5f1; stroke:none;" d="M200 617L201 618L200 617z"/>
<path style="fill:#ba7d4a; stroke:none;" d="M223.667 617.333L224.333 617.667L223.667 617.333M275.667 617.333L276.333 617.667L275.667 617.333z"/>
<path style="fill:#dba77b; stroke:none;" d="M277.667 617.333L278.333 617.667L277.667 617.333M222 618L223 619L222 618M225 618L225 619L228 619L225 618z"/>
<path style="fill:#ba7d4a; stroke:none;" d="M228 618L229 619L228 618M256 618L256 619L262 619L256 618z"/>
<path style="fill:#dba77b; stroke:none;" d="M262 618L262 619L274 619L262 618M633.333 618.667L633.667 619.333L633.333 618.667z"/>
<path style="fill:#f2f5f1; stroke:none;" d="M199 619L200 620L199 619z"/>
<path style="fill:#dba77b; stroke:none;" d="M221 619L222 620L221 619M229 619L229 620L236 620L229 619z"/>
<path style="fill:#ba7d4a; stroke:none;" d="M236 619L237 620L236 619z"/>
<path style="fill:#dba77b; stroke:none;" d="M244 619L244 620L257 620L244 619M258 619L258 620L261 620L258 619z"/>
<path style="fill:#f2f5f1; stroke:none;" d="M195 620L196 621L195 620z"/>
<path style="fill:#dba77b; stroke:none;" d="M219.667 620.333L220.333 620.667L219.667 620.333M237 620L237 621L244 621L237 620M218 621L219 622L218 621z"/>
<path style="fill:#f2f5f1; stroke:none;" d="M195 622L196 623L195 622z"/>
<path style="fill:#dba77b; stroke:none;" d="M217 622L218 623L217 622M216 623L217 624L216 623M215 624L216 625L215 624z"/>
<path style="fill:#f2f5f1; stroke:none;" d="M188 625L189 626L188 625z"/>
<path style="fill:#dba77b; stroke:none;" d="M214 625L215 626L214 625M635 625C628.279 627.299 625.092 628.249 625 636L626 636L635 625M213 626L214 627L213 626M211 627L211 629L213 627L211 627z"/>
<path style="fill:#ba7d4a; stroke:none;" d="M444 802L440 799C449.416 815.633 442.185 831.83 425 840.951C418.381 844.464 410.938 845.231 404 847.7C382.804 855.243 365.572 861.965 343 853.949C333.574 850.602 313.164 841.24 312 830L303 825.333L273 804C279.141 823.272 295.198 843.488 305.554 861C326.856 897.022 346.551 933.989 369.55 969C378.002 981.867 385.515 995.318 394.283 1008C397.442 1012.57 400.615 1020.02 405.465 1022.97C409.379 1025.36 416.579 1024 421 1024L459 1024C453.987 1006.6 447.864 992.817 450.425 974C457.436 922.496 511.822 901.891 553 931.043C581.29 951.071 592.357 991.395 582 1024L683 1024L688.821 993L680 933C653.844 935.284 630.544 941.009 609.001 920.025C594.19 905.599 584.646 884.961 586.089 864C588.641 826.947 621.808 793.79 660 804L652.325 748L641.791 667L636 627C619.019 627.364 627.357 650.242 630.427 661C638.172 688.134 628.642 713.863 599 721.1C568.189 728.623 540.761 714.873 519.089 693.83C509.076 684.107 500.396 666.647 486 663.174C449.604 654.394 448.679 711.876 422 722.981C401.652 731.45 386.141 709.057 372 698.557C356.291 686.893 335.422 693.045 323.039 706C318.387 710.867 314.551 716.689 312.118 723C309.129 730.754 308.182 739.757 309.184 748C313.434 782.931 359.213 805.231 391 800.7C409.035 798.129 431.645 782.302 444 802z"/>
<path style="fill:#dba77b; stroke:none;" d="M209.667 629.333L210.333 629.667L209.667 629.333z"/>
<path style="fill:#ba7d4a; stroke:none;" d="M118 692L117 689C130.502 685.754 137.095 664.447 132.895 652.001C129.005 640.474 113.024 630.72 101.004 630.796C72.9864 630.972 50.9354 664.277 74.0039 685.91C87.6522 698.708 101.858 691.489 118 692z"/>
<path style="fill:#dba77b; stroke:none;" d="M208 630L209 631L208 630M95 631L96 632L95 631M105 631L105 632L108 632L105 631M207 631L208 632L207 631M90.6667 632.333L91.3333 632.667L90.6667 632.333M110 632L110 633L128 644C126.727 636.426 116.796 633.019 110 632M206 632L207 633L206 632M86 633L87 634L86 633M205 633L206 634L205 633M84 634L85 635L84 634M204 634L205 635L204 634M203 635L204 636L203 635M80 636L81 637L80 636z"/>
<path style="fill:#5f5553; stroke:none;" d="M190 636L190 639L191 639L190 636z"/>
<path style="fill:#dba77b; stroke:none;" d="M202 636L200 639L202 636M79 637L80 638L79 637M196 642L200 639L196 642z"/>
<path style="fill:#5f5553; stroke:none;" d="M191 640L192 641L191 640z"/>
<path style="fill:#dba77b; stroke:none;" d="M74 641L75 642L74 641M73 642L74 643L73 642M195 642L194 645L195 642M626 642L626 648L627 648L626 642M72 643L73 644L72 643M128 644L129 645L128 644M192.333 644.667L192.667 645.333L192.333 644.667M627 650L627 653L628 653L627 650M628 653L628 656L629 656L628 653M196 657L197 658L196 657M629 657L629 660L630 660L629 657z"/>
<path style="fill:#5f5553; stroke:none;" d="M64 658L65 659L64 658z"/>
<path style="fill:#dba77b; stroke:none;" d="M134 659L128 681C133.295 676.446 136.803 665.695 134 659M479 661L480 662L479 661M630 661L630 664L631 664L630 661M474 662L474 663L479 663L474 662M482 662L482 663L487 663L482 662M471 663L471 664L474 664L471 663M488 663L489 664L488 663M469 664L470 665L469 664M489 664L489 665L492 665L489 664M631 664L631 667L632 667L631 664M467.667 665.333L468.333 665.667L467.667 665.333M492.667 665.333L493.333 665.667L492.667 665.333M465.667 666.333L466.333 666.667L465.667 666.333M494 666L495 667L494 666M464 667L465 668L464 667M495 667L496 668L495 667M632 667L632 670L633 670L632 667M463 668L464 669L463 668M496 668L497 669L496 668M461 669L462 670L461 669M497 669L498 670L497 669M460 670L459 672L461 672L460 670M498 670L499 671L498 670M633 670L633 681L634 681L633 670M499 671L500 672L499 671M458 672L459 673L458 672M500.333 672.667L500.667 673.333L500.333 672.667M457 673L458 674L457 673M456 674L457 675L456 674M501.667 674.333L502.333 674.667L501.667 674.333M455.333 675.667L455.667 676.333L455.333 675.667M503 675L504 676L503 675M204 676L205 677L204 676M504.333 676.667L504.667 677.333L504.333 676.667M454 677L455 678L454 677M505 678L506 679L505 678M453 679L454 680L453 679M506 680L507 681L506 680M127 681L128 682L127 681M206 681L207 682L206 681M452 681L453 682L452 681M507 681L508 682L507 681M451.333 682.667L451.667 683.333L451.333 682.667M632 682L633 683L632 682M124 683L125 684L124 683M509 683L510 684L509 683M450.333 684.667L450.667 685.333L450.333 684.667M510 684L511 685L510 684M632 684L632 691L633 691L632 684M511 685L512 686L511 685M512 686L513 687L512 686M122 687L123 688L122 687M449 687L450 688L449 687M513 687L514 688L513 687M117 691L121 688L117 691M514 688L515 689L514 688z"/>
<path style="fill:#5f5553; stroke:none;" d="M78 689L79 690L78 689z"/>
<path style="fill:#dba77b; stroke:none;" d="M448 689L449 690L448 689M515 689L516 690L515 689M516.333 690.667L516.667 691.333L516.333 690.667M115.667 691.333L116.333 691.667L115.667 691.333M351 691L351 692L354 692L351 691M447.333 691.667L447.667 692.333L447.333 691.667M631 691L631 695L632 695L631 691M88 693L88 694C97.7795 696.409 105.513 696.203 115 693L88 693M344 692L344 693L349 693L344 692M354 692L354 693L360 693L354 692M517 692L518 693L517 692M341 693L341 694L344 694L341 693M360 693L360 694L364 694L360 693M446.333 693.667L446.667 694.333L446.333 693.667M518 693L519 694L518 693M338 694L338 695L341 695L338 694M364.667 694.333L365.333 694.667L364.667 694.333M519 694L520 695L519 694z"/>
<path style="fill:#ba7d4a; stroke:none;" d="M95 695L96 696L95 695z"/>
<path style="fill:#dba77b; stroke:none;" d="M335.667 695.333L336.333 695.667L335.667 695.333M366.667 695.333L367.333 695.667L366.667 695.333M445.333 695.667L445.667 696.333L445.333 695.667M520.667 695.333L521.333 695.667L520.667 695.333M333.667 696.333L334.333 696.667L333.667 696.333M369 696L370 697L369 696M522 696L523 697L522 696M630.333 696.667L630.667 697.333L630.333 696.667M332 697L333 698L332 697M370.667 697.333L371.333 697.667L370.667 697.333M444.333 697.667L444.667 698.333L444.333 697.667M523 697L524 698L523 697M330 698L331 699L330 698M372 698L373 699L372 698M524 698L525 699L524 698M629.333 698.667L629.667 699.333L629.333 698.667M329 699L330 700L329 699M373 699L375 701L375 699L373 699M443.333 699.667L443.667 700.333L443.333 699.667M525 699L526 700L525 699M328 700L329 701L328 700M526 700L527 701L526 700M628.333 700.667L628.667 701.333L628.333 700.667M327 701L328 702L327 701M375 701L376 702L375 701M442.333 701.667L442.667 702.333L442.333 701.667M527 701L528 702L527 701M326 702L327 703L326 702M376 702L377 703L376 702M529.333 702.667L529.667 703.333L529.333 702.667M627.333 702.667L627.667 703.333L627.333 702.667M325 703L326 704L325 703M377 703L378 704L377 703M441.333 703.667L441.667 704.333L441.333 703.667M324 704L325 705L324 704M378 704L379 705L378 704M530 704L531 705L530 704M626 704L627 705L626 704M323 705L324 706L323 705M379 705L380 706L379 705M440.333 705.667L440.667 706.333L440.333 705.667M531.667 705.333L532.333 705.667L531.667 705.333M625 705L626 706L625 705M322 706L323 707L322 706M380 706L381 707L380 706M533 706L534 707L533 706M623.667 706.333L624.333 706.667L623.667 706.333M321 707L322 708L321 707M381 707L382 708L381 707M439 707L440 708L439 707M534.667 707.333L535.333 707.667L534.667 707.333M320 708L321 709L320 708M382 708L385 710L382 708M536 708L537 709L536 708M622 708L623 709L622 708M319 709L320 710L319 709M438 709L439 710L438 709M537 709L538 710L537 709M621 709L622 710L621 709M318.333 710.667L318.667 711.333L318.333 710.667M385 710L386 711L385 710M437 710L438 711L437 710M538.667 710.333L539.333 710.667L538.667 710.333M619.667 710.333L620.333 710.667L619.667 710.333M386 711L387 712L386 711M436 711L437 712L436 711M540 711L541 712L540 711M618 711L619 712L618 711M317 712L318 713L317 712M435 712L436 713L435 712M481 712.529C434.642 716.58 447.416 786.604 491 783.331C539.237 779.708 526.807 708.526 481 712.529M542 712L543 713L542 712M617 712L618 713L617 712M316 713L317 714L316 713M389 713L390 714L389 713M434 713L435 714L434 713M543.667 713.333L544.333 713.667L543.667 713.333M616 713L617 714L616 713M390 714L391 715L390 714M433 714L434 715L433 714M545.667 714.333L546.333 714.667L545.667 714.333M615 714L616 715L615 714M315.333 715.667L315.667 716.333L315.333 715.667M391 715L392 716L391 715M432 715L433 716L432 715M547.667 715.333L548.333 715.667L547.667 715.333M612 715L612 716L615 716L612 715M392 716L393 717L392 716M431 716L432 717L431 716M549.667 716.333L550.333 716.667L549.667 716.333M611 716L612 717L611 716M314.333 717.667L314.667 718.333L314.333 717.667M393 717L394 718L393 717M430 717L431 718L430 717M551.667 717.333L552.333 717.667L551.667 717.333M554 717L555 718L554 717M608.667 717.333L609.333 717.667L608.667 717.333M224 718L225 719L224 718M394 718L394 719L397 719L394 718M429 718L430 719L429 718M555 718L555 719L558 719L555 718M605.667 718.333L606.333 718.667L605.667 718.333M313 719L314 720L313 719M397 719L398 720L397 719M428 719L429 720L428 719M558 719L558 720L561 720L558 719M602 719L602 720L605 720L602 719M312.333 720.667L312.667 721.333L312.333 720.667M399 720L400 721L399 720M426.667 720.333L427.333 720.667L426.667 720.333M562 720L562 721L565 721L562 720M598 720L598 721L602 721L598 720M226 721L227 722L226 721M400.667 721.333L401.333 721.667L400.667 721.333M424.667 721.333L425.333 721.667L424.667 721.333M565 721L565 722L569 722L565 721M592 721L592 722L598 722L592 721M311 722L311 725L312 725L311 722M403.667 722.333L404.333 722.667L403.667 722.333M421 722L421 723L424 723L421 722M571 722L571 723L591 723L571 722M405.667 723.333L406.333 723.667L405.667 723.333M419.667 723.333L420.333 723.667L419.667 723.333M407 724L407 725L419 725L407 724z"/>
<path style="fill:#f2f5f1; stroke:none;" d="M780 725.711C744.507 726.354 744.085 781.478 780 780.981C815.019 780.497 815.933 725.059 780 725.711z"/>
<path style="fill:#dba77b; stroke:none;" d="M310 726L310 729L311 729L310 726M309 729L309 733L310 733L309 729M308 733L308 748L309 748L308 733M236 740L237 741L236 740M240 747L241 748L240 747M309 750L309 753L310 753L309 750M310.333 753.667L310.667 754.333L310.333 753.667M311 756L312 757L311 756M312.333 757.667L312.667 758.333L312.333 757.667M246 759L247 760L246 759M313 759L314 760L313 759M314.333 760.667L314.667 761.333L314.333 760.667M249 763L250 764L249 763M315.333 763.667L315.667 764.333L315.333 763.667M250 765L251 766L250 765M316 765L317 766L316 765M317 767L318 768L317 767M252 768L253 769L252 768M318 769L319 770L318 769M319 770L320 771L319 770M320 771L321 772L320 771M321 772L322 773L321 772M322 773L323 774L322 773M256 775L257 776L256 775M323 775L324 776L323 775M324 776L325 777L324 776M325 777L326 778L325 777M326 778L327 779L326 778M327.333 779.667L327.667 780.333L327.333 779.667M259 780L260 781L259 780M328 781L329 782L328 781M260 782L261 783L260 782M330 782L331 783L330 782M331 783L332 784L331 783M332 784L333 785L332 784M262 785L263 786L262 785M333 785L336 787L333 785M336.667 787.333L337.333 787.667L336.667 787.333M338.667 788.333L339.333 788.667L338.667 788.333M264 789L265 790L264 789M340 789L343 791L340 789M343 791L344 792L343 791M423 791L423 792L431 792L423 791M344.667 792.333L345.333 792.667L344.667 792.333M422 792L420 793L420 794L422 792M431 792L431 793L436 793L431 792M346 793L346 794L349 794L346 793M436 793L437 794L436 793M349.667 794.333L350.333 794.667L349.667 794.333M417 794L417 795L420 795L417 794M437 794L439 799L444 802L437 794M351 795L351 796L355 796L351 795M413 795L413 796L417 796L413 795M429 795L429 796L438 798L438 797L429 795M355 796L356 797L355 796M410 796L410 797L413 797L410 796M423 797L425 805L426 805L424 797L428 797L423 797z"/>
<path style="fill:#ba7d4a; stroke:none;" d="M428 796L429 797L428 796z"/>
<path style="fill:#5f5553; stroke:none;" d="M425 797L426 801L429 801L426 803C429.106 812.106 433.58 818.019 443 821C447.918 811.618 444.685 795.159 431 798L425 797z"/>
<path style="fill:#ba7d4a; stroke:none;" d="M431.333 796.667L431.667 797.333L431.333 796.667z"/>
<path style="fill:#dba77b; stroke:none;" d="M357 797L357 798L361 798L357 797M406 797L406 798L410 798L406 797z"/>
<path style="fill:#ba7d4a; stroke:none;" d="M424 797L425 798L424 797M435 797L436 798L435 797z"/>
<path style="fill:#dba77b; stroke:none;" d="M362 798L362 799L366 799L362 798M401 798L401 799L404 799L401 798M405 798L406 799L405 798z"/>
<path style="fill:#ba7d4a; stroke:none;" d="M425 798L426 803L429 801L426 801L425 798M427 798L428 799L427 798M429 798L429 801L432 800L432 799L429 798M438 798L439 799L438 798z"/>
<path style="fill:#f2f5f1; stroke:none;" d="M894 798.49C882.667 799.939 870.282 805.588 864.558 816C850.687 841.229 870.216 876.627 900 872.711C945.98 866.665 940.694 792.518 894 798.49z"/>
<path style="fill:#dba77b; stroke:none;" d="M270 799L271 800L270 799M366 799L366 800L370 800L366 799M396 799L396 800L401 800L396 799M371 800L371 801L375 801L371 800M392 800L392 801L396 801L392 800M375 801L375 802L392 802L375 801M680 933C672.233 901.472 671.786 868.741 665.449 837C663.864 829.061 664.597 810.61 659.258 804.652C654.825 799.706 646.674 801.395 641 801.925C623.149 803.592 605.77 814.81 596.209 830.015C574.715 864.196 588.209 915.354 626 931.664C644.676 939.724 660.981 935.809 680 933M272 802L273 803L272 802M273.667 803.333L274.333 803.667L273.667 803.333M275.333 804.667L275.667 805.333L275.333 804.667z"/>
<path style="fill:#ba7d4a; stroke:none;" d="M426.333 804.667L426.667 805.333L426.333 804.667z"/>
<path style="fill:#dba77b; stroke:none;" d="M276 806L277 807L276 806M426 806L427 807L426 806M277.667 807.333L278.333 807.667L277.667 807.333z"/>
<path style="fill:#ba7d4a; stroke:none;" d="M427 807L428 808L427 807z"/>
<path style="fill:#dba77b; stroke:none;" d="M279 808L280 809L279 808M427 808L428 809L427 808M280 809L281 810L280 809z"/>
<path style="fill:#ba7d4a; stroke:none;" d="M428 809L429 810L428 809M661 809L661 813L662 813L661 809z"/>
<path style="fill:#dba77b; stroke:none;" d="M281 810L282 811L281 810M428 810L429 811L428 810M282.667 811.333L283.333 811.667L282.667 811.333z"/>
<path style="fill:#ba7d4a; stroke:none;" d="M429 811L430 814L431 814L429 811z"/>
<path style="fill:#dba77b; stroke:none;" d="M284 812L285 813L284 812M429 812L430 813L429 812M285 813L286 814L285 813M287 814L288 815L287 814M430 814L431 815L430 814M288 815L289 816L288 815z"/>
<path style="fill:#ba7d4a; stroke:none;" d="M431 815L432 816L431 815z"/>
<path style="fill:#dba77b; stroke:none;" d="M289 816L290 817L289 816M432 816L433 817L432 816z"/>
<path style="fill:#ba7d4a; stroke:none;" d="M433 816L434 817L433 816z"/>
<path style="fill:#dba77b; stroke:none;" d="M290 817L291 818L290 817M434 817L435 818L434 817z"/>
<path style="fill:#ba7d4a; stroke:none;" d="M435 817L436 818L435 817z"/>
<path style="fill:#dba77b; stroke:none;" d="M291 818L292 819L291 818M436 818L437 819L436 818z"/>
<path style="fill:#ba7d4a; stroke:none;" d="M437 818L438 819L437 818z"/>
<path style="fill:#dba77b; stroke:none;" d="M292.667 819.333L293.333 819.667L292.667 819.333z"/>
<path style="fill:#ba7d4a; stroke:none;" d="M438 819L439 820L438 819z"/>
<path style="fill:#dba77b; stroke:none;" d="M294.667 820.333L295.333 820.667L294.667 820.333M439 820L440 821L439 820z"/>
<path style="fill:#ba7d4a; stroke:none;" d="M440 820L441 821L440 820z"/>
<path style="fill:#dba77b; stroke:none;" d="M296 821L297 822L296 821M441 821L442 822L441 821z"/>
<path style="fill:#ba7d4a; stroke:none;" d="M662 821L663 822L662 821z"/>
<path style="fill:#dba77b; stroke:none;" d="M298 822L299 823L298 822M442 822L442 825L443 825L442 822M299 823L300 824L299 823M301.667 824.333L302.333 824.667L301.667 824.333z"/>
<path style="fill:#ba7d4a; stroke:none;" d="M663.333 824.667L663.667 825.333L663.333 824.667z"/>
<path style="fill:#dba77b; stroke:none;" d="M303 825L304 826L303 825M304.667 826.333L305.333 826.667L304.667 826.333M441 826L442 827L441 826M306 827L307 828L306 827M440 827L441 828L440 827M308 828L309 829L308 828M439 829L440 830L439 829z"/>
<path style="fill:#5f5553; stroke:none;" d="M310 830L311 831L310 830z"/>
<path style="fill:#dba77b; stroke:none;" d="M312 830L313 831L312 830M438 830L439 831L438 830z"/>
<path style="fill:#5f5553; stroke:none;" d="M311 831C313.641 838.208 320.863 842.204 327 846.181C344.514 857.529 364.717 860.588 385 855.661C392.028 853.953 398.15 850.011 405 848L405 847C385.649 848.527 368.076 848.874 349 844.105C335.953 840.843 323.954 834.07 311 831z"/>
<path style="fill:#ba7d4a; stroke:none;" d="M313 831L314 832L313 831z"/>
<path style="fill:#dba77b; stroke:none;" d="M314 831L315 832L314 831M437 831L438 832L437 831z"/>
<path style="fill:#ba7d4a; stroke:none;" d="M664 831L665 832L664 831z"/>
<path style="fill:#dba77b; stroke:none;" d="M316 832L317 833L316 832M436 832L437 833L436 832z"/>
<path style="fill:#ba7d4a; stroke:none;" d="M318 833L319 834L318 833z"/>
<path style="fill:#dba77b; stroke:none;" d="M319 833L320 834L319 833M434.667 833.333L435.333 833.667L434.667 833.333M321 834L322 835L321 834M433 834L434 835L433 834z"/>
<path style="fill:#ba7d4a; stroke:none;" d="M322 835L323 836L322 835z"/>
<path style="fill:#dba77b; stroke:none;" d="M323 835L324 836L323 835M432 835L433 836L432 835z"/>
<path style="fill:#ba7d4a; stroke:none;" d="M665 835L665 838L666 838L665 835M325 836L326 837L325 836z"/>
<path style="fill:#dba77b; stroke:none;" d="M326 836L327 837L326 836M431 836L432 837L431 836M328.667 837.333L329.333 837.667L328.667 837.333M430 837L431 838L430 837M331.667 838.333L332.333 838.667L331.667 838.333M428 838L429 839L428 838z"/>
<path style="fill:#ba7d4a; stroke:none;" d="M333 839L334 840L333 839z"/>
<path style="fill:#dba77b; stroke:none;" d="M334 839L335 840L334 839M427 839L428 840L427 839M336 840L336 841L339 841L336 840M425.667 840.333L426.333 840.667L425.667 840.333z"/>
<path style="fill:#ba7d4a; stroke:none;" d="M339 841L340 842L339 841z"/>
<path style="fill:#dba77b; stroke:none;" d="M340.667 841.333L341.333 841.667L340.667 841.333M423.667 841.333L424.333 841.667L423.667 841.333z"/>
<path style="fill:#ba7d4a; stroke:none;" d="M343 842L344 843L343 842z"/>
<path style="fill:#dba77b; stroke:none;" d="M344.667 842.333L345.333 842.667L344.667 842.333M418 842L418 843L422 843L418 842z"/>
<path style="fill:#ba7d4a; stroke:none;" d="M346 843L347 844L346 843z"/>
<path style="fill:#dba77b; stroke:none;" d="M347 843L347 844L350 844L347 843M414 844L414 845L418 844L414 844z"/>
<path style="fill:#ba7d4a; stroke:none;" d="M350 844L351 845L350 844z"/>
<path style="fill:#dba77b; stroke:none;" d="M351 844L351 845L355 845L351 844z"/>
<path style="fill:#ba7d4a; stroke:none;" d="M355 845L356 846L355 845z"/>
<path style="fill:#dba77b; stroke:none;" d="M356 845L356 846L359 846L356 845M410 845L410 846L414 846L410 845z"/>
<path style="fill:#ba7d4a; stroke:none;" d="M359.667 846.333L360.333 846.667L359.667 846.333z"/>
<path style="fill:#dba77b; stroke:none;" d="M361 846L361 847L367 847L361 846M403 846L403 847L408 847L403 846z"/>
<path style="fill:#ba7d4a; stroke:none;" d="M667.333 846.667L667.667 847.333L667.333 846.667M367 847L368 848L367 847z"/>
<path style="fill:#dba77b; stroke:none;" d="M368 847L368 848L376 848L368 847M389 847L389 848L397 848L389 847z"/>
<path style="fill:#ba7d4a; stroke:none;" d="M397 847L397 848L401 848L397 847M376 848L376 849L388 849L376 848z"/>
<path style="fill:#dba77b; stroke:none;" d="M136.603 854.132C134.085 855.841 136.92 859.665 139.397 857.929C141.888 856.182 139.013 852.496 136.603 854.132z"/>
<path style="fill:#ba7d4a; stroke:none;" d="M669 860L669 864L670 864L669 860M670 872L670 877L671 877L670 872M671.333 878.667L671.667 879.333L671.333 878.667M673 890L673 895L674 895L673 890M674 899L675 900L674 899M674 903L675 904L674 903M675 905L675 908L676 908L675 905M676 915L677 916L676 915z"/>
<path style="fill:#dba77b; stroke:none;" d="M516 916.711C474.442 917.063 450 946.486 450 987C450 997.417 450.851 1014.54 458.966 1022.4C463.925 1027.19 482.323 1024 489 1024C518.267 1024 548.847 1026.58 577.982 1023.94C583.715 1023.42 584.346 1017.84 584.829 1013C585.958 1001.73 585.545 989.139 583.537 978C578.04 947.514 548.795 916.432 516 916.711M746.094 917.006C740.271 918.71 743.113 927.491 748.856 925.353C753.693 923.551 750.976 915.578 746.094 917.006z"/>
<path style="fill:#ba7d4a; stroke:none;" d="M677.333 919.667L677.667 920.333L677.333 919.667M679 929L679 932L680 932L679 929z"/>
<path style="fill:#5f5553; stroke:none;" d="M687.333 983.667L687.667 984.333L687.333 983.667z"/>
<path style="fill:#ba7d4a; stroke:none;" d="M910 986L910 987L918 987L910 986z"/>
<path style="fill:#dba77b; stroke:none;" d="M876 1024L949 1024C948.983 1017.89 948.467 1011.52 945.597 1006C927.768 971.691 876.304 987.316 876 1024z"/>
<path style="fill:#ba7d4a; stroke:none;" d="M906 987L907 988L906 987M901 988L902 989L901 988M925 988L926 989L925 988M897 990L898 991L897 990M929 990L930 991L929 990M893 992L894 993L893 992z"/>
<path style="fill:#5f5553; stroke:none;" d="M689 993L690 994L689 993M688 996L689 997L688 996M687 1003L688 1004L687 1003M687 1005L688 1006L687 1005M686 1007L687 1008L686 1007z"/>
<path style="fill:#ba7d4a; stroke:none;" d="M947 1010L948 1011L947 1010z"/>
<path style="fill:#5f5553; stroke:none;" d="M685 1013L686 1014L685 1013M683 1021L684 1022L683 1021z"/>
</svg>
